
<svg version="1.1" id="Layer_1" xmlns="http://www.w3.org/2000/svg" xmlns:xlink="http://www.w3.org/1999/xlink" x="0px" y="0px"
	 viewBox="0 0 595.3 841.9" style="enable-background:new 0 0 595.3 841.9;" xml:space="preserve">
<style type="text/css">
	.st0{fill:#A81E1C;}
	.st1{clip-path:url(#SVGID_2_);fill:#A81E1C;}
	.st2{clip-path:url(#SVGID_4_);fill:#A81E1C;}
	.st3{clip-path:url(#SVGID_6_);fill:#A81E1C;}
	.st4{clip-path:url(#SVGID_8_);fill:#A81E1C;}
	.st5{clip-path:url(#SVGID_10_);fill:#A81E1C;}
	.st6{clip-path:url(#SVGID_12_);fill:#A81E1C;}
	.st7{clip-path:url(#SVGID_14_);fill:#A81E1C;}
	.st8{clip-path:url(#SVGID_16_);fill:#A81E1C;}
	.st9{clip-path:url(#SVGID_18_);fill:#A81E1C;}
	.st10{clip-path:url(#SVGID_20_);fill:#A81E1C;}
	.st11{clip-path:url(#SVGID_22_);fill:#A81E1C;}
	.st12{clip-path:url(#SVGID_24_);fill:#A81E1C;}
	.st13{clip-path:url(#SVGID_26_);fill:#A81E1C;}
	.st14{fill:url(#SVGID_27_);}
	.st15{fill:url(#SVGID_28_);}
	.st16{fill:url(#SVGID_29_);}
	.st17{fill:url(#SVGID_30_);}
	.st18{fill:url(#SVGID_31_);}
	.st19{fill:url(#SVGID_32_);}
	.st20{fill:url(#SVGID_33_);}
	.st21{fill:url(#SVGID_34_);}
	.st22{fill:url(#SVGID_35_);}
	.st23{fill:url(#SVGID_36_);}
	.st24{fill:url(#SVGID_37_);}
	.st25{fill:url(#SVGID_38_);}
	.st26{fill:url(#SVGID_39_);}
	.st27{clip-path:url(#SVGID_41_);fill:#A81E1C;}
	.st28{clip-path:url(#SVGID_43_);fill:#A81E1C;}
	.st29{clip-path:url(#SVGID_45_);fill:#A81E1C;}
	.st30{clip-path:url(#SVGID_47_);fill:#A81E1C;}
	.st31{clip-path:url(#SVGID_49_);fill:#A81E1C;}
	.st32{clip-path:url(#SVGID_51_);fill:#A81E1C;}
	.st33{clip-path:url(#SVGID_53_);fill:#A81E1C;}
	.st34{clip-path:url(#SVGID_55_);fill:#A81E1C;}
	.st35{clip-path:url(#SVGID_57_);fill:#A81E1C;}
	.st36{clip-path:url(#SVGID_59_);fill:#A81E1C;}
	.st37{clip-path:url(#SVGID_61_);fill:#A81E1C;}
	.st38{clip-path:url(#SVGID_63_);fill:#A81E1C;}
	.st39{clip-path:url(#SVGID_65_);fill:#A81E1C;}
	.st40{fill:#F4C000;}
</style>
<g>
	<path class="st0" d="M290.4,59.6c2.2,5.2,4.3,10.4,6.5,15.6c0.9,2.1,1.8,4.3,2.9,6.4c1.5,2.7,3.8,4.8,6.7,6.1
		c3.8,1.8,7.8,3.3,11.6,5.2c1.8,0.9,3.6,1.9,4.9,3.3c1.7,1.8,3.6,3.1,5.8,4.1c2.2,1.1,4.4,2.3,6.5,3.6c2.4,1.5,4.3,3.6,5.4,6.1
		c1.3,2.9,3.5,5.2,6.1,7.1c3.9,2.8,6.7,6.3,8.2,10.7c1.3,3.9,4,6.9,7.9,8.9c1.2,0.6,2.2,1.6,3,2.6c3.8,4.6,6.8,9.6,8.9,15.1
		c0.9,2.4,2.4,4.4,4.4,6.1c5.8,4.8,8.8,10.7,9.1,18c0.1,3.4,1,6.6,2.5,9.7c1.6,3.2,2.4,6.6,2.5,10.2c0.2,5.9,0.3,11.7,0.2,17.6
		c0,1.6-0.7,3.2-1.1,4.8c-0.6,2.5-1.2,5.1-1.9,7.6c-0.4,1.4-0.8,3-1.6,4.1c-2.7,3.8-5.5,7.6-8.6,11.1c-6,6.8-14,10.6-22.9,12.9
		c-5.7,1.5-11.5,2.8-17.2,4c-4.5,1-8.8,0.2-13.1-1c-1.9-0.5-3.9-1.1-5.9-1.4c-6.2-1-11.4-3.9-16-7.8c-2-1.7-4-3.4-6.1-5
		c-1.8-1.3-2.4-1.2-4.2,0.1c-8.4,6.1-17.4,11.4-27.3,14.9c-8,2.8-16.6,3.5-24.6,0.4c-6.2-2.4-12.4-5.6-17.6-9.5
		c-6.9-5.2-11.7-12.2-14.1-20.4c-1-3.4-2.3-6.5-4.3-9.4c-2.3-3.3-3.2-6.8-3.1-10.7c0.1-3.8,0.1-7.5-1.4-11.2
		c-0.6-1.5-0.4-3.7,0.3-5.2c2.9-6,3.9-12.3,4.7-18.7c0.6-4.6,2.1-8.6,5.3-12.2c4.2-4.5,6.3-10,8.1-15.5c1.4-4.3,3.8-7.8,7-11.2
		c3.8-4,7.2-8.4,10.5-12.9c2.1-2.9,4.5-5.4,7.6-7.4c2.9-1.9,5.4-4.1,7.3-7c1.8-2.8,4.5-4.8,7.6-6.2c3.9-1.7,7.3-3.9,10.2-6.9
		c1.3-1.3,3-2.3,4.6-3.1c3.7-1.9,7.4-3.6,11.1-5.3c5.4-2.5,7.4-6.4,6.2-12c-0.9-4.2-1.8-8.5-2.7-12.7c-0.2-1.1-0.2-2.3-0.3-3.5
		C290.3,59.6,290.3,59.6,290.4,59.6z"/>
	<g>
		<g>
			<defs>
				<path id="SVGID_1_" d="M196.8,350.7h3.3c0.9,0,1.7,0.2,2.2,0.7c0.6,0.5,0.8,1.1,0.8,1.9c0,0.8-0.3,1.4-0.8,1.9
					c-0.5,0.4-1.3,0.7-2.2,0.7h-3.4V350.7z M196.8,344.4h3.2c0.9,0,1.6,0.2,2.1,0.6c0.5,0.4,0.7,1,0.7,1.7c0,0.7-0.2,1.3-0.7,1.7
					c-0.5,0.4-1.2,0.6-2.1,0.6h-3.2V344.4z M194.9,342.8v14.6h5.5c1,0,1.8-0.2,2.5-0.5c0.7-0.3,1.3-0.8,1.6-1.4
					c0.4-0.6,0.6-1.3,0.6-2c0-0.6-0.1-1.1-0.4-1.7c-0.3-0.5-0.6-1-1-1.3c-0.4-0.3-0.9-0.6-1.5-0.7c0.8-0.3,1.4-0.7,1.9-1.2
					c0.5-0.6,0.7-1.3,0.7-2.2c0-0.7-0.2-1.3-0.5-1.9c-0.3-0.6-0.9-1-1.6-1.3c-0.7-0.3-1.5-0.5-2.5-0.5H194.9z"/>
			</defs>
			<use xlink:href="#SVGID_1_"  style="overflow:visible;fill:#A81E1C;"/>
			<clipPath id="SVGID_2_">
				<use xlink:href="#SVGID_1_"  style="overflow:visible;"/>
			</clipPath>
			<rect x="194.9" y="342.8" class="st1" width="10.2" height="14.6"/>
		</g>
		<g>
			<defs>
				<path id="SVGID_3_" d="M214.6,355.2c-0.8-0.5-1.5-1.2-1.9-2c-0.5-0.9-0.7-1.9-0.7-3.1c0-1.2,0.2-2.2,0.7-3.1
					c0.5-0.9,1.1-1.5,1.9-2c0.8-0.5,1.7-0.7,2.8-0.7c1,0,2,0.2,2.8,0.7c0.8,0.5,1.4,1.1,1.9,2c0.5,0.9,0.7,1.9,0.7,3.1
					c0,1.2-0.2,2.2-0.7,3.1c-0.5,0.9-1.1,1.6-1.9,2c-0.8,0.5-1.7,0.7-2.8,0.7C216.3,356,215.4,355.7,214.6,355.2 M213.6,343.6
					c-1.1,0.6-2,1.5-2.7,2.7c-0.6,1.1-1,2.4-1,3.9c0,1.4,0.3,2.7,1,3.9c0.7,1.1,1.5,2,2.7,2.7c1.1,0.6,2.4,1,3.7,1
					c1.4,0,2.6-0.3,3.7-1c1.1-0.6,2-1.5,2.6-2.7c0.6-1.1,1-2.4,1-3.9c0-1.4-0.3-2.7-1-3.9c-0.6-1.1-1.5-2-2.6-2.7
					c-1.1-0.6-2.4-1-3.7-1C216,342.7,214.8,343,213.6,343.6"/>
			</defs>
			<use xlink:href="#SVGID_3_"  style="overflow:visible;fill:#A81E1C;"/>
			<clipPath id="SVGID_4_">
				<use xlink:href="#SVGID_3_"  style="overflow:visible;"/>
			</clipPath>
			<rect x="210" y="342.7" class="st2" width="14.7" height="14.9"/>
		</g>
		<g>
			<defs>
				<path id="SVGID_5_" d="M239.2,342.8v9.3c0,1.3-0.3,2.3-1,2.9c-0.6,0.6-1.5,0.9-2.6,0.9c-1.1,0-2-0.3-2.7-0.9
					c-0.6-0.6-1-1.6-1-2.9v-9.3h-1.9v9.2c0,1.2,0.2,2.2,0.7,3.1c0.5,0.8,1.1,1.5,2,1.9c0.8,0.4,1.8,0.6,2.8,0.6c1,0,2-0.2,2.8-0.6
					c0.8-0.4,1.5-1,2-1.9c0.5-0.8,0.7-1.9,0.7-3.1v-9.2H239.2z"/>
			</defs>
			<use xlink:href="#SVGID_5_"  style="overflow:visible;fill:#A81E1C;"/>
			<clipPath id="SVGID_6_">
				<use xlink:href="#SVGID_5_"  style="overflow:visible;"/>
			</clipPath>
			<rect x="230.1" y="342.8" class="st3" width="11" height="14.8"/>
		</g>
		<g>
			<defs>
				<polygon id="SVGID_7_" points="246.3,342.8 246.3,344.4 250.4,344.4 250.4,357.5 252.3,357.5 252.3,344.4 256.3,344.4 
					256.3,342.8 				"/>
			</defs>
			<use xlink:href="#SVGID_7_"  style="overflow:visible;fill:#A81E1C;"/>
			<clipPath id="SVGID_8_">
				<use xlink:href="#SVGID_7_"  style="overflow:visible;"/>
			</clipPath>
			<rect x="246.3" y="342.8" class="st4" width="9.9" height="14.6"/>
		</g>
		<g>
			<defs>
				<rect id="SVGID_9_" x="261.5" y="342.8" width="1.9" height="14.6"/>
			</defs>
			<use xlink:href="#SVGID_9_"  style="overflow:visible;fill:#A81E1C;"/>
			<clipPath id="SVGID_10_">
				<use xlink:href="#SVGID_9_"  style="overflow:visible;"/>
			</clipPath>
			<rect x="261.5" y="342.8" class="st5" width="1.9" height="14.6"/>
		</g>
		<g>
			<defs>
				<path id="SVGID_11_" d="M273.5,355.2c-0.8-0.5-1.5-1.2-1.9-2c-0.5-0.9-0.7-1.9-0.7-3.1c0-1.2,0.2-2.2,0.7-3.1
					c0.5-0.9,1.1-1.5,1.9-2c0.8-0.5,1.7-0.7,2.8-0.7c1,0,2,0.2,2.8,0.7c0.8,0.5,1.5,1.1,1.9,2c0.5,0.9,0.7,1.9,0.7,3.1
					c0,1.2-0.2,2.2-0.7,3.1c-0.5,0.9-1.1,1.6-1.9,2c-0.8,0.5-1.7,0.7-2.8,0.7C275.2,356,274.3,355.7,273.5,355.2 M272.6,343.6
					c-1.1,0.6-2,1.5-2.7,2.7c-0.7,1.1-1,2.4-1,3.9c0,1.4,0.3,2.7,1,3.9c0.7,1.1,1.5,2,2.7,2.7c1.1,0.6,2.4,1,3.7,1
					c0.7,0,1.5-0.1,2.2-0.3l2.9,2.9h2.5l-3.7-3.7c1.1-0.6,1.9-1.5,2.5-2.6c0.6-1.1,0.9-2.4,0.9-3.8c0-1.4-0.3-2.7-1-3.9
					c-0.6-1.1-1.5-2-2.6-2.7c-1.1-0.6-2.4-1-3.7-1C274.9,342.7,273.7,343,272.6,343.6"/>
			</defs>
			<use xlink:href="#SVGID_11_"  style="overflow:visible;fill:#A81E1C;"/>
			<clipPath id="SVGID_12_">
				<use xlink:href="#SVGID_11_"  style="overflow:visible;"/>
			</clipPath>
			<rect x="268.9" y="342.7" class="st6" width="14.9" height="17.6"/>
		</g>
		<g>
			<defs>
				<path id="SVGID_13_" d="M298.2,342.8v9.3c0,1.3-0.3,2.3-1,2.9c-0.6,0.6-1.5,0.9-2.6,0.9c-1.1,0-2-0.3-2.7-0.9
					c-0.6-0.6-1-1.6-1-2.9v-9.3h-1.9v9.2c0,1.2,0.2,2.2,0.7,3.1c0.5,0.8,1.1,1.5,2,1.9c0.8,0.4,1.8,0.6,2.8,0.6c1,0,2-0.2,2.8-0.6
					c0.8-0.4,1.5-1,2-1.9c0.5-0.8,0.7-1.9,0.7-3.1v-9.2H298.2z"/>
			</defs>
			<use xlink:href="#SVGID_13_"  style="overflow:visible;fill:#A81E1C;"/>
			<clipPath id="SVGID_14_">
				<use xlink:href="#SVGID_13_"  style="overflow:visible;"/>
			</clipPath>
			<rect x="289.1" y="342.8" class="st7" width="11" height="14.8"/>
		</g>
		<g>
			<defs>
				<polygon id="SVGID_15_" points="306.2,342.8 306.2,357.5 314.1,357.5 314.1,355.9 308.1,355.9 308.1,350.9 313.4,350.9 
					313.4,349.3 308.1,349.3 308.1,344.4 314.1,344.4 314.1,342.8 				"/>
			</defs>
			<use xlink:href="#SVGID_15_"  style="overflow:visible;fill:#A81E1C;"/>
			<clipPath id="SVGID_16_">
				<use xlink:href="#SVGID_15_"  style="overflow:visible;"/>
			</clipPath>
			<rect x="306.2" y="342.8" class="st8" width="7.9" height="14.6"/>
		</g>
		<g>
			<defs>
				<polygon id="SVGID_17_" points="337.8,342.8 337.8,349.3 330.4,349.3 330.4,342.8 328.5,342.8 328.5,357.5 330.4,357.5 
					330.4,350.8 337.8,350.8 337.8,357.5 339.7,357.5 339.7,342.8 				"/>
			</defs>
			<use xlink:href="#SVGID_17_"  style="overflow:visible;fill:#A81E1C;"/>
			<clipPath id="SVGID_18_">
				<use xlink:href="#SVGID_17_"  style="overflow:visible;"/>
			</clipPath>
			<rect x="328.5" y="342.8" class="st9" width="11.3" height="14.6"/>
		</g>
		<g>
			<defs>
				<path id="SVGID_19_" d="M349.8,355.2c-0.8-0.5-1.5-1.2-1.9-2c-0.5-0.9-0.7-1.9-0.7-3.1c0-1.2,0.2-2.2,0.7-3.1
					c0.5-0.9,1.1-1.5,1.9-2c0.8-0.5,1.7-0.7,2.8-0.7c1,0,2,0.2,2.8,0.7c0.8,0.5,1.5,1.1,1.9,2c0.5,0.9,0.7,1.9,0.7,3.1
					c0,1.2-0.2,2.2-0.7,3.1c-0.5,0.9-1.1,1.6-1.9,2s-1.7,0.7-2.8,0.7C351.5,356,350.6,355.7,349.8,355.2 M348.8,343.6
					c-1.1,0.6-2,1.5-2.7,2.7c-0.6,1.1-1,2.4-1,3.9c0,1.4,0.3,2.7,1,3.9c0.7,1.1,1.5,2,2.7,2.7c1.1,0.6,2.4,1,3.7,1
					c1.4,0,2.6-0.3,3.7-1s2-1.5,2.6-2.7c0.6-1.1,1-2.4,1-3.9c0-1.4-0.3-2.7-1-3.9c-0.6-1.1-1.5-2-2.6-2.7c-1.1-0.6-2.4-1-3.7-1
					C351.2,342.7,349.9,343,348.8,343.6"/>
			</defs>
			<use xlink:href="#SVGID_19_"  style="overflow:visible;fill:#A81E1C;"/>
			<clipPath id="SVGID_20_">
				<use xlink:href="#SVGID_19_"  style="overflow:visible;"/>
			</clipPath>
			<rect x="345.2" y="342.7" class="st10" width="14.7" height="14.9"/>
		</g>
		<g>
			<defs>
				<polygon id="SVGID_21_" points="364.4,342.8 364.4,344.4 368.4,344.4 368.4,357.5 370.4,357.5 370.4,344.4 374.3,344.4 
					374.3,342.8 				"/>
			</defs>
			<use xlink:href="#SVGID_21_"  style="overflow:visible;fill:#A81E1C;"/>
			<clipPath id="SVGID_22_">
				<use xlink:href="#SVGID_21_"  style="overflow:visible;"/>
			</clipPath>
			<rect x="364.4" y="342.8" class="st11" width="9.9" height="14.6"/>
		</g>
		<g>
			<defs>
				<polygon id="SVGID_23_" points="379.6,342.8 379.6,357.5 387.5,357.5 387.5,355.9 381.5,355.9 381.5,350.9 386.9,350.9 
					386.9,349.3 381.5,349.3 381.5,344.4 387.5,344.4 387.5,342.8 				"/>
			</defs>
			<use xlink:href="#SVGID_23_"  style="overflow:visible;fill:#A81E1C;"/>
			<clipPath id="SVGID_24_">
				<use xlink:href="#SVGID_23_"  style="overflow:visible;"/>
			</clipPath>
			<rect x="379.6" y="342.8" class="st12" width="7.9" height="14.6"/>
		</g>
		<g>
			<defs>
				<polygon id="SVGID_25_" points="393.3,342.8 393.3,357.5 400.4,357.5 400.4,355.9 395.2,355.9 395.2,342.8 				"/>
			</defs>
			<use xlink:href="#SVGID_25_"  style="overflow:visible;fill:#A81E1C;"/>
			<clipPath id="SVGID_26_">
				<use xlink:href="#SVGID_25_"  style="overflow:visible;"/>
			</clipPath>
			<rect x="393.3" y="342.8" class="st13" width="7" height="14.6"/>
		</g>
	</g>
	<g>
		<linearGradient id="SVGID_27_" gradientUnits="userSpaceOnUse" x1="212.7872" y1="353.3774" x2="212.7872" y2="268.8396">
			<stop  offset="0" style="stop-color:#BC8616"/>
			<stop  offset="0.4944" style="stop-color:#F7BD00"/>
			<stop  offset="1" style="stop-color:#BC8616"/>
		</linearGradient>
		<path class="st14" d="M229.6,291.7c-6.9,0-13.7,0-20.4,0c-1.7,0-3.4-0.1-5.1,0.1c-2.1,0.3-3.9,1.3-3.8,3.9
			c0.1,2.5,1.8,3.4,4.1,3.5c4.9,0.2,9.9,0.3,14.8,0.5c5.2,0.2,10,4.3,11.3,9.7c1.5,6.1-0.7,11.8-5.6,14.3c-1.4,0.7-3,1.2-4.6,1.2
			c-6.8,0.1-13.5,0-20.3,0.1c-1.8,0-2.7-0.5-3.1-2.4c-0.7-2.8-1.6-5.5-2.3-7.7c3.3,0.4,6.5,1,9.8,1.1c5.6,0.2,11.3,0,16.9,0
			c2.2,0,4.3-0.3,4.4-3c0.1-2.7-2.1-3.6-4.3-3.7c-4.2-0.2-8.5-0.1-12.7-0.1c-7,0-12.4-4.8-13.4-11.9c-0.9-6.3,2.6-12.7,8.4-15.4
			c0.9-0.4,1.9-0.5,2.9-0.5c3-0.1,6-0.1,9.1,0c4.1,0.1,8.3,0.2,11.8-3.5C228.2,282.8,228.9,287.1,229.6,291.7z"/>
		<linearGradient id="SVGID_28_" gradientUnits="userSpaceOnUse" x1="253.0521" y1="353.3774" x2="253.0521" y2="268.8396">
			<stop  offset="0" style="stop-color:#BC8616"/>
			<stop  offset="0.4944" style="stop-color:#F7BD00"/>
			<stop  offset="1" style="stop-color:#BC8616"/>
		</linearGradient>
		<path class="st15" d="M235,290.5c0.6-3.4,1.1-6.4,1.6-9.4c10.7-1.9,21.9,2.3,32.4-3.2c0.6,3.9,1.3,8,2.1,12.5
			c-5.2,0-10.2,0-15.8,0c0,1.5,0,2.6,0,3.8c0,13.4,0,26.8,0,40.2c0,0.7,0.1,1.4,0,2.1c-0.2,0.7-0.6,1.3-0.9,1.9
			c-0.4-0.6-1-1.2-1-1.8c-0.2-2.7-0.2-5.4-0.3-8.2c-0.1-2.3-0.3-4.6-0.7-6.9c-0.2-1.3-0.5-2.8-1.4-3.6c-3.2-3-2.8-6.8-2.8-10.6
			c0.1-4.5-0.1-9.1,0.1-13.6c0.1-2.4-0.5-3.5-3.1-3.3C241.9,290.7,238.6,290.5,235,290.5z"/>
		<linearGradient id="SVGID_29_" gradientUnits="userSpaceOnUse" x1="341.1538" y1="353.3774" x2="341.1538" y2="268.8396">
			<stop  offset="0" style="stop-color:#BC8616"/>
			<stop  offset="0.4944" style="stop-color:#F7BD00"/>
			<stop  offset="1" style="stop-color:#BC8616"/>
		</linearGradient>
		<path class="st16" d="M339.5,306.9c0.5-2.9,0.9-5.3,1.3-7.7c3-0.3,5.8-0.4,8.5-0.9c2.5-0.5,4.7-1.7,4.6-4.7c0-2.9-2.1-4.2-4.5-4.5
			c-5.1-0.5-10.2-0.7-15.8-1c0,5.4,0.1,10.3,0,15.2c-0.1,1.9-0.3,3.8-1,5.6c-2.7,6.8-2.9,14-3.1,21.1c-0.1,2,0,4,0,6.2
			c-1.2,0.1-2,0.1-3.2,0.2c0-1.2,0-2.2,0-3.2c0-13.9,0-27.8,0-41.7c0-1.8,0.3-3.8-2.9-3c0.4-3.3,0.6-6.2,1.1-9.1
			c0.1-0.6,1.2-1.5,1.8-1.4c7.5,0.4,15,0.7,22.4,1.7c5.5,0.7,8.6,4.5,9.4,10c0.3,1.7,0.5,3.4,0.4,5.1c-0.3,8.2-4,11.9-12.2,12.1
			C344.3,306.9,342.1,306.9,339.5,306.9z"/>
		<linearGradient id="SVGID_30_" gradientUnits="userSpaceOnUse" x1="380.0469" y1="353.3774" x2="380.0469" y2="268.8396">
			<stop  offset="0" style="stop-color:#BC8616"/>
			<stop  offset="0.4944" style="stop-color:#F7BD00"/>
			<stop  offset="1" style="stop-color:#BC8616"/>
		</linearGradient>
		<path class="st17" d="M370.1,288.2c-0.2-1-0.8-2.1-0.6-3.1c1.1-7.1,1.1-7.1,8.2-7.1c4.5,0,9,0,13.9,0c-0.1,1.3,0,2.4-0.3,3.4
			c-1.4,4.4-0.5,8.4,1.2,12.5c2.9,7.3,5.5,14.7,8,22.2c0.4,1.2,0,2.8-0.3,4.1c-1,4.8-2.1,9.6-3.3,14.3c-0.2,0.9-0.9,1.7-1.3,2.5
			c-0.3-0.8-1-1.7-0.9-2.5c1.5-16.4-5.5-30.7-11.3-45.2c-0.3-0.8-1.8-1.6-2.7-1.6c-0.9,0-2.2,0.8-2.6,1.6c-1.6,3.7-2.8,7.5-4.4,11.7
			c4.3,0,8.2,0,12.4,0c-0.5,2.9-1,5.5-1.6,8.5c-3.7,0-7.4,0.1-11,0c-1.9-0.1-2.9,0.6-3.6,2.4c-1.2,3.2-2.6,6.3-4,9.5
			c-2.1,0-4.1,0-6.4,0c3.9-11.1,7.8-22,11.7-32.9C370.8,288.4,370.4,288.3,370.1,288.2z"/>
		<linearGradient id="SVGID_31_" gradientUnits="userSpaceOnUse" x1="297.4125" y1="353.3774" x2="297.4125" y2="268.8396">
			<stop  offset="0" style="stop-color:#BC8616"/>
			<stop  offset="0.4944" style="stop-color:#F7BD00"/>
			<stop  offset="1" style="stop-color:#BC8616"/>
		</linearGradient>
		<path class="st18" d="M317.9,278l-11.6,0l-2.1,11.1l3.3-0.5c0.5,4.1,2,8.2,2.1,12.3c0.3,8.3-3.4,11.9-10.8,11.7
			c-7.1-0.2-10.5-3.7-10.4-11.5c0.1-4.4,0.3-8.8,0.5-13.2l0.1,0l1.5-9.4l-1.1,0l0,0c-3,0-5.9,0-9.6,0c0,0,0,0,0,0l-0.9,0l-2.1,11.1
			l3.7-0.5c0.4,6.4,0.9,12.7,1.3,18.9c0.8,10.1,6.3,15,17.1,14.9c10.5,0,16.7-5.1,17.2-14.9c0.3-6.8,0.2-13.7,0.2-20.7l0.1,0
			L317.9,278z"/>
	</g>
	<path class="st0" d="M302.3,272.9l-2.1-1.5c0,0,2.5-4-1.3-13.8c-4.2-11-0.2-27.7,0-28.4l2.5,0.6c0,0.2-4,16.6,0,26.9
		C305.7,268,302.4,272.7,302.3,272.9z"/>
	<g>
		<linearGradient id="SVGID_32_" gradientUnits="userSpaceOnUse" x1="268.4723" y1="185.9221" x2="326.7983" y2="185.9221">
			<stop  offset="0" style="stop-color:#BC8616"/>
			<stop  offset="0.4944" style="stop-color:#F7BD00"/>
			<stop  offset="1" style="stop-color:#BC8616"/>
		</linearGradient>
		<path class="st19" d="M297.6,121.7c0.9,2.6,1.8,5.4,2.9,8.1c2.9,7,7.5,13.2,11.9,19.6c4.3,6.1,8.5,12.2,11.4,18.9
			c4.5,10.6,3.9,21-1.5,31.1c-3.7,7-8.2,13.7-12.5,20.5c-4.8,7.7-9,15.5-10.3,24.2c-0.3,2-0.4,3.9-0.9,6c-0.7-1.8-1.4-3.6-2-5.4
			c-2.5-8.3-1.7-16.4,2.3-24.1c3.1-6,7-11.7,10.5-17.6c2.8-4.7,5.3-9.5,6.5-14.7c1.5-6.6,0.5-12.9-2.5-19c-3-6.3-7.1-12-11.2-17.7
			c-1.5-2.1-3-4.2-4.6-6.5c-1,1.4-1.9,2.8-2.9,4.1c-4,5.3-8.2,10.6-12,16c-4.9,6.9-8.1,14.2-7.6,22.3c0.3,5.3,2.1,10.3,4.1,15.3
			c2.1,5.2,4.2,10.5,6.3,15.8c0.1,0.2,0.1,0.5,0.3,1.1c-2.4-3.9-4.7-7.5-7-11.1c-3.1-4.9-6.1-9.9-8.1-15.2c-3.5-9.1-2.6-18,1.6-26.8
			c3-6.4,7.2-12.3,11.3-18.2c4.2-6,8.5-12,11.2-18.7C295.8,127,296.7,124.3,297.6,121.7z"/>
		<linearGradient id="SVGID_33_" gradientUnits="userSpaceOnUse" x1="312.5552" y1="208.9794" x2="380.0469" y2="208.9794">
			<stop  offset="0" style="stop-color:#BC8616"/>
			<stop  offset="0.4944" style="stop-color:#F7BD00"/>
			<stop  offset="1" style="stop-color:#BC8616"/>
		</linearGradient>
		<path class="st20" d="M376.8,177.9c2.5,5.9,3.8,11.9,3.1,18.2c-0.6,5.7-2.6,11.1-6.3,15.9c-6.3,8.4-15.2,14-26.9,15.8
			c-3.5,0.5-7.2,0.1-10.8,0c17-1.1,25.8-10,31.6-22.4c-0.5,0.1-0.6,0.1-0.7,0.2c-5.5,5.5-12.9,9-20.3,12.5
			c-6.6,3.1-13.2,6.1-19.4,9.6c-5.6,3-10.1,7-13.7,11.7c-0.2,0.2-0.4,0.4-0.7,0.5c1.3-3.1,3.2-6,5.5-8.7
			c5.9-6.9,13.5-12.3,21.5-17.4c7-4.5,14.1-8.8,20.8-13.6C369,194.2,374.2,187.5,376.8,177.9z"/>
		<linearGradient id="SVGID_34_" gradientUnits="userSpaceOnUse" x1="215.1599" y1="208.922" x2="282.4847" y2="208.922">
			<stop  offset="0" style="stop-color:#BC8616"/>
			<stop  offset="0.4944" style="stop-color:#F7BD00"/>
			<stop  offset="1" style="stop-color:#BC8616"/>
		</linearGradient>
		<path class="st21" d="M259.3,227.9c-6.8,1-13.5,0.3-19.7-2.3c-14.4-5.9-22.2-15.7-24.2-28.9c-0.9-5.8,1-15,3.1-18.9
			c0.6,1.9,1.1,3.7,1.8,5.4c2.8,6.8,7.8,12.5,14.3,17.1c6.8,4.8,14,9.2,21,13.7c7.5,4.8,14.7,9.8,20.4,16.1c2.8,3,5.1,6.3,6.5,10
			c-0.3-0.4-0.6-0.7-0.9-1.1c-0.3-0.4-0.6-0.8-0.9-1.1c-5.5-6.3-12.7-10.8-20.7-14.6c-7-3.3-14.2-6.4-21-10c-4-2.1-7.4-5-10.8-7.3
			c0.1,2.7,6.1,11,11.3,15C245,225.2,251.6,227.7,259.3,227.9z"/>
		<linearGradient id="SVGID_35_" gradientUnits="userSpaceOnUse" x1="249.8206" y1="196.4231" x2="289.3218" y2="196.4231">
			<stop  offset="0" style="stop-color:#BC8616"/>
			<stop  offset="0.4944" style="stop-color:#F7BD00"/>
			<stop  offset="1" style="stop-color:#BC8616"/>
		</linearGradient>
		<path class="st22" d="M271.6,153c-3.4,4.4-6.3,8.9-8.2,13.8c-2.7,6.9-3.3,13.9-2,21c1.8,9.2,7.1,17.1,12.6,25.1
			c4.1,5.9,8.1,11.9,11.8,18c1.6,2.7,2.4,5.8,3.6,8.8c-0.2,0-0.3,0.1-0.5,0.1c-0.9-1.6-1.7-3.2-2.7-4.7c-3.7-6-9.2-10.8-14.5-15.8
			c-4.8-4.5-9.8-9-14-13.9c-6.4-7.5-9-16.1-7.3-25.3c1.8-9.8,8-17.5,16.7-24c1.3-1,2.7-1.9,4.1-2.8
			C271.2,153.2,271.4,153.1,271.6,153z"/>
		<linearGradient id="SVGID_36_" gradientUnits="userSpaceOnUse" x1="305.8306" y1="196.6179" x2="345.3554" y2="196.6179">
			<stop  offset="0" style="stop-color:#BC8616"/>
			<stop  offset="0.4944" style="stop-color:#F7BD00"/>
			<stop  offset="1" style="stop-color:#BC8616"/>
		</linearGradient>
		<path class="st23" d="M323.5,153.2c11.1,6.8,19.2,15.3,21.4,26.9c1.6,8.4-0.7,16.3-5.9,23.6c-3.7,5.2-8.6,9.5-13.4,13.9
			c-4.5,4.1-8.9,8.2-12.9,12.6c-2.6,2.9-4.4,6.3-6.8,9.8c1-2.8,1.8-5.3,2.8-7.7c2.7-6,6.6-11.4,10.6-16.8c4.4-6.1,9-12.2,11.9-19
			c3.1-7.3,4.3-14.8,2.9-22.5c-1.4-7.5-5-14.2-10.1-20.4C323.7,153.5,323.6,153.4,323.5,153.2z"/>
		<linearGradient id="SVGID_37_" gradientUnits="userSpaceOnUse" x1="330.9697" y1="238.0102" x2="373.9919" y2="238.0102">
			<stop  offset="0" style="stop-color:#BC8616"/>
			<stop  offset="0.4944" style="stop-color:#F7BD00"/>
			<stop  offset="1" style="stop-color:#BC8616"/>
		</linearGradient>
		<path class="st24" d="M331,233.7c12-4.4,34-1.1,43,10.5c-4.2-2.2-8.2-1-12.2-0.6c-4.8,0.4-8.9-0.7-12.6-3.2c-2-1.4-4.1-2.7-6.3-4
			C339.4,234.2,335.4,233.3,331,233.7z"/>
		<linearGradient id="SVGID_38_" gradientUnits="userSpaceOnUse" x1="221.5515" y1="237.9289" x2="264.1768" y2="237.9289">
			<stop  offset="0" style="stop-color:#BC8616"/>
			<stop  offset="0.4944" style="stop-color:#F7BD00"/>
			<stop  offset="1" style="stop-color:#BC8616"/>
		</linearGradient>
		<path class="st25" d="M264.2,233.7c-7.1-0.9-12,2.5-17,5.7c-2.2,1.4-4.6,2.6-7.1,3.6c-2.9,1.1-6.2,0.7-9.3,0.3
			c-3.1-0.4-6.2-0.7-9.2,0.7C228.3,233.9,250.1,228.8,264.2,233.7z"/>
	</g>
	<g>
		
			<linearGradient id="SVGID_39_" gradientUnits="userSpaceOnUse" x1="1236.7814" y1="-413.8152" x2="1261.0089" y2="-396.1261" gradientTransform="matrix(0 -1 1 0 707.0247 1349.8459)">
			<stop  offset="0" style="stop-color:#BC8616"/>
			<stop  offset="0.5394" style="stop-color:#F7BD00"/>
		</linearGradient>
		<circle class="st26" cx="297.6" cy="107" r="9.3"/>
		<path class="st0" d="M297.6,114c-3.8,0-7-3.1-7-7s3.1-7,7-7s7,3.1,7,7S301.5,114,297.6,114z M297.6,100.8c-3.4,0-6.2,2.8-6.2,6.2
			s2.8,6.2,6.2,6.2s6.2-2.8,6.2-6.2S301,100.8,297.6,100.8z"/>
		<path class="st0" d="M297.6,112c-2.8,0-5-2.3-5-5c0-2.8,2.3-5,5-5c2.8,0,5,2.3,5,5C302.7,109.8,300.4,112,297.6,112z M297.6,102.8
			c-2.3,0-4.2,1.9-4.2,4.2c0,2.3,1.9,4.2,4.2,4.2c2.3,0,4.2-1.9,4.2-4.2C301.9,104.7,300,102.8,297.6,102.8z"/>
		<path class="st0" d="M297.6,110.3c-1.8,0-3.3-1.5-3.3-3.3c0-1.8,1.5-3.3,3.3-3.3s3.3,1.5,3.3,3.3
			C300.9,108.8,299.4,110.3,297.6,110.3z M297.6,104.5c-1.4,0-2.5,1.1-2.5,2.5c0,1.4,1.1,2.5,2.5,2.5s2.5-1.1,2.5-2.5
			C300.1,105.6,299,104.5,297.6,104.5z"/>
	</g>
</g>
<g>
	<path class="st0" d="M290.4,447.6c2.2,5.2,4.3,10.4,6.5,15.6c0.9,2.1,1.8,4.3,2.9,6.4c1.5,2.7,3.8,4.8,6.7,6.1
		c3.8,1.8,7.8,3.3,11.6,5.2c1.8,0.9,3.6,1.9,4.9,3.3c1.7,1.8,3.6,3.1,5.8,4.1c2.2,1.1,4.4,2.3,6.5,3.6c2.4,1.5,4.3,3.6,5.4,6.1
		c1.3,2.9,3.5,5.2,6.1,7.1c3.9,2.8,6.7,6.3,8.2,10.7c1.3,3.9,4,6.9,7.9,8.9c1.2,0.6,2.2,1.6,3,2.6c3.8,4.6,6.8,9.6,8.9,15.1
		c0.9,2.4,2.4,4.4,4.4,6.1c5.8,4.8,8.8,10.7,9.1,18c0.1,3.4,1,6.6,2.5,9.7c1.6,3.2,2.4,6.6,2.5,10.2c0.2,5.9,0.3,11.7,0.2,17.6
		c0,1.6-0.7,3.2-1.1,4.8c-0.6,2.5-1.2,5.1-1.9,7.6c-0.4,1.4-0.8,3-1.6,4.1c-2.7,3.8-5.5,7.6-8.6,11.1c-6,6.8-14,10.6-22.9,12.9
		c-5.7,1.5-11.5,2.8-17.2,4c-4.5,1-8.8,0.2-13.1-1c-1.9-0.5-3.9-1.1-5.9-1.4c-6.2-1-11.4-3.9-16-7.8c-2-1.7-4-3.4-6.1-5
		c-1.8-1.3-2.4-1.2-4.2,0.1c-8.4,6.1-17.4,11.4-27.3,14.9c-8,2.8-16.6,3.5-24.6,0.4c-6.2-2.4-12.4-5.6-17.6-9.5
		c-6.9-5.2-11.7-12.2-14.1-20.4c-1-3.4-2.3-6.5-4.3-9.4c-2.3-3.3-3.2-6.8-3.1-10.7c0.1-3.8,0.1-7.5-1.4-11.2
		c-0.6-1.5-0.4-3.7,0.3-5.2c2.9-6,3.9-12.3,4.7-18.7c0.6-4.6,2.1-8.6,5.3-12.2c4.2-4.5,6.3-10,8.1-15.5c1.4-4.3,3.8-7.8,7-11.2
		c3.8-4,7.2-8.4,10.5-12.9c2.1-2.9,4.5-5.4,7.6-7.4c2.9-1.9,5.4-4.1,7.3-7c1.8-2.8,4.5-4.8,7.6-6.2c3.9-1.7,7.3-3.9,10.2-6.9
		c1.3-1.3,3-2.3,4.6-3.1c3.7-1.9,7.4-3.6,11.1-5.3c5.4-2.5,7.4-6.4,6.2-12c-0.9-4.2-1.8-8.5-2.7-12.7c-0.2-1.1-0.2-2.3-0.3-3.5
		C290.3,447.6,290.3,447.6,290.4,447.6z"/>
	<g>
		<g>
			<defs>
				<path id="SVGID_40_" d="M196.8,738.7h3.3c0.9,0,1.7,0.2,2.2,0.7c0.6,0.5,0.8,1.1,0.8,1.9c0,0.8-0.3,1.4-0.8,1.9
					c-0.5,0.4-1.3,0.7-2.2,0.7h-3.4V738.7z M196.8,732.4h3.2c0.9,0,1.6,0.2,2.1,0.6c0.5,0.4,0.7,1,0.7,1.7c0,0.7-0.2,1.3-0.7,1.7
					c-0.5,0.4-1.2,0.6-2.1,0.6h-3.2V732.4z M194.9,730.8v14.6h5.5c1,0,1.8-0.2,2.5-0.5c0.7-0.3,1.3-0.8,1.6-1.4
					c0.4-0.6,0.6-1.3,0.6-2c0-0.6-0.1-1.1-0.4-1.7c-0.3-0.5-0.6-1-1-1.3c-0.4-0.3-0.9-0.6-1.5-0.7c0.8-0.3,1.4-0.7,1.9-1.2
					c0.5-0.6,0.7-1.3,0.7-2.2c0-0.7-0.2-1.3-0.5-1.9c-0.3-0.6-0.9-1-1.6-1.3c-0.7-0.3-1.5-0.5-2.5-0.5H194.9z"/>
			</defs>
			<use xlink:href="#SVGID_40_"  style="overflow:visible;fill:#A81E1C;"/>
			<clipPath id="SVGID_41_">
				<use xlink:href="#SVGID_40_"  style="overflow:visible;"/>
			</clipPath>
			<rect x="194.9" y="730.8" class="st27" width="10.2" height="14.6"/>
		</g>
		<g>
			<defs>
				<path id="SVGID_42_" d="M214.6,743.2c-0.8-0.5-1.5-1.2-1.9-2c-0.5-0.9-0.7-1.9-0.7-3.1c0-1.2,0.2-2.2,0.7-3.1
					c0.5-0.9,1.1-1.5,1.9-2c0.8-0.5,1.7-0.7,2.8-0.7c1,0,2,0.2,2.8,0.7c0.8,0.5,1.4,1.1,1.9,2c0.5,0.9,0.7,1.9,0.7,3.1
					c0,1.2-0.2,2.2-0.7,3.1c-0.5,0.9-1.1,1.6-1.9,2c-0.8,0.5-1.7,0.7-2.8,0.7C216.3,743.9,215.4,743.7,214.6,743.2 M213.6,731.6
					c-1.1,0.6-2,1.5-2.7,2.7c-0.6,1.1-1,2.4-1,3.9c0,1.4,0.3,2.7,1,3.9c0.7,1.1,1.5,2,2.7,2.7c1.1,0.6,2.4,1,3.7,1
					c1.4,0,2.6-0.3,3.7-1c1.1-0.6,2-1.5,2.6-2.7c0.6-1.1,1-2.4,1-3.9c0-1.4-0.3-2.7-1-3.9c-0.6-1.1-1.5-2-2.6-2.7
					c-1.1-0.6-2.4-1-3.7-1C216,730.7,214.8,731,213.6,731.6"/>
			</defs>
			<use xlink:href="#SVGID_42_"  style="overflow:visible;fill:#A81E1C;"/>
			<clipPath id="SVGID_43_">
				<use xlink:href="#SVGID_42_"  style="overflow:visible;"/>
			</clipPath>
			<rect x="210" y="730.7" class="st28" width="14.7" height="14.9"/>
		</g>
		<g>
			<defs>
				<path id="SVGID_44_" d="M239.2,730.8v9.3c0,1.3-0.3,2.3-1,2.9c-0.6,0.6-1.5,0.9-2.6,0.9c-1.1,0-2-0.3-2.7-0.9
					c-0.6-0.6-1-1.6-1-2.9v-9.3h-1.9v9.2c0,1.2,0.2,2.2,0.7,3.1c0.5,0.8,1.1,1.5,2,1.9c0.8,0.4,1.8,0.6,2.8,0.6c1,0,2-0.2,2.8-0.6
					c0.8-0.4,1.5-1,2-1.9c0.5-0.8,0.7-1.9,0.7-3.1v-9.2H239.2z"/>
			</defs>
			<use xlink:href="#SVGID_44_"  style="overflow:visible;fill:#A81E1C;"/>
			<clipPath id="SVGID_45_">
				<use xlink:href="#SVGID_44_"  style="overflow:visible;"/>
			</clipPath>
			<rect x="230.1" y="730.8" class="st29" width="11" height="14.8"/>
		</g>
		<g>
			<defs>
				<polygon id="SVGID_46_" points="246.3,730.8 246.3,732.4 250.4,732.4 250.4,745.4 252.3,745.4 252.3,732.4 256.3,732.4 
					256.3,730.8 				"/>
			</defs>
			<use xlink:href="#SVGID_46_"  style="overflow:visible;fill:#A81E1C;"/>
			<clipPath id="SVGID_47_">
				<use xlink:href="#SVGID_46_"  style="overflow:visible;"/>
			</clipPath>
			<rect x="246.3" y="730.8" class="st30" width="9.9" height="14.6"/>
		</g>
		<g>
			<defs>
				<rect id="SVGID_48_" x="261.5" y="730.8" width="1.9" height="14.6"/>
			</defs>
			<use xlink:href="#SVGID_48_"  style="overflow:visible;fill:#A81E1C;"/>
			<clipPath id="SVGID_49_">
				<use xlink:href="#SVGID_48_"  style="overflow:visible;"/>
			</clipPath>
			<rect x="261.5" y="730.8" class="st31" width="1.9" height="14.6"/>
		</g>
		<g>
			<defs>
				<path id="SVGID_50_" d="M273.5,743.2c-0.8-0.5-1.5-1.2-1.9-2c-0.5-0.9-0.7-1.9-0.7-3.1c0-1.2,0.2-2.2,0.7-3.1
					c0.5-0.9,1.1-1.5,1.9-2c0.8-0.5,1.7-0.7,2.8-0.7c1,0,2,0.2,2.8,0.7c0.8,0.5,1.5,1.1,1.9,2c0.5,0.9,0.7,1.9,0.7,3.1
					c0,1.2-0.2,2.2-0.7,3.1c-0.5,0.9-1.1,1.6-1.9,2c-0.8,0.5-1.7,0.7-2.8,0.7C275.2,743.9,274.3,743.7,273.5,743.2 M272.6,731.6
					c-1.1,0.6-2,1.5-2.7,2.7c-0.7,1.1-1,2.4-1,3.9c0,1.4,0.3,2.7,1,3.9c0.7,1.1,1.5,2,2.7,2.7c1.1,0.6,2.4,1,3.7,1
					c0.7,0,1.5-0.1,2.2-0.3l2.9,2.9h2.5l-3.7-3.7c1.1-0.6,1.9-1.5,2.5-2.6c0.6-1.1,0.9-2.4,0.9-3.8c0-1.4-0.3-2.7-1-3.9
					c-0.6-1.1-1.5-2-2.6-2.7c-1.1-0.6-2.4-1-3.7-1C274.9,730.7,273.7,731,272.6,731.6"/>
			</defs>
			<use xlink:href="#SVGID_50_"  style="overflow:visible;fill:#A81E1C;"/>
			<clipPath id="SVGID_51_">
				<use xlink:href="#SVGID_50_"  style="overflow:visible;"/>
			</clipPath>
			<rect x="268.9" y="730.7" class="st32" width="14.9" height="17.6"/>
		</g>
		<g>
			<defs>
				<path id="SVGID_52_" d="M298.2,730.8v9.3c0,1.3-0.3,2.3-1,2.9c-0.6,0.6-1.5,0.9-2.6,0.9c-1.1,0-2-0.3-2.7-0.9
					c-0.6-0.6-1-1.6-1-2.9v-9.3h-1.9v9.2c0,1.2,0.2,2.2,0.7,3.1c0.5,0.8,1.1,1.5,2,1.9c0.8,0.4,1.8,0.6,2.8,0.6c1,0,2-0.2,2.8-0.6
					c0.8-0.4,1.5-1,2-1.9c0.5-0.8,0.7-1.9,0.7-3.1v-9.2H298.2z"/>
			</defs>
			<use xlink:href="#SVGID_52_"  style="overflow:visible;fill:#A81E1C;"/>
			<clipPath id="SVGID_53_">
				<use xlink:href="#SVGID_52_"  style="overflow:visible;"/>
			</clipPath>
			<rect x="289.1" y="730.8" class="st33" width="11" height="14.8"/>
		</g>
		<g>
			<defs>
				<polygon id="SVGID_54_" points="306.2,730.8 306.2,745.4 314.1,745.4 314.1,743.9 308.1,743.9 308.1,738.8 313.4,738.8 
					313.4,737.3 308.1,737.3 308.1,732.4 314.1,732.4 314.1,730.8 				"/>
			</defs>
			<use xlink:href="#SVGID_54_"  style="overflow:visible;fill:#A81E1C;"/>
			<clipPath id="SVGID_55_">
				<use xlink:href="#SVGID_54_"  style="overflow:visible;"/>
			</clipPath>
			<rect x="306.2" y="730.8" class="st34" width="7.9" height="14.6"/>
		</g>
		<g>
			<defs>
				<polygon id="SVGID_56_" points="337.8,730.8 337.8,737.2 330.4,737.2 330.4,730.8 328.5,730.8 328.5,745.4 330.4,745.4 
					330.4,738.8 337.8,738.8 337.8,745.4 339.7,745.4 339.7,730.8 				"/>
			</defs>
			<use xlink:href="#SVGID_56_"  style="overflow:visible;fill:#A81E1C;"/>
			<clipPath id="SVGID_57_">
				<use xlink:href="#SVGID_56_"  style="overflow:visible;"/>
			</clipPath>
			<rect x="328.5" y="730.8" class="st35" width="11.3" height="14.6"/>
		</g>
		<g>
			<defs>
				<path id="SVGID_58_" d="M349.8,743.2c-0.8-0.5-1.5-1.2-1.9-2c-0.5-0.9-0.7-1.9-0.7-3.1c0-1.2,0.2-2.2,0.7-3.1
					c0.5-0.9,1.1-1.5,1.9-2c0.8-0.5,1.7-0.7,2.8-0.7c1,0,2,0.2,2.8,0.7c0.8,0.5,1.5,1.1,1.9,2c0.5,0.9,0.7,1.9,0.7,3.1
					c0,1.2-0.2,2.2-0.7,3.1c-0.5,0.9-1.1,1.6-1.9,2s-1.7,0.7-2.8,0.7C351.5,743.9,350.6,743.7,349.8,743.2 M348.8,731.6
					c-1.1,0.6-2,1.5-2.7,2.7c-0.6,1.1-1,2.4-1,3.9c0,1.4,0.3,2.7,1,3.9c0.7,1.1,1.5,2,2.7,2.7c1.1,0.6,2.4,1,3.7,1
					c1.4,0,2.6-0.3,3.7-1c1.1-0.6,2-1.5,2.6-2.7c0.6-1.1,1-2.4,1-3.9c0-1.4-0.3-2.7-1-3.9c-0.6-1.1-1.5-2-2.6-2.7
					c-1.1-0.6-2.4-1-3.7-1C351.2,730.7,349.9,731,348.8,731.6"/>
			</defs>
			<use xlink:href="#SVGID_58_"  style="overflow:visible;fill:#A81E1C;"/>
			<clipPath id="SVGID_59_">
				<use xlink:href="#SVGID_58_"  style="overflow:visible;"/>
			</clipPath>
			<rect x="345.2" y="730.7" class="st36" width="14.7" height="14.9"/>
		</g>
		<g>
			<defs>
				<polygon id="SVGID_60_" points="364.4,730.8 364.4,732.4 368.4,732.4 368.4,745.4 370.4,745.4 370.4,732.4 374.3,732.4 
					374.3,730.8 				"/>
			</defs>
			<use xlink:href="#SVGID_60_"  style="overflow:visible;fill:#A81E1C;"/>
			<clipPath id="SVGID_61_">
				<use xlink:href="#SVGID_60_"  style="overflow:visible;"/>
			</clipPath>
			<rect x="364.4" y="730.8" class="st37" width="9.9" height="14.6"/>
		</g>
		<g>
			<defs>
				<polygon id="SVGID_62_" points="379.6,730.8 379.6,745.4 387.5,745.4 387.5,743.9 381.5,743.9 381.5,738.8 386.9,738.8 
					386.9,737.3 381.5,737.3 381.5,732.4 387.5,732.4 387.5,730.8 				"/>
			</defs>
			<use xlink:href="#SVGID_62_"  style="overflow:visible;fill:#A81E1C;"/>
			<clipPath id="SVGID_63_">
				<use xlink:href="#SVGID_62_"  style="overflow:visible;"/>
			</clipPath>
			<rect x="379.6" y="730.8" class="st38" width="7.9" height="14.6"/>
		</g>
		<g>
			<defs>
				<polygon id="SVGID_64_" points="393.3,730.8 393.3,745.4 400.4,745.4 400.4,743.9 395.2,743.9 395.2,730.8 				"/>
			</defs>
			<use xlink:href="#SVGID_64_"  style="overflow:visible;fill:#A81E1C;"/>
			<clipPath id="SVGID_65_">
				<use xlink:href="#SVGID_64_"  style="overflow:visible;"/>
			</clipPath>
			<rect x="393.3" y="730.8" class="st39" width="7" height="14.6"/>
		</g>
	</g>
	<g>
		<path class="st40" d="M229.6,679.7c-6.9,0-13.7,0-20.4,0c-1.7,0-3.4-0.1-5.1,0.1c-2.1,0.3-3.9,1.3-3.8,3.9
			c0.1,2.5,1.8,3.4,4.1,3.5c4.9,0.2,9.9,0.3,14.8,0.5c5.2,0.2,10,4.3,11.3,9.7c1.5,6.1-0.7,11.8-5.6,14.3c-1.4,0.7-3,1.2-4.6,1.2
			c-6.8,0.1-13.5,0-20.3,0.1c-1.8,0-2.7-0.5-3.1-2.4c-0.7-2.8-1.6-5.5-2.3-7.7c3.3,0.4,6.5,1,9.8,1.1c5.6,0.2,11.3,0,16.9,0
			c2.2,0,4.3-0.3,4.4-3c0.1-2.7-2.1-3.6-4.3-3.7c-4.2-0.2-8.5-0.1-12.7-0.1c-7,0-12.4-4.8-13.4-11.9c-0.9-6.3,2.6-12.7,8.4-15.4
			c0.9-0.4,1.9-0.5,2.9-0.5c3-0.1,6-0.1,9.1,0c4.1,0.1,8.3,0.2,11.8-3.5C228.2,670.8,228.9,675.1,229.6,679.7z"/>
		<path class="st40" d="M235,678.5c0.6-3.4,1.1-6.4,1.6-9.4c10.7-1.9,21.9,2.3,32.4-3.2c0.6,3.9,1.3,8,2.1,12.5
			c-5.2,0-10.2,0-15.8,0c0,1.5,0,2.6,0,3.8c0,13.4,0,26.8,0,40.2c0,0.7,0.1,1.4,0,2.1c-0.2,0.7-0.6,1.3-0.9,1.9
			c-0.4-0.6-1-1.2-1-1.8c-0.2-2.7-0.2-5.4-0.3-8.2c-0.1-2.3-0.3-4.6-0.7-6.9c-0.2-1.3-0.5-2.8-1.4-3.6c-3.2-3-2.8-6.8-2.8-10.6
			c0.1-4.5-0.1-9.1,0.1-13.6c0.1-2.4-0.5-3.5-3.1-3.3C241.9,678.7,238.6,678.5,235,678.5z"/>
		<path class="st40" d="M339.5,694.9c0.5-2.9,0.9-5.3,1.3-7.7c3-0.3,5.8-0.4,8.5-0.9c2.5-0.5,4.7-1.7,4.6-4.7c0-2.9-2.1-4.2-4.5-4.5
			c-5.1-0.5-10.2-0.7-15.8-1c0,5.4,0.1,10.3,0,15.2c-0.1,1.9-0.3,3.8-1,5.6c-2.7,6.8-2.9,14-3.1,21.1c-0.1,2,0,4,0,6.2
			c-1.2,0.1-2,0.1-3.2,0.2c0-1.2,0-2.2,0-3.2c0-13.9,0-27.8,0-41.7c0-1.8,0.3-3.8-2.9-3c0.4-3.3,0.6-6.2,1.1-9.1
			c0.1-0.6,1.2-1.5,1.8-1.4c7.5,0.4,15,0.7,22.4,1.7c5.5,0.7,8.6,4.5,9.4,10c0.3,1.7,0.5,3.4,0.4,5.1c-0.3,8.2-4,11.9-12.2,12.1
			C344.3,694.9,342.1,694.9,339.5,694.9z"/>
		<path class="st40" d="M370.1,676.2c-0.2-1-0.8-2.1-0.6-3.1c1.1-7.1,1.1-7.1,8.2-7.1c4.5,0,9,0,13.9,0c-0.1,1.3,0,2.4-0.3,3.4
			c-1.4,4.4-0.5,8.4,1.2,12.5c2.9,7.3,5.5,14.7,8,22.2c0.4,1.2,0,2.8-0.3,4.1c-1,4.8-2.1,9.6-3.3,14.3c-0.2,0.9-0.9,1.7-1.3,2.5
			c-0.3-0.8-1-1.7-0.9-2.5c1.5-16.4-5.5-30.7-11.3-45.2c-0.3-0.8-1.8-1.6-2.7-1.6c-0.9,0-2.2,0.8-2.6,1.6c-1.6,3.7-2.8,7.5-4.4,11.7
			c4.3,0,8.2,0,12.4,0c-0.5,2.9-1,5.5-1.6,8.5c-3.7,0-7.4,0.1-11,0c-1.9-0.1-2.9,0.6-3.6,2.4c-1.2,3.2-2.6,6.3-4,9.5
			c-2.1,0-4.1,0-6.4,0c3.9-11.1,7.8-22,11.7-32.9C370.8,676.3,370.4,676.3,370.1,676.2z"/>
		<path class="st40" d="M317.9,666l-11.6,0l-2.1,11.1l3.3-0.5c0.5,4.1,2,8.2,2.1,12.3c0.3,8.3-3.4,11.9-10.8,11.7
			c-7.1-0.2-10.5-3.7-10.4-11.5c0.1-4.4,0.3-8.8,0.5-13.2l0.1,0l1.5-9.4l-1.1,0l0,0c-3,0-5.9,0-9.6,0c0,0,0,0,0,0l-0.9,0l-2.1,11.1
			l3.7-0.5c0.4,6.4,0.9,12.7,1.3,18.9c0.8,10.1,6.3,15,17.1,14.9c10.5,0,16.7-5.1,17.2-14.9c0.3-6.8,0.2-13.7,0.2-20.7l0.1,0
			L317.9,666z"/>
	</g>
	<path class="st0" d="M302.3,660.9l-2.1-1.5c0,0,2.5-4-1.3-13.8c-4.2-11-0.2-27.7,0-28.4l2.5,0.6c0,0.2-4,16.6,0,26.9
		C305.7,656,302.4,660.7,302.3,660.9z"/>
	<g>
		<path class="st40" d="M297.6,509.7c0.9,2.6,1.8,5.4,2.9,8.1c2.9,7,7.5,13.2,11.9,19.6c4.3,6.1,8.5,12.2,11.4,18.9
			c4.5,10.6,3.9,21-1.5,31.1c-3.7,7-8.2,13.7-12.5,20.5c-4.8,7.7-9,15.5-10.3,24.2c-0.3,2-0.4,3.9-0.9,6c-0.7-1.8-1.4-3.6-2-5.4
			c-2.5-8.3-1.7-16.4,2.3-24.1c3.1-6,7-11.7,10.5-17.6c2.8-4.7,5.3-9.5,6.5-14.7c1.5-6.6,0.5-12.9-2.5-19c-3-6.3-7.1-12-11.2-17.7
			c-1.5-2.1-3-4.2-4.6-6.5c-1,1.4-1.9,2.8-2.9,4.1c-4,5.3-8.2,10.6-12,16c-4.9,6.9-8.1,14.2-7.6,22.3c0.3,5.3,2.1,10.3,4.1,15.3
			c2.1,5.2,4.2,10.5,6.3,15.8c0.1,0.2,0.1,0.5,0.3,1.1c-2.4-3.9-4.7-7.5-7-11.1c-3.1-4.9-6.1-9.9-8.1-15.2c-3.5-9.1-2.6-18,1.6-26.8
			c3-6.4,7.2-12.3,11.3-18.2c4.2-6,8.5-12,11.2-18.7C295.8,515,296.7,512.3,297.6,509.7z"/>
		<path class="st40" d="M376.8,565.9c2.5,5.9,3.8,11.9,3.1,18.2c-0.6,5.7-2.6,11.1-6.3,15.9c-6.3,8.4-15.2,14-26.9,15.8
			c-3.5,0.5-7.2,0.1-10.8,0c17-1.1,25.8-10,31.6-22.4c-0.5,0.1-0.6,0.1-0.7,0.2c-5.5,5.5-12.9,9-20.3,12.5
			c-6.6,3.1-13.2,6.1-19.4,9.6c-5.6,3-10.1,7-13.7,11.7c-0.2,0.2-0.4,0.4-0.7,0.5c1.3-3.1,3.2-6,5.5-8.7
			c5.9-6.9,13.5-12.3,21.5-17.4c7-4.5,14.1-8.8,20.8-13.6C369,582.2,374.2,575.5,376.8,565.9z"/>
		<path class="st40" d="M259.3,615.8c-6.8,1-13.5,0.3-19.7-2.3c-14.4-5.9-22.2-15.7-24.2-28.9c-0.9-5.8,1-15,3.1-18.9
			c0.6,1.9,1.1,3.7,1.8,5.4c2.8,6.8,7.8,12.5,14.3,17.1c6.8,4.8,14,9.2,21,13.7c7.5,4.8,14.7,9.8,20.4,16.1c2.8,3,5.1,6.3,6.5,10
			c-0.3-0.4-0.6-0.7-0.9-1.1c-0.3-0.4-0.6-0.8-0.9-1.1c-5.5-6.3-12.7-10.8-20.7-14.6c-7-3.3-14.2-6.4-21-10c-4-2.1-7.4-5-10.8-7.3
			c0.1,2.7,6.1,11,11.3,15C245,613.2,251.6,615.6,259.3,615.8z"/>
		<path class="st40" d="M271.6,541c-3.4,4.4-6.3,8.9-8.2,13.8c-2.7,6.9-3.3,13.9-2,21c1.8,9.2,7.1,17.1,12.6,25.1
			c4.1,5.9,8.1,11.9,11.8,18c1.6,2.7,2.4,5.8,3.6,8.8c-0.2,0-0.3,0.1-0.5,0.1c-0.9-1.6-1.7-3.2-2.7-4.7c-3.7-6-9.2-10.8-14.5-15.8
			c-4.8-4.5-9.8-9-14-13.9c-6.4-7.5-9-16.1-7.3-25.3c1.8-9.8,8-17.5,16.7-24c1.3-1,2.7-1.9,4.1-2.8
			C271.2,541.2,271.4,541.1,271.6,541z"/>
		<path class="st40" d="M323.5,541.1c11.1,6.8,19.2,15.3,21.4,26.9c1.6,8.4-0.7,16.3-5.9,23.6c-3.7,5.2-8.6,9.5-13.4,13.9
			c-4.5,4.1-8.9,8.2-12.9,12.6c-2.6,2.9-4.4,6.3-6.8,9.8c1-2.8,1.8-5.3,2.8-7.7c2.7-6,6.6-11.4,10.6-16.8c4.4-6.1,9-12.2,11.9-19
			c3.1-7.3,4.3-14.8,2.9-22.5c-1.4-7.5-5-14.2-10.1-20.4C323.7,541.5,323.6,541.3,323.5,541.1z"/>
		<path class="st40" d="M331,621.7c12-4.4,34-1.1,43,10.5c-4.2-2.2-8.2-1-12.2-0.6c-4.8,0.4-8.9-0.7-12.6-3.2c-2-1.4-4.1-2.7-6.3-4
			C339.4,622.1,335.4,621.3,331,621.7z"/>
		<path class="st40" d="M264.2,621.7c-7.1-0.9-12,2.5-17,5.7c-2.2,1.4-4.6,2.6-7.1,3.6c-2.9,1.1-6.2,0.7-9.3,0.3
			c-3.1-0.4-6.2-0.7-9.2,0.7C228.3,621.9,250.1,616.8,264.2,621.7z"/>
	</g>
	<circle class="st40" cx="297.6" cy="495" r="9.3"/>
	<path class="st0" d="M297.6,501.9c-3.8,0-7-3.1-7-7s3.1-7,7-7s7,3.1,7,7S301.5,501.9,297.6,501.9z M297.6,488.8
		c-3.4,0-6.2,2.8-6.2,6.2s2.8,6.2,6.2,6.2s6.2-2.8,6.2-6.2S301,488.8,297.6,488.8z"/>
	<path class="st0" d="M297.6,500c-2.8,0-5-2.3-5-5s2.3-5,5-5c2.8,0,5,2.3,5,5S300.4,500,297.6,500z M297.6,490.7
		c-2.3,0-4.2,1.9-4.2,4.2s1.9,4.2,4.2,4.2c2.3,0,4.2-1.9,4.2-4.2S300,490.7,297.6,490.7z"/>
	<path class="st0" d="M297.6,498.2c-1.8,0-3.3-1.5-3.3-3.3s1.5-3.3,3.3-3.3s3.3,1.5,3.3,3.3S299.4,498.2,297.6,498.2z M297.6,492.5
		c-1.4,0-2.5,1.1-2.5,2.5s1.1,2.5,2.5,2.5s2.5-1.1,2.5-2.5S299,492.5,297.6,492.5z"/>
</g>
</svg>
