
<svg version="1.1" id="Layer_1" xmlns="http://www.w3.org/2000/svg" xmlns:xlink="http://www.w3.org/1999/xlink" x="0px" y="0px" width="120px" height="32px"
	 viewBox="-140 414.9 329.1 25.8" style="enable-background:new -140 414.9 329.1 25.8;" xml:space="preserve">
<style type="text/css">
	.st0{fill:#FFAD29;}
</style>
<g id="XMLID_2_">
	<g id="XMLID_13_">
		<polygon id="XMLID_21_" class="st0" points="163.2,384.2 161.7,384.2 135.8,384.2 134.3,384.2 108.3,384.2 106.8,384.2 
			80.9,384.2 79.4,384.2 53.5,384.2 52,384.2 26.1,384.2 24.6,384.2 -1.4,384.2 -2.9,384.2 -28.8,384.2 -30.3,384.2 -56.2,384.2 
			-57.7,384.2 -83.6,384.2 -85.1,384.2 -111.1,384.2 -112.6,384.2 -140,384.2 -140,410 -116.2,410 -116.2,389.4 -134.8,389.4 
			-134.8,404.9 -122,404.9 -122,395.1 -129.1,395.1 -129.1,399.5 -127.6,399.5 -127.6,396.6 -123.5,396.6 -123.5,403.4 
			-133.3,403.4 -133.3,390.9 -117.7,390.9 -117.7,408.5 -138.5,408.5 -138.5,385.7 -112.6,385.7 -112.6,409.3 -112.6,410 -88.8,410 
			-88.8,389.4 -107.4,389.4 -107.4,404.9 -94.5,404.9 -94.5,395.1 -101.7,395.1 -101.7,399.5 -100.2,399.5 -100.2,396.6 -96,396.6 
			-96,403.4 -105.9,403.4 -105.9,390.9 -90.3,390.9 -90.3,408.5 -111.1,408.5 -111.1,385.7 -85.1,385.7 -85.1,409.3 -85.1,410 
			-61.4,410 -61.4,389.4 -80,389.4 -80,404.9 -67.1,404.9 -67.1,395.1 -74.2,395.1 -74.2,399.5 -72.7,399.5 -72.7,396.6 
			-68.6,396.6 -68.6,403.4 -78.5,403.4 -78.5,390.9 -62.9,390.9 -62.9,408.5 -83.6,408.5 -83.6,385.7 -57.7,385.7 -57.7,409.3 
			-57.7,410 -34,410 -34,389.4 -52.6,389.4 -52.6,404.9 -39.7,404.9 -39.7,395.1 -46.8,395.1 -46.8,399.5 -45.3,399.5 -45.3,396.6 
			-41.2,396.6 -41.2,403.4 -51.1,403.4 -51.1,390.9 -35.5,390.9 -35.5,408.5 -56.2,408.5 -56.2,385.7 -30.3,385.7 -30.3,409.3 
			-30.3,410 -6.5,410 -6.5,389.4 -25.1,389.4 -25.1,404.9 -12.3,404.9 -12.3,395.1 -19.4,395.1 -19.4,399.5 -17.9,399.5 
			-17.9,396.6 -13.8,396.6 -13.8,403.4 -23.6,403.4 -23.6,390.9 -8,390.9 -8,408.5 -28.8,408.5 -28.8,385.7 -2.9,385.7 -2.9,409.3 
			-2.9,410 20.9,410 20.9,389.4 2.3,389.4 2.3,404.9 15.2,404.9 15.2,395.1 8,395.1 8,399.5 9.5,399.5 9.5,396.6 13.7,396.6 
			13.7,403.4 3.8,403.4 3.8,390.9 19.4,390.9 19.4,408.5 -1.4,408.5 -1.4,385.7 24.6,385.7 24.6,409.3 24.6,410 48.3,410 
			48.3,389.4 29.7,389.4 29.7,404.9 42.6,404.9 42.6,395.1 35.5,395.1 35.5,399.5 37,399.5 37,396.6 41.1,396.6 41.1,403.4 
			31.2,403.4 31.2,390.9 46.8,390.9 46.8,408.5 26.1,408.5 26.1,385.7 52,385.7 52,409.3 52,410 75.8,410 75.8,389.4 57.2,389.4 
			57.2,404.9 70,404.9 70,395.1 62.9,395.1 62.9,399.5 64.4,399.5 64.4,396.6 68.5,396.6 68.5,403.4 58.7,403.4 58.7,390.9 
			74.3,390.9 74.3,408.5 53.5,408.5 53.5,385.7 79.4,385.7 79.4,409.3 79.4,410 103.2,410 103.2,389.4 84.6,389.4 84.6,404.9 
			97.5,404.9 97.5,395.1 90.3,395.1 90.3,399.5 91.8,399.5 91.8,396.6 96,396.6 96,403.4 86.1,403.4 86.1,390.9 101.7,390.9 
			101.7,408.5 80.9,408.5 80.9,385.7 106.8,385.7 106.8,409.3 106.8,410 130.6,410 130.6,389.4 112,389.4 112,404.9 124.9,404.9 
			124.9,395.1 117.7,395.1 117.7,399.5 119.2,399.5 119.2,396.6 123.4,396.6 123.4,403.4 113.5,403.4 113.5,390.9 129.1,390.9 
			129.1,408.5 108.3,408.5 108.3,385.7 134.3,385.7 134.3,409.3 134.3,410 158,410 158,389.4 139.4,389.4 139.4,404.9 152.3,404.9 
			152.3,395.1 145.2,395.1 145.2,399.5 146.7,399.5 146.7,396.6 150.8,396.6 150.8,403.4 140.9,403.4 140.9,390.9 156.5,390.9 
			156.5,408.5 135.8,408.5 135.8,385.7 161.7,385.7 161.7,409.3 161.7,410 185.5,410 185.5,389.4 166.9,389.4 166.9,404.9 
			179.7,404.9 179.7,395.1 172.6,395.1 172.6,399.5 174.1,399.5 174.1,396.6 178.2,396.6 178.2,403.4 168.4,403.4 168.4,390.9 
			184,390.9 184,408.5 163.2,408.5 163.2,385.7 189.1,385.7 189.1,409.3 190.6,409.3 190.6,384.2 		"/>
	</g>
</g>
</svg>
