
<svg version="1.1" id="Layer_1" xmlns="http://www.w3.org/2000/svg" xmlns:xlink="http://www.w3.org/1999/xlink" x="0px" y="0px"
	 viewBox="0 0 280.3 331.6" style="enable-background:new 0 0 280.3 331.6;" xml:space="preserve">
<style type="text/css">
	.st0{fill:#A81F23;}
	.st1{clip-path:url(#XMLID_167_);fill:#A81F23;}
	.st2{clip-path:url(#XMLID_168_);fill:#A81F23;}
	.st3{clip-path:url(#XMLID_169_);fill:#A81F23;}
	.st4{clip-path:url(#XMLID_170_);fill:#A81F23;}
	.st5{clip-path:url(#XMLID_171_);fill:#A81F23;}
	.st6{clip-path:url(#XMLID_172_);fill:#A81F23;}
	.st7{clip-path:url(#XMLID_173_);fill:#A81F23;}
	.st8{clip-path:url(#XMLID_174_);fill:#A81F23;}
	.st9{clip-path:url(#XMLID_175_);fill:#A81F23;}
	.st10{clip-path:url(#XMLID_176_);fill:#A81F23;}
	.st11{clip-path:url(#XMLID_177_);fill:#A81F23;}
	.st12{clip-path:url(#XMLID_178_);fill:#A81F23;}
	.st13{clip-path:url(#XMLID_179_);fill:#A81F23;}
	.st14{fill:url(#XMLID_180_);}
	.st15{fill:url(#XMLID_181_);}
	.st16{fill:url(#XMLID_182_);}
	.st17{fill:url(#XMLID_183_);}
	.st18{fill:url(#XMLID_184_);}
	.st19{fill:url(#XMLID_185_);}
	.st20{fill:url(#XMLID_186_);}
	.st21{fill:url(#XMLID_187_);}
	.st22{fill:url(#XMLID_188_);}
	.st23{fill:url(#XMLID_189_);}
	.st24{fill:url(#XMLID_190_);}
	.st25{fill:url(#XMLID_191_);}
	.st26{fill:url(#XMLID_192_);}
</style>
<g id="XMLID_2_">
	<path id="XMLID_113_" class="st0" d="M136.1,11.9c2.2,5.2,4.3,10.4,6.5,15.6c0.9,2.1,1.8,4.3,2.9,6.4c1.5,2.7,3.8,4.8,6.7,6.1
		c3.8,1.8,7.8,3.3,11.6,5.2c1.8,0.9,3.6,1.9,4.9,3.3c1.7,1.8,3.6,3.1,5.8,4.1c2.2,1.1,4.4,2.3,6.5,3.6c2.4,1.5,4.3,3.6,5.4,6.1
		c1.3,2.9,3.5,5.2,6.1,7.1c3.9,2.8,6.7,6.3,8.2,10.7c1.3,3.9,4,6.9,7.9,8.9c1.2,0.6,2.2,1.6,3,2.6c3.8,4.6,6.8,9.6,8.9,15.1
		c0.9,2.4,2.4,4.4,4.4,6.1c5.8,4.8,8.8,10.7,9.1,18c0.1,3.4,1,6.6,2.5,9.7c1.6,3.2,2.4,6.6,2.5,10.2c0.2,5.9,0.3,11.7,0.2,17.6
		c0,1.6-0.7,3.2-1.1,4.8c-0.6,2.5-1.2,5.1-1.9,7.6c-0.4,1.4-0.8,3-1.6,4.1c-2.7,3.8-5.5,7.6-8.6,11.1c-6,6.8-14,10.6-22.9,12.9
		c-5.7,1.5-11.5,2.8-17.2,4c-4.5,1-8.8,0.2-13.1-1c-1.9-0.5-3.9-1.1-5.9-1.4c-6.2-1-11.4-3.9-16-7.8c-2-1.7-4-3.4-6.1-5
		c-1.8-1.3-2.4-1.2-4.2,0.1c-8.4,6.1-17.4,11.4-27.3,14.9c-8,2.8-16.6,3.5-24.6,0.4c-6.2-2.4-12.4-5.6-17.6-9.5
		c-6.9-5.2-11.7-12.2-14.1-20.4c-1-3.4-2.3-6.5-4.3-9.4c-2.3-3.3-3.2-6.8-3.1-10.7c0.1-3.8,0.1-7.5-1.4-11.2
		c-0.6-1.5-0.4-3.7,0.3-5.2c2.9-6,3.9-12.3,4.7-18.7c0.6-4.6,2.1-8.6,5.3-12.2c4.2-4.5,6.3-10,8.1-15.5c1.4-4.3,3.8-7.8,7-11.2
		c3.8-4,7.2-8.4,10.5-12.9c2.1-2.9,4.5-5.4,7.6-7.4c2.9-1.9,5.4-4.1,7.3-7c1.8-2.8,4.5-4.8,7.6-6.2c3.9-1.7,7.3-3.9,10.2-6.9
		c1.3-1.3,3-2.3,4.6-3.1c3.7-1.9,7.4-3.6,11.1-5.3c5.4-2.5,7.4-6.4,6.2-12c-0.9-4.2-1.8-8.5-2.7-12.7c-0.2-1.1-0.2-2.3-0.3-3.5
		C136,11.9,136,11.9,136.1,11.9z"/>
	<g id="XMLID_29_">
		<g id="XMLID_102_">
			<g id="XMLID_109_">
				<path id="SVGID_1_" class="st0" d="M42.5,303h3.3c0.9,0,1.7,0.2,2.2,0.7c0.6,0.5,0.8,1.1,0.8,1.9s-0.3,1.4-0.8,1.9
					c-0.5,0.4-1.3,0.7-2.2,0.7h-3.4L42.5,303L42.5,303z M42.5,296.7h3.2c0.9,0,1.6,0.2,2.1,0.6s0.7,1,0.7,1.7s-0.2,1.3-0.7,1.7
					c-0.5,0.4-1.2,0.6-2.1,0.6h-3.2V296.7z M40.6,295.1v14.6h5.5c1,0,1.8-0.2,2.5-0.5s1.3-0.8,1.6-1.4c0.4-0.6,0.6-1.3,0.6-2
					c0-0.6-0.1-1.1-0.4-1.7c-0.3-0.5-0.6-1-1-1.3s-0.9-0.6-1.5-0.7c0.8-0.3,1.4-0.7,1.9-1.2c0.5-0.6,0.7-1.3,0.7-2.2
					c0-0.7-0.2-1.3-0.5-1.9s-0.9-1-1.6-1.3c-0.7-0.3-1.5-0.5-2.5-0.5h-5.3V295.1z"/>
			</g>
			<g id="XMLID_103_">
				<defs>
					<path id="XMLID_105_" d="M42.5,303h3.3c0.9,0,1.7,0.2,2.2,0.7c0.6,0.5,0.8,1.1,0.8,1.9s-0.3,1.4-0.8,1.9
						c-0.5,0.4-1.3,0.7-2.2,0.7h-3.4L42.5,303L42.5,303z M42.5,296.7h3.2c0.9,0,1.6,0.2,2.1,0.6s0.7,1,0.7,1.7s-0.2,1.3-0.7,1.7
						c-0.5,0.4-1.2,0.6-2.1,0.6h-3.2V296.7z M40.6,295.1v14.6h5.5c1,0,1.8-0.2,2.5-0.5s1.3-0.8,1.6-1.4c0.4-0.6,0.6-1.3,0.6-2
						c0-0.6-0.1-1.1-0.4-1.7c-0.3-0.5-0.6-1-1-1.3s-0.9-0.6-1.5-0.7c0.8-0.3,1.4-0.7,1.9-1.2c0.5-0.6,0.7-1.3,0.7-2.2
						c0-0.7-0.2-1.3-0.5-1.9s-0.9-1-1.6-1.3c-0.7-0.3-1.5-0.5-2.5-0.5h-5.3V295.1z"/>
				</defs>
				<clipPath id="XMLID_167_">
					<use xlink:href="#XMLID_105_"  style="overflow:visible;"/>
				</clipPath>
				<rect id="XMLID_104_" x="40.6" y="295.1" class="st1" width="10.2" height="14.6"/>
			</g>
		</g>
		<g id="XMLID_93_">
			<g id="XMLID_99_">
				<path id="SVGID_3_" class="st0" d="M60.3,307.5c-0.8-0.5-1.5-1.2-1.9-2c-0.5-0.9-0.7-1.9-0.7-3.1s0.2-2.2,0.7-3.1s1.1-1.5,1.9-2
					c0.8-0.5,1.7-0.7,2.8-0.7c1,0,2,0.2,2.8,0.7s1.4,1.1,1.9,2s0.7,1.9,0.7,3.1s-0.2,2.2-0.7,3.1s-1.1,1.6-1.9,2
					c-0.8,0.5-1.7,0.7-2.8,0.7C62,308.3,61.1,308,60.3,307.5 M59.3,295.9c-1.1,0.6-2,1.5-2.7,2.7c-0.6,1.1-1,2.4-1,3.9
					c0,1.4,0.3,2.7,1,3.9c0.7,1.1,1.5,2,2.7,2.7c1.1,0.6,2.4,1,3.7,1c1.4,0,2.6-0.3,3.7-1c1.1-0.6,2-1.5,2.6-2.7
					c0.6-1.1,1-2.4,1-3.9c0-1.4-0.3-2.7-1-3.9c-0.6-1.1-1.5-2-2.6-2.7c-1.1-0.6-2.4-1-3.7-1C61.7,295,60.5,295.3,59.3,295.9"/>
			</g>
			<g id="XMLID_94_">
				<defs>
					<path id="XMLID_96_" d="M60.3,307.5c-0.8-0.5-1.5-1.2-1.9-2c-0.5-0.9-0.7-1.9-0.7-3.1s0.2-2.2,0.7-3.1s1.1-1.5,1.9-2
						c0.8-0.5,1.7-0.7,2.8-0.7c1,0,2,0.2,2.8,0.7s1.4,1.1,1.9,2s0.7,1.9,0.7,3.1s-0.2,2.2-0.7,3.1s-1.1,1.6-1.9,2
						c-0.8,0.5-1.7,0.7-2.8,0.7C62,308.3,61.1,308,60.3,307.5 M59.3,295.9c-1.1,0.6-2,1.5-2.7,2.7c-0.6,1.1-1,2.4-1,3.9
						c0,1.4,0.3,2.7,1,3.9c0.7,1.1,1.5,2,2.7,2.7c1.1,0.6,2.4,1,3.7,1c1.4,0,2.6-0.3,3.7-1c1.1-0.6,2-1.5,2.6-2.7
						c0.6-1.1,1-2.4,1-3.9c0-1.4-0.3-2.7-1-3.9c-0.6-1.1-1.5-2-2.6-2.7c-1.1-0.6-2.4-1-3.7-1C61.7,295,60.5,295.3,59.3,295.9"/>
				</defs>
				<clipPath id="XMLID_168_">
					<use xlink:href="#XMLID_96_"  style="overflow:visible;"/>
				</clipPath>
				<rect id="XMLID_95_" x="55.7" y="295" class="st2" width="14.7" height="14.9"/>
			</g>
		</g>
		<g id="XMLID_88_">
			<g id="XMLID_92_">
				<path id="SVGID_5_" class="st0" d="M84.9,295.1v9.3c0,1.3-0.3,2.3-1,2.9c-0.6,0.6-1.5,0.9-2.6,0.9s-2-0.3-2.7-0.9
					c-0.6-0.6-1-1.6-1-2.9v-9.3h-1.9v9.2c0,1.2,0.2,2.2,0.7,3.1c0.5,0.8,1.1,1.5,2,1.9c0.8,0.4,1.8,0.6,2.8,0.6s2-0.2,2.8-0.6
					s1.5-1,2-1.9c0.5-0.8,0.7-1.9,0.7-3.1v-9.2H84.9z"/>
			</g>
			<g id="XMLID_89_">
				<defs>
					<path id="XMLID_91_" d="M84.9,295.1v9.3c0,1.3-0.3,2.3-1,2.9c-0.6,0.6-1.5,0.9-2.6,0.9s-2-0.3-2.7-0.9c-0.6-0.6-1-1.6-1-2.9
						v-9.3h-1.9v9.2c0,1.2,0.2,2.2,0.7,3.1c0.5,0.8,1.1,1.5,2,1.9c0.8,0.4,1.8,0.6,2.8,0.6s2-0.2,2.8-0.6s1.5-1,2-1.9
						c0.5-0.8,0.7-1.9,0.7-3.1v-9.2H84.9z"/>
				</defs>
				<clipPath id="XMLID_169_">
					<use xlink:href="#XMLID_91_"  style="overflow:visible;"/>
				</clipPath>
				<rect id="XMLID_90_" x="75.8" y="295.1" class="st3" width="11" height="14.8"/>
			</g>
		</g>
		<g id="XMLID_83_">
			<g id="XMLID_87_">
				<polygon id="SVGID_7_" class="st0" points="92,295.1 92,296.7 96.1,296.7 96.1,309.8 98,309.8 98,296.7 102,296.7 102,295.1 
									"/>
			</g>
			<g id="XMLID_84_">
				<defs>
					<polygon id="XMLID_86_" points="92,295.1 92,296.7 96.1,296.7 96.1,309.8 98,309.8 98,296.7 102,296.7 102,295.1 					"/>
				</defs>
				<clipPath id="XMLID_170_">
					<use xlink:href="#XMLID_86_"  style="overflow:visible;"/>
				</clipPath>
				<rect id="XMLID_85_" x="92" y="295.1" class="st4" width="9.9" height="14.6"/>
			</g>
		</g>
		<g id="XMLID_78_">
			<g id="XMLID_82_">
				<rect id="SVGID_9_" x="107.2" y="295.1" class="st0" width="1.9" height="14.6"/>
			</g>
			<g id="XMLID_79_">
				<defs>
					<rect id="XMLID_81_" x="107.2" y="295.1" width="1.9" height="14.6"/>
				</defs>
				<clipPath id="XMLID_171_">
					<use xlink:href="#XMLID_81_"  style="overflow:visible;"/>
				</clipPath>
				<rect id="XMLID_80_" x="107.2" y="295.1" class="st5" width="1.9" height="14.6"/>
			</g>
		</g>
		<g id="XMLID_69_">
			<g id="XMLID_75_">
				<path id="SVGID_11_" class="st0" d="M119.2,307.5c-0.8-0.5-1.5-1.2-1.9-2c-0.5-0.9-0.7-1.9-0.7-3.1s0.2-2.2,0.7-3.1
					s1.1-1.5,1.9-2s1.7-0.7,2.8-0.7c1,0,2,0.2,2.8,0.7s1.5,1.1,1.9,2c0.5,0.9,0.7,1.9,0.7,3.1s-0.2,2.2-0.7,3.1s-1.1,1.6-1.9,2
					c-0.8,0.5-1.7,0.7-2.8,0.7C120.9,308.3,120,308,119.2,307.5 M118.3,295.9c-1.1,0.6-2,1.5-2.7,2.7c-0.7,1.1-1,2.4-1,3.9
					c0,1.4,0.3,2.7,1,3.9c0.7,1.1,1.5,2,2.7,2.7c1.1,0.6,2.4,1,3.7,1c0.7,0,1.5-0.1,2.2-0.3l2.9,2.9h2.5l-3.7-3.7
					c1.1-0.6,1.9-1.5,2.5-2.6s0.9-2.4,0.9-3.8s-0.3-2.7-1-3.9c-0.6-1.1-1.5-2-2.6-2.7c-1.1-0.6-2.4-1-3.7-1
					C120.6,295,119.4,295.3,118.3,295.9"/>
			</g>
			<g id="XMLID_70_">
				<defs>
					<path id="XMLID_72_" d="M119.2,307.5c-0.8-0.5-1.5-1.2-1.9-2c-0.5-0.9-0.7-1.9-0.7-3.1s0.2-2.2,0.7-3.1s1.1-1.5,1.9-2
						s1.7-0.7,2.8-0.7c1,0,2,0.2,2.8,0.7s1.5,1.1,1.9,2c0.5,0.9,0.7,1.9,0.7,3.1s-0.2,2.2-0.7,3.1s-1.1,1.6-1.9,2
						c-0.8,0.5-1.7,0.7-2.8,0.7C120.9,308.3,120,308,119.2,307.5 M118.3,295.9c-1.1,0.6-2,1.5-2.7,2.7c-0.7,1.1-1,2.4-1,3.9
						c0,1.4,0.3,2.7,1,3.9c0.7,1.1,1.5,2,2.7,2.7c1.1,0.6,2.4,1,3.7,1c0.7,0,1.5-0.1,2.2-0.3l2.9,2.9h2.5l-3.7-3.7
						c1.1-0.6,1.9-1.5,2.5-2.6s0.9-2.4,0.9-3.8s-0.3-2.7-1-3.9c-0.6-1.1-1.5-2-2.6-2.7c-1.1-0.6-2.4-1-3.7-1
						C120.6,295,119.4,295.3,118.3,295.9"/>
				</defs>
				<clipPath id="XMLID_172_">
					<use xlink:href="#XMLID_72_"  style="overflow:visible;"/>
				</clipPath>
				<rect id="XMLID_71_" x="114.6" y="295" class="st6" width="14.9" height="17.6"/>
			</g>
		</g>
		<g id="XMLID_64_">
			<g id="XMLID_68_">
				<path id="SVGID_13_" class="st0" d="M143.9,295.1v9.3c0,1.3-0.3,2.3-1,2.9c-0.6,0.6-1.5,0.9-2.6,0.9s-2-0.3-2.7-0.9
					c-0.6-0.6-1-1.6-1-2.9v-9.3h-1.9v9.2c0,1.2,0.2,2.2,0.7,3.1c0.5,0.8,1.1,1.5,2,1.9c0.8,0.4,1.8,0.6,2.8,0.6s2-0.2,2.8-0.6
					s1.5-1,2-1.9c0.5-0.8,0.7-1.9,0.7-3.1v-9.2H143.9z"/>
			</g>
			<g id="XMLID_65_">
				<defs>
					<path id="XMLID_67_" d="M143.9,295.1v9.3c0,1.3-0.3,2.3-1,2.9c-0.6,0.6-1.5,0.9-2.6,0.9s-2-0.3-2.7-0.9c-0.6-0.6-1-1.6-1-2.9
						v-9.3h-1.9v9.2c0,1.2,0.2,2.2,0.7,3.1c0.5,0.8,1.1,1.5,2,1.9c0.8,0.4,1.8,0.6,2.8,0.6s2-0.2,2.8-0.6s1.5-1,2-1.9
						c0.5-0.8,0.7-1.9,0.7-3.1v-9.2H143.9z"/>
				</defs>
				<clipPath id="XMLID_173_">
					<use xlink:href="#XMLID_67_"  style="overflow:visible;"/>
				</clipPath>
				<rect id="XMLID_66_" x="134.8" y="295.1" class="st7" width="11" height="14.8"/>
			</g>
		</g>
		<g id="XMLID_59_">
			<g id="XMLID_63_">
				<polygon id="SVGID_15_" class="st0" points="151.9,295.1 151.9,309.8 159.8,309.8 159.8,308.2 153.8,308.2 153.8,303.2 
					159.1,303.2 159.1,301.6 153.8,301.6 153.8,296.7 159.8,296.7 159.8,295.1 				"/>
			</g>
			<g id="XMLID_60_">
				<defs>
					<polygon id="XMLID_62_" points="151.9,295.1 151.9,309.8 159.8,309.8 159.8,308.2 153.8,308.2 153.8,303.2 159.1,303.2 
						159.1,301.6 153.8,301.6 153.8,296.7 159.8,296.7 159.8,295.1 					"/>
				</defs>
				<clipPath id="XMLID_174_">
					<use xlink:href="#XMLID_62_"  style="overflow:visible;"/>
				</clipPath>
				<rect id="XMLID_61_" x="151.9" y="295.1" class="st8" width="7.9" height="14.6"/>
			</g>
		</g>
		<g id="XMLID_54_">
			<g id="XMLID_58_">
				<polygon id="SVGID_17_" class="st0" points="183.5,295.1 183.5,301.6 176.1,301.6 176.1,295.1 174.2,295.1 174.2,309.8 
					176.1,309.8 176.1,303.1 183.5,303.1 183.5,309.8 185.4,309.8 185.4,295.1 				"/>
			</g>
			<g id="XMLID_55_">
				<defs>
					<polygon id="XMLID_57_" points="183.5,295.1 183.5,301.6 176.1,301.6 176.1,295.1 174.2,295.1 174.2,309.8 176.1,309.8 
						176.1,303.1 183.5,303.1 183.5,309.8 185.4,309.8 185.4,295.1 					"/>
				</defs>
				<clipPath id="XMLID_175_">
					<use xlink:href="#XMLID_57_"  style="overflow:visible;"/>
				</clipPath>
				<rect id="XMLID_56_" x="174.2" y="295.1" class="st9" width="11.3" height="14.6"/>
			</g>
		</g>
		<g id="XMLID_45_">
			<g id="XMLID_51_">
				<path id="SVGID_19_" class="st0" d="M195.5,307.5c-0.8-0.5-1.5-1.2-1.9-2c-0.5-0.9-0.7-1.9-0.7-3.1s0.2-2.2,0.7-3.1
					s1.1-1.5,1.9-2s1.7-0.7,2.8-0.7c1,0,2,0.2,2.8,0.7s1.5,1.1,1.9,2c0.5,0.9,0.7,1.9,0.7,3.1s-0.2,2.2-0.7,3.1s-1.1,1.6-1.9,2
					s-1.7,0.7-2.8,0.7C197.2,308.3,196.3,308,195.5,307.5 M194.5,295.9c-1.1,0.6-2,1.5-2.7,2.7c-0.6,1.1-1,2.4-1,3.9
					c0,1.4,0.3,2.7,1,3.9c0.7,1.1,1.5,2,2.7,2.7c1.1,0.6,2.4,1,3.7,1c1.4,0,2.6-0.3,3.7-1s2-1.5,2.6-2.7c0.6-1.1,1-2.4,1-3.9
					c0-1.4-0.3-2.7-1-3.9c-0.6-1.1-1.5-2-2.6-2.7c-1.1-0.6-2.4-1-3.7-1C196.9,295,195.6,295.3,194.5,295.9"/>
			</g>
			<g id="XMLID_46_">
				<defs>
					<path id="XMLID_48_" d="M195.5,307.5c-0.8-0.5-1.5-1.2-1.9-2c-0.5-0.9-0.7-1.9-0.7-3.1s0.2-2.2,0.7-3.1s1.1-1.5,1.9-2
						s1.7-0.7,2.8-0.7c1,0,2,0.2,2.8,0.7s1.5,1.1,1.9,2c0.5,0.9,0.7,1.9,0.7,3.1s-0.2,2.2-0.7,3.1s-1.1,1.6-1.9,2s-1.7,0.7-2.8,0.7
						C197.2,308.3,196.3,308,195.5,307.5 M194.5,295.9c-1.1,0.6-2,1.5-2.7,2.7c-0.6,1.1-1,2.4-1,3.9c0,1.4,0.3,2.7,1,3.9
						c0.7,1.1,1.5,2,2.7,2.7c1.1,0.6,2.4,1,3.7,1c1.4,0,2.6-0.3,3.7-1s2-1.5,2.6-2.7c0.6-1.1,1-2.4,1-3.9c0-1.4-0.3-2.7-1-3.9
						c-0.6-1.1-1.5-2-2.6-2.7c-1.1-0.6-2.4-1-3.7-1C196.9,295,195.6,295.3,194.5,295.9"/>
				</defs>
				<clipPath id="XMLID_176_">
					<use xlink:href="#XMLID_48_"  style="overflow:visible;"/>
				</clipPath>
				<rect id="XMLID_47_" x="190.9" y="295" class="st10" width="14.7" height="14.9"/>
			</g>
		</g>
		<g id="XMLID_40_">
			<g id="XMLID_44_">
				<polygon id="SVGID_21_" class="st0" points="210.1,295.1 210.1,296.7 214.1,296.7 214.1,309.8 216.1,309.8 216.1,296.7 
					220,296.7 220,295.1 				"/>
			</g>
			<g id="XMLID_41_">
				<defs>
					<polygon id="XMLID_43_" points="210.1,295.1 210.1,296.7 214.1,296.7 214.1,309.8 216.1,309.8 216.1,296.7 220,296.7 
						220,295.1 					"/>
				</defs>
				<clipPath id="XMLID_177_">
					<use xlink:href="#XMLID_43_"  style="overflow:visible;"/>
				</clipPath>
				<rect id="XMLID_42_" x="210.1" y="295.1" class="st11" width="9.9" height="14.6"/>
			</g>
		</g>
		<g id="XMLID_35_">
			<g id="XMLID_39_">
				<polygon id="SVGID_23_" class="st0" points="225.3,295.1 225.3,309.8 233.2,309.8 233.2,308.2 227.2,308.2 227.2,303.2 
					232.6,303.2 232.6,301.6 227.2,301.6 227.2,296.7 233.2,296.7 233.2,295.1 				"/>
			</g>
			<g id="XMLID_36_">
				<defs>
					<polygon id="XMLID_38_" points="225.3,295.1 225.3,309.8 233.2,309.8 233.2,308.2 227.2,308.2 227.2,303.2 232.6,303.2 
						232.6,301.6 227.2,301.6 227.2,296.7 233.2,296.7 233.2,295.1 					"/>
				</defs>
				<clipPath id="XMLID_178_">
					<use xlink:href="#XMLID_38_"  style="overflow:visible;"/>
				</clipPath>
				<rect id="XMLID_37_" x="225.3" y="295.1" class="st12" width="7.9" height="14.6"/>
			</g>
		</g>
		<g id="XMLID_30_">
			<g id="XMLID_34_">
				<polygon id="SVGID_25_" class="st0" points="239,295.1 239,309.8 246.1,309.8 246.1,308.2 240.9,308.2 240.9,295.1 				"/>
			</g>
			<g id="XMLID_31_">
				<defs>
					<polygon id="XMLID_33_" points="239,295.1 239,309.8 246.1,309.8 246.1,308.2 240.9,308.2 240.9,295.1 					"/>
				</defs>
				<clipPath id="XMLID_179_">
					<use xlink:href="#XMLID_33_"  style="overflow:visible;"/>
				</clipPath>
				<rect id="XMLID_32_" x="239" y="295.1" class="st13" width="7" height="14.6"/>
			</g>
		</g>
	</g>
	<g id="XMLID_23_">
		
			<linearGradient id="XMLID_180_" gradientUnits="userSpaceOnUse" x1="58.5114" y1="401.9589" x2="58.5114" y2="486.4967" gradientTransform="matrix(1 0 0 -1 0 707.6627)">
			<stop  offset="0" style="stop-color:#BB872C"/>
			<stop  offset="0.4944" style="stop-color:#F5BD17"/>
			<stop  offset="1" style="stop-color:#BB872C"/>
		</linearGradient>
		<path id="XMLID_28_" class="st14" d="M75.3,244c-6.9,0-13.7,0-20.4,0c-1.7,0-3.4-0.1-5.1,0.1c-2.1,0.3-3.9,1.3-3.8,3.9
			c0.1,2.5,1.8,3.4,4.1,3.5c4.9,0.2,9.9,0.3,14.8,0.5c5.2,0.2,10,4.3,11.3,9.7c1.5,6.1-0.7,11.8-5.6,14.3c-1.4,0.7-3,1.2-4.6,1.2
			c-6.8,0.1-13.5,0-20.3,0.1c-1.8,0-2.7-0.5-3.1-2.4c-0.7-2.8-1.6-5.5-2.3-7.7c3.3,0.4,6.5,1,9.8,1.1c5.6,0.2,11.3,0,16.9,0
			c2.2,0,4.3-0.3,4.4-3c0.1-2.7-2.1-3.6-4.3-3.7c-4.2-0.2-8.5-0.1-12.7-0.1c-7,0-12.4-4.8-13.4-11.9c-0.9-6.3,2.6-12.7,8.4-15.4
			c0.9-0.4,1.9-0.5,2.9-0.5c3-0.1,6-0.1,9.1,0c4.1,0.1,8.3,0.2,11.8-3.5C73.9,235.1,74.6,239.4,75.3,244z"/>
		
			<linearGradient id="XMLID_181_" gradientUnits="userSpaceOnUse" x1="98.779" y1="401.9589" x2="98.779" y2="486.4967" gradientTransform="matrix(1 0 0 -1 0 707.6627)">
			<stop  offset="0" style="stop-color:#BB872C"/>
			<stop  offset="0.4944" style="stop-color:#F5BD17"/>
			<stop  offset="1" style="stop-color:#BB872C"/>
		</linearGradient>
		<path id="XMLID_27_" class="st15" d="M80.7,242.8c0.6-3.4,1.1-6.4,1.6-9.4c10.7-1.9,21.9,2.3,32.4-3.2c0.6,3.9,1.3,8,2.1,12.5
			c-5.2,0-10.2,0-15.8,0c0,1.5,0,2.6,0,3.8c0,13.4,0,26.8,0,40.2c0,0.7,0.1,1.4,0,2.1c-0.2,0.7-0.6,1.3-0.9,1.9
			c-0.4-0.6-1-1.2-1-1.8c-0.2-2.7-0.2-5.4-0.3-8.2c-0.1-2.3-0.3-4.6-0.7-6.9c-0.2-1.3-0.5-2.8-1.4-3.6c-3.2-3-2.8-6.8-2.8-10.6
			c0.1-4.5-0.1-9.1,0.1-13.6c0.1-2.4-0.5-3.5-3.1-3.3C87.6,243,84.3,242.8,80.7,242.8z"/>
		
			<linearGradient id="XMLID_182_" gradientUnits="userSpaceOnUse" x1="186.692" y1="401.9589" x2="186.692" y2="486.4967" gradientTransform="matrix(1 0 0 -1 0 707.6627)">
			<stop  offset="0" style="stop-color:#BB872C"/>
			<stop  offset="0.4944" style="stop-color:#F5BD17"/>
			<stop  offset="1" style="stop-color:#BB872C"/>
		</linearGradient>
		<path id="XMLID_26_" class="st16" d="M185.2,259.2c0.5-2.9,0.9-5.3,1.3-7.7c3-0.3,5.8-0.4,8.5-0.9c2.5-0.5,4.7-1.7,4.6-4.7
			c0-2.9-2.1-4.2-4.5-4.5c-5.1-0.5-10.2-0.7-15.8-1c0,5.4,0.1,10.3,0,15.2c-0.1,1.9-0.3,3.8-1,5.6c-2.7,6.8-2.9,14-3.1,21.1
			c-0.1,2,0,4,0,6.2c-1.2,0.1-2,0.1-3.2,0.2c0-1.2,0-2.2,0-3.2c0-13.9,0-27.8,0-41.7c0-1.8,0.3-3.8-2.9-3c0.4-3.3,0.6-6.2,1.1-9.1
			c0.1-0.6,1.2-1.5,1.8-1.4c7.5,0.4,15,0.7,22.4,1.7c5.5,0.7,8.6,4.5,9.4,10c0.3,1.7,0.5,3.4,0.4,5.1c-0.3,8.2-4,11.9-12.2,12.1
			C190,259.2,187.8,259.2,185.2,259.2z"/>
		
			<linearGradient id="XMLID_183_" gradientUnits="userSpaceOnUse" x1="225.8132" y1="401.9589" x2="225.8132" y2="486.4967" gradientTransform="matrix(1 0 0 -1 0 707.6627)">
			<stop  offset="0" style="stop-color:#BB872C"/>
			<stop  offset="0.4944" style="stop-color:#F5BD17"/>
			<stop  offset="1" style="stop-color:#BB872C"/>
		</linearGradient>
		<path id="XMLID_25_" class="st17" d="M215.8,240.5c-0.2-1-0.8-2.1-0.6-3.1c1.1-7.1,1.1-7.1,8.2-7.1c4.5,0,9,0,13.9,0
			c-0.1,1.3,0,2.4-0.3,3.4c-1.4,4.4-0.5,8.4,1.2,12.5c2.9,7.3,5.5,14.7,8,22.2c0.4,1.2,0,2.8-0.3,4.1c-1,4.8-2.1,9.6-3.3,14.3
			c-0.2,0.9-0.9,1.7-1.3,2.5c-0.3-0.8-1-1.7-0.9-2.5c1.5-16.4-5.5-30.7-11.3-45.2c-0.3-0.8-1.8-1.6-2.7-1.6c-0.9,0-2.2,0.8-2.6,1.6
			c-1.6,3.7-2.8,7.5-4.4,11.7c4.3,0,8.2,0,12.4,0c-0.5,2.9-1,5.5-1.6,8.5c-3.7,0-7.4,0.1-11,0c-1.9-0.1-2.9,0.6-3.6,2.4
			c-1.2,3.2-2.6,6.3-4,9.5c-2.1,0-4.1,0-6.4,0c3.9-11.1,7.8-22,11.7-32.9C216.5,240.7,216.1,240.6,215.8,240.5z"/>
		
			<linearGradient id="XMLID_184_" gradientUnits="userSpaceOnUse" x1="143.079" y1="401.9589" x2="143.079" y2="486.4967" gradientTransform="matrix(1 0 0 -1 0 707.6627)">
			<stop  offset="0" style="stop-color:#BB872C"/>
			<stop  offset="0.4944" style="stop-color:#F5BD17"/>
			<stop  offset="1" style="stop-color:#BB872C"/>
		</linearGradient>
		<path id="XMLID_24_" class="st18" d="M163.6,230.3H152l-2.1,11.1l3.3-0.5c0.5,4.1,2,8.2,2.1,12.3c0.3,8.3-3.4,11.9-10.8,11.7
			c-7.1-0.2-10.5-3.7-10.4-11.5c0.1-4.4,0.3-8.8,0.5-13.2h0.1l1.5-9.4h-1.1l0,0c-3,0-5.9,0-9.6,0l0,0h-0.9l-2.1,11.1l3.7-0.5
			c0.4,6.4,0.9,12.7,1.3,18.9c0.8,10.1,6.3,15,17.1,14.9c10.5,0,16.7-5.1,17.2-14.9c0.3-6.8,0.2-13.7,0.2-20.7h0.1L163.6,230.3z"/>
	</g>
	<path id="XMLID_22_" class="st0" d="M148,225.2l-2.1-1.5c0,0,2.5-4-1.3-13.8c-4.2-11-0.2-27.7,0-28.4l2.5,0.6c0,0.2-4,16.6,0,26.9
		C151.4,220.3,148.1,225,148,225.2z"/>
	<g id="XMLID_14_">
		
			<linearGradient id="XMLID_185_" gradientUnits="userSpaceOnUse" x1="114.2013" y1="569.4363" x2="172.5273" y2="569.4363" gradientTransform="matrix(1 0 0 -1 0 707.6627)">
			<stop  offset="0" style="stop-color:#BB872C"/>
			<stop  offset="0.4944" style="stop-color:#F5BD17"/>
			<stop  offset="1" style="stop-color:#BB872C"/>
		</linearGradient>
		<path id="XMLID_21_" class="st19" d="M143.3,74c0.9,2.6,1.8,5.4,2.9,8.1c2.9,7,7.5,13.2,11.9,19.6c4.3,6.1,8.5,12.2,11.4,18.9
			c4.5,10.6,3.9,21-1.5,31.1c-3.7,7-8.2,13.7-12.5,20.5c-4.8,7.7-9,15.5-10.3,24.2c-0.3,2-0.4,3.9-0.9,6c-0.7-1.8-1.4-3.6-2-5.4
			c-2.5-8.3-1.7-16.4,2.3-24.1c3.1-6,7-11.7,10.5-17.6c2.8-4.7,5.3-9.5,6.5-14.7c1.5-6.6,0.5-12.9-2.5-19c-3-6.3-7.1-12-11.2-17.7
			c-1.5-2.1-3-4.2-4.6-6.5c-1,1.4-1.9,2.8-2.9,4.1c-4,5.3-8.2,10.6-12,16c-4.9,6.9-8.1,14.2-7.6,22.3c0.3,5.3,2.1,10.3,4.1,15.3
			c2.1,5.2,4.2,10.5,6.3,15.8c0.1,0.2,0.1,0.5,0.3,1.1c-2.4-3.9-4.7-7.5-7-11.1c-3.1-4.9-6.1-9.9-8.1-15.2c-3.5-9.1-2.6-18,1.6-26.8
			c3-6.4,7.2-12.3,11.3-18.2c4.2-6,8.5-12,11.2-18.7C141.5,79.3,142.4,76.6,143.3,74z"/>
		
			<linearGradient id="XMLID_186_" gradientUnits="userSpaceOnUse" x1="158.2842" y1="546.4363" x2="225.7759" y2="546.4363" gradientTransform="matrix(1 0 0 -1 0 707.6627)">
			<stop  offset="0" style="stop-color:#BB872C"/>
			<stop  offset="0.4944" style="stop-color:#F5BD17"/>
			<stop  offset="1" style="stop-color:#BB872C"/>
		</linearGradient>
		<path id="XMLID_20_" class="st20" d="M222.5,130.2c2.5,5.9,3.8,11.9,3.1,18.2c-0.6,5.7-2.6,11.1-6.3,15.9
			c-6.3,8.4-15.2,14-26.9,15.8c-3.5,0.5-7.2,0.1-10.8,0c17-1.1,25.8-10,31.6-22.4c-0.5,0.1-0.6,0.1-0.7,0.2
			c-5.5,5.5-12.9,9-20.3,12.5c-6.6,3.1-13.2,6.1-19.4,9.6c-5.6,3-10.1,7-13.7,11.7c-0.2,0.2-0.4,0.4-0.7,0.5c1.3-3.1,3.2-6,5.5-8.7
			c5.9-6.9,13.5-12.3,21.5-17.4c7-4.5,14.1-8.8,20.8-13.6C214.7,146.5,219.9,139.8,222.5,130.2z"/>
		
			<linearGradient id="XMLID_187_" gradientUnits="userSpaceOnUse" x1="60.8998" y1="546.3864" x2="128.229" y2="546.3864" gradientTransform="matrix(1 0 0 -1 0 707.6627)">
			<stop  offset="0" style="stop-color:#BB872C"/>
			<stop  offset="0.4944" style="stop-color:#F5BD17"/>
			<stop  offset="1" style="stop-color:#BB872C"/>
		</linearGradient>
		<path id="XMLID_19_" class="st21" d="M105,180.2c-6.8,1-13.5,0.3-19.7-2.3C70.9,172,63.1,162.2,61.1,149c-0.9-5.8,1-15,3.1-18.9
			c0.6,1.9,1.1,3.7,1.8,5.4c2.8,6.8,7.8,12.5,14.3,17.1c6.8,4.8,14,9.2,21,13.7c7.5,4.8,14.7,9.8,20.4,16.1c2.8,3,5.1,6.3,6.5,10
			c-0.3-0.4-0.6-0.7-0.9-1.1c-0.3-0.4-0.6-0.8-0.9-1.1c-5.5-6.3-12.7-10.8-20.7-14.6c-7-3.3-14.2-6.4-21-10c-4-2.1-7.4-5-10.8-7.3
			c0.1,2.7,6.1,11,11.3,15C90.7,177.5,97.3,180,105,180.2z"/>
		
			<linearGradient id="XMLID_188_" gradientUnits="userSpaceOnUse" x1="95.5496" y1="558.9363" x2="135.0576" y2="558.9363" gradientTransform="matrix(1 0 0 -1 0 707.6627)">
			<stop  offset="0" style="stop-color:#BB872C"/>
			<stop  offset="0.4944" style="stop-color:#F5BD17"/>
			<stop  offset="1" style="stop-color:#BB872C"/>
		</linearGradient>
		<path id="XMLID_18_" class="st22" d="M117.3,105.3c-3.4,4.4-6.3,8.9-8.2,13.8c-2.7,6.9-3.3,13.9-2,21c1.8,9.2,7.1,17.1,12.6,25.1
			c4.1,5.9,8.1,11.9,11.8,18c1.6,2.7,2.4,5.8,3.6,8.8c-0.2,0-0.3,0.1-0.5,0.1c-0.9-1.6-1.7-3.2-2.7-4.7c-3.7-6-9.2-10.8-14.5-15.8
			c-4.8-4.5-9.8-9-14-13.9c-6.4-7.5-9-16.1-7.3-25.3c1.8-9.8,8-17.5,16.7-24c1.3-1,2.7-1.9,4.1-2.8
			C116.9,105.5,117.1,105.4,117.3,105.3z"/>
		
			<linearGradient id="XMLID_189_" gradientUnits="userSpaceOnUse" x1="151.5596" y1="558.7363" x2="191.0609" y2="558.7363" gradientTransform="matrix(1 0 0 -1 0 707.6627)">
			<stop  offset="0" style="stop-color:#BB872C"/>
			<stop  offset="0.4944" style="stop-color:#F5BD17"/>
			<stop  offset="1" style="stop-color:#BB872C"/>
		</linearGradient>
		<path id="XMLID_17_" class="st23" d="M169.2,105.5c11.1,6.8,19.2,15.3,21.4,26.9c1.6,8.4-0.7,16.3-5.9,23.6
			c-3.7,5.2-8.6,9.5-13.4,13.9c-4.5,4.1-8.9,8.2-12.9,12.6c-2.6,2.9-4.4,6.3-6.8,9.8c1-2.8,1.8-5.3,2.8-7.7
			c2.7-6,6.6-11.4,10.6-16.8c4.4-6.1,9-12.2,11.9-19c3.1-7.3,4.3-14.8,2.9-22.5c-1.4-7.5-5-14.2-10.1-20.4
			C169.4,105.8,169.3,105.7,169.2,105.5z"/>
		
			<linearGradient id="XMLID_190_" gradientUnits="userSpaceOnUse" x1="176.729" y1="517.3223" x2="219.729" y2="517.3223" gradientTransform="matrix(1 0 0 -1 0 707.6627)">
			<stop  offset="0" style="stop-color:#BB872C"/>
			<stop  offset="0.4944" style="stop-color:#F5BD17"/>
			<stop  offset="1" style="stop-color:#BB872C"/>
		</linearGradient>
		<path id="XMLID_16_" class="st24" d="M176.7,186c12-4.4,34-1.1,43,10.5c-4.2-2.2-8.2-1-12.2-0.6c-4.8,0.4-8.9-0.7-12.6-3.2
			c-2-1.4-4.1-2.7-6.3-4C185.1,186.5,181.1,185.6,176.7,186z"/>
		
			<linearGradient id="XMLID_191_" gradientUnits="userSpaceOnUse" x1="67.2805" y1="517.4274" x2="109.8805" y2="517.4274" gradientTransform="matrix(1 0 0 -1 0 707.6627)">
			<stop  offset="0" style="stop-color:#BB872C"/>
			<stop  offset="0.4944" style="stop-color:#F5BD17"/>
			<stop  offset="1" style="stop-color:#BB872C"/>
		</linearGradient>
		<path id="XMLID_15_" class="st25" d="M109.9,186c-7.1-0.9-12,2.5-17,5.7c-2.2,1.4-4.6,2.6-7.1,3.6c-2.9,1.1-6.2,0.7-9.3,0.3
			s-6.2-0.7-9.2,0.7C74,186.2,95.8,181.1,109.9,186z"/>
	</g>
	<g id="XMLID_3_">
		
			<linearGradient id="XMLID_192_" gradientUnits="userSpaceOnUse" x1="1667.8724" y1="1064.9" x2="1692.1" y2="1047.2109" gradientTransform="matrix(0 -1 -1 0 1203.8142 1733.2454)">
			<stop  offset="0" style="stop-color:#BB872C"/>
			<stop  offset="0.5394" style="stop-color:#F5BD17"/>
		</linearGradient>
		<circle id="XMLID_13_" class="st26" cx="143.3" cy="59.3" r="9.3"/>
		<path id="XMLID_10_" class="st0" d="M143.3,66.3c-3.8,0-7-3.1-7-7s3.1-7,7-7s7,3.1,7,7S147.2,66.3,143.3,66.3z M143.3,53.1
			c-3.4,0-6.2,2.8-6.2,6.2s2.8,6.2,6.2,6.2s6.2-2.8,6.2-6.2S146.7,53.1,143.3,53.1z"/>
		<path id="XMLID_7_" class="st0" d="M143.3,64.3c-2.8,0-5-2.3-5-5c0-2.8,2.3-5,5-5c2.8,0,5,2.3,5,5
			C148.4,62.1,146.1,64.3,143.3,64.3z M143.3,55.1c-2.3,0-4.2,1.9-4.2,4.2c0,2.3,1.9,4.2,4.2,4.2c2.3,0,4.2-1.9,4.2-4.2
			C147.6,57,145.7,55.1,143.3,55.1z"/>
		<path id="XMLID_4_" class="st0" d="M143.3,62.6c-1.8,0-3.3-1.5-3.3-3.3s1.5-3.3,3.3-3.3s3.3,1.5,3.3,3.3S145.1,62.6,143.3,62.6z
			 M143.3,56.8c-1.4,0-2.5,1.1-2.5,2.5s1.1,2.5,2.5,2.5s2.5-1.1,2.5-2.5S144.7,56.8,143.3,56.8z"/>
	</g>
</g>
</svg>
