<?xml version="1.0" encoding="utf-8"?>
<!-- Generator: Adobe Illustrator 26.3.0, SVG Export Plug-In . SVG Version: 6.00 Build 0)  -->
<svg version="1.1" id="Layer_1" xmlns="http://www.w3.org/2000/svg" xmlns:xlink="http://www.w3.org/1999/xlink" x="0px" y="0px"
	 viewBox="0 0 321.2 409.9" style="enable-background:new 0 0 321.2 409.9;" xml:space="preserve">
<style type="text/css">
	.st0{fill:url(#SVGID_1_);}
	.st1{fill:url(#SVGID_00000014634144407104108270000008552049004048403339_);}
	.st2{fill:url(#SVGID_00000146491350908418675880000006647194891270054579_);}
	.st3{fill:url(#SVGID_00000071529786861324842210000017152983003617354416_);}
	.st4{fill:url(#SVGID_00000090285712443100002680000014535466523741517450_);}
	.st5{fill:url(#SVGID_00000173880474941410682180000012017466804600530614_);}
	.st6{fill:url(#SVGID_00000018206836355354216410000017325531740802209468_);}
	.st7{fill:url(#SVGID_00000040537296219362071620000014516859690080346548_);}
	.st8{fill:url(#SVGID_00000011016225028907558120000002681671002855132576_);}
	.st9{fill:url(#SVGID_00000111900112829086918030000014085128750066453130_);}
	.st10{fill:url(#SVGID_00000150799469111881600870000012630661886429181848_);}
	.st11{fill:url(#SVGID_00000070819152735821143510000011862146481616366509_);}
	.st12{fill:url(#SVGID_00000103240354233087317980000008066675974579340716_);}
	.st13{fill:#A72428;}
	.st14{fill:none;}
	.st15{fill:url(#SVGID_00000153707329690262569280000013131659637700540552_);}
	.st16{fill:url(#SVGID_00000116954150860691065540000011498811077063353249_);}
	.st17{fill:url(#SVGID_00000167381601596061997540000013432824162396678565_);}
	.st18{fill:url(#SVGID_00000073701638358237634090000000788867365745631652_);}
	.st19{fill:url(#SVGID_00000101098291401727028750000013623324904496086179_);}
	.st20{fill:url(#SVGID_00000005961723418764214040000005069431017047151275_);}
	.st21{fill:url(#SVGID_00000168075225728118074090000003078298214903285633_);}
	.st22{fill:url(#SVGID_00000078019809988380228380000009628163818718034355_);}
	.st23{fill:url(#SVGID_00000090990015585688102770000013771344154441492388_);}
	.st24{fill:url(#SVGID_00000088814006740593035530000010036669705654281116_);}
	.st25{fill:url(#SVGID_00000162325287579034791160000007870412860699225772_);}
	.st26{fill:url(#SVGID_00000118393427138425524560000007428961281770211260_);}
	.st27{fill:url(#SVGID_00000034052015641111026120000014525784349004333212_);}
	.st28{fill:url(#SVGID_00000122699353267875893370000005965657349893677967_);}
	.st29{fill:url(#SVGID_00000153706714871154731090000009547227746627707797_);}
	.st30{fill:url(#SVGID_00000145767230782269926410000007109761777390099842_);}
	.st31{fill:url(#SVGID_00000149341342021447074710000005963624373674017412_);}
	.st32{fill:url(#SVGID_00000140709341930387247690000001390714115358977948_);}
	.st33{fill:url(#SVGID_00000166645007828674070940000006789877817956365719_);}
	.st34{fill:url(#SVGID_00000081624843955370530390000012228092038492246663_);}
	.st35{fill:url(#SVGID_00000079448396438588778960000002100684795331180442_);}
	.st36{fill:url(#SVGID_00000071549658462313329040000006459601868586145411_);}
	.st37{fill:url(#SVGID_00000166640470029912942830000001532561739819135923_);}
	.st38{fill:url(#SVGID_00000078013334791074496000000008787500438161028540_);}
	.st39{fill:url(#SVGID_00000170267921993378044140000004558048593768796310_);}
	.st40{fill:url(#SVGID_00000053525031496912991240000006987514375098593421_);}
	.st41{fill:url(#SVGID_00000066490303667590669890000011894175965355125634_);}
	.st42{fill:url(#SVGID_00000056429774041483020230000015166694057332796335_);}
	.st43{fill:url(#SVGID_00000134960686490096157680000011997784243685376163_);}
	.st44{fill:url(#SVGID_00000056408607674611566520000005839508566002703761_);}
	.st45{fill:url(#SVGID_00000157304491965847964800000005593221913198114212_);}
	.st46{fill:url(#SVGID_00000121991993637251674780000013131302435881479055_);}
	.st47{fill:url(#SVGID_00000132078149768852792400000015216643211527436961_);}
	.st48{fill:url(#SVGID_00000164483375584022159220000002062219409021940120_);}
	.st49{fill:url(#SVGID_00000065785786232552706610000016492038487998646188_);}
	.st50{fill:url(#SVGID_00000156589724188622705790000003617594068318120587_);}
	.st51{fill:url(#SVGID_00000040546466463899057400000000911416250985140358_);}
	.st52{fill:url(#SVGID_00000063602078367847809850000014338497048233021878_);}
	.st53{fill:#FFFFFF;}
	.st54{fill:url(#SVGID_00000014617561819162292000000007665803499340932281_);}
	.st55{fill:url(#SVGID_00000105388799448353221200000008976908059023278778_);}
	.st56{fill:url(#SVGID_00000075134685153450137900000011450477440975901868_);}
	.st57{fill:url(#SVGID_00000015317400026589753240000011970862948823921850_);}
	.st58{fill:url(#SVGID_00000000186151330453858080000001872257654735200922_);}
	.st59{fill:url(#SVGID_00000023249454316913743370000012098188984682426248_);}
	.st60{fill:url(#SVGID_00000090290596790860456680000007244547073236629417_);}
	.st61{fill:url(#SVGID_00000094580739687722363900000004094012539746003637_);}
	.st62{fill:url(#SVGID_00000088825743330437686760000003760894920091480480_);}
	.st63{fill:url(#SVGID_00000064317220634373229880000008109028507178159276_);}
	.st64{fill:url(#SVGID_00000028293932810674658510000007177755577177299111_);}
	.st65{fill:url(#SVGID_00000054967652644762159720000010047497748283779224_);}
	.st66{fill:url(#SVGID_00000135658854711933541950000004311242261798033071_);}
	.st67{fill:url(#SVGID_00000125595503568851581580000013555104186144094872_);}
	.st68{fill:url(#SVGID_00000097471355219177136750000005261212657999056524_);}
	.st69{fill:url(#SVGID_00000089553632797408762660000003292482009996925069_);}
	.st70{fill:url(#SVGID_00000119098923573433809060000011058370833857151929_);}
	.st71{fill:url(#SVGID_00000121274710430378504340000007993741446535660167_);}
	.st72{fill:url(#SVGID_00000112591612446233995910000012762054317638457481_);}
</style>
<g>
	<g>
		<g>
			<linearGradient id="SVGID_1_" gradientUnits="userSpaceOnUse" x1="54.3356" y1="381.9513" x2="64.9075" y2="381.9513">
				<stop  offset="0" style="stop-color:#B5842C"/>
				<stop  offset="0.4944" style="stop-color:#F5BB18"/>
				<stop  offset="1" style="stop-color:#B5842C"/>
			</linearGradient>
			<path class="st0" d="M63.4,382.4c0.5,0.4,0.8,0.8,1.1,1.3c0.3,0.5,0.4,1.1,0.4,1.7c0,0.8-0.2,1.5-0.6,2.1c-0.4,0.6-1,1.1-1.7,1.5
				c-0.7,0.4-1.6,0.5-2.6,0.5h-5.6v-15.1h5.4c1,0,1.9,0.2,2.6,0.5c0.7,0.3,1.3,0.8,1.6,1.4c0.4,0.6,0.5,1.2,0.5,2
				c0,0.9-0.2,1.6-0.7,2.2c-0.5,0.6-1.1,1-1.9,1.3C62.5,381.8,63,382,63.4,382.4z M56.3,380.9h3.3c0.9,0,1.6-0.2,2.1-0.7
				c0.5-0.4,0.8-1,0.8-1.8c0-0.8-0.3-1.4-0.8-1.8c-0.5-0.4-1.2-0.7-2.2-0.7h-3.3V380.9z M62.1,387.2c0.5-0.5,0.8-1.1,0.8-1.9
				c0-0.8-0.3-1.5-0.9-2c-0.6-0.5-1.4-0.7-2.3-0.7h-3.4v5.3h3.5C60.8,387.9,61.6,387.7,62.1,387.2z"/>
			
				<linearGradient id="SVGID_00000096030634413480233790000014848028655404367546_" gradientUnits="userSpaceOnUse" x1="69.943" y1="381.9404" x2="85.1387" y2="381.9404">
				<stop  offset="0" style="stop-color:#B5842C"/>
				<stop  offset="0.4944" style="stop-color:#F5BB18"/>
				<stop  offset="1" style="stop-color:#B5842C"/>
			</linearGradient>
			<path style="fill:url(#SVGID_00000096030634413480233790000014848028655404367546_);" d="M73.7,388.7c-1.2-0.7-2.1-1.6-2.7-2.8
				c-0.7-1.2-1-2.5-1-4c0-1.5,0.3-2.8,1-4c0.7-1.2,1.6-2.1,2.7-2.8c1.2-0.7,2.4-1,3.8-1c1.4,0,2.7,0.3,3.9,1
				c1.2,0.7,2.1,1.6,2.7,2.7c0.7,1.2,1,2.5,1,4c0,1.5-0.3,2.8-1,4c-0.7,1.2-1.6,2.1-2.7,2.7c-1.2,0.7-2.4,1-3.9,1
				C76.1,389.7,74.9,389.3,73.7,388.7z M80.4,387.2c0.8-0.5,1.5-1.2,2-2.1c0.5-0.9,0.7-2,0.7-3.2c0-1.2-0.2-2.3-0.7-3.2
				c-0.5-0.9-1.1-1.6-2-2.1c-0.8-0.5-1.8-0.7-2.9-0.7c-1.1,0-2,0.2-2.9,0.7c-0.8,0.5-1.5,1.2-2,2.1c-0.5,0.9-0.7,2-0.7,3.2
				c0,1.2,0.2,2.3,0.7,3.2c0.5,0.9,1.2,1.6,2,2.1c0.8,0.5,1.8,0.7,2.9,0.7C78.6,388,79.5,387.7,80.4,387.2z"/>
			
				<linearGradient id="SVGID_00000078033772514472611770000002132274740275745467_" gradientUnits="userSpaceOnUse" x1="90.739" y1="382.0273" x2="102.1354" y2="382.0273">
				<stop  offset="0" style="stop-color:#B5842C"/>
				<stop  offset="0.4944" style="stop-color:#F5BB18"/>
				<stop  offset="1" style="stop-color:#B5842C"/>
			</linearGradient>
			<path style="fill:url(#SVGID_00000078033772514472611770000002132274740275745467_);" d="M92.7,374.4v9.6c0,1.3,0.3,2.3,1,3
				c0.7,0.7,1.6,1,2.7,1c1.2,0,2.1-0.3,2.7-1c0.7-0.7,1-1.6,1-3v-9.6h2v9.6c0,1.3-0.3,2.3-0.8,3.2c-0.5,0.9-1.2,1.5-2.1,1.9
				c-0.9,0.4-1.8,0.6-2.9,0.6s-2-0.2-2.9-0.6c-0.9-0.4-1.5-1.1-2-1.9c-0.5-0.9-0.7-1.9-0.7-3.2v-9.6H92.7z"/>
			
				<linearGradient id="SVGID_00000023966767356451248030000016767513141065267874_" gradientUnits="userSpaceOnUse" x1="107.5409" y1="381.9513" x2="117.7864" y2="381.9513">
				<stop  offset="0" style="stop-color:#B5842C"/>
				<stop  offset="0.4944" style="stop-color:#F5BB18"/>
				<stop  offset="1" style="stop-color:#B5842C"/>
			</linearGradient>
			<path style="fill:url(#SVGID_00000023966767356451248030000016767513141065267874_);" d="M117.8,374.4v1.6h-4.1v13.5h-2V376h-4.1
				v-1.6H117.8z"/>
			
				<linearGradient id="SVGID_00000066517867386073927840000003590542314327660425_" gradientUnits="userSpaceOnUse" x1="123.2569" y1="381.9513" x2="125.2322" y2="381.9513">
				<stop  offset="0" style="stop-color:#B5842C"/>
				<stop  offset="0.4944" style="stop-color:#F5BB18"/>
				<stop  offset="1" style="stop-color:#B5842C"/>
			</linearGradient>
			<path style="fill:url(#SVGID_00000066517867386073927840000003590542314327660425_);" d="M125.2,374.4v15.1h-2v-15.1H125.2z"/>
			
				<linearGradient id="SVGID_00000030479469627516874790000018371707791838017970_" gradientUnits="userSpaceOnUse" x1="130.8974" y1="383.2971" x2="146.3324" y2="383.2971">
				<stop  offset="0" style="stop-color:#B5842C"/>
				<stop  offset="0.4944" style="stop-color:#F5BB18"/>
				<stop  offset="1" style="stop-color:#B5842C"/>
			</linearGradient>
			<path style="fill:url(#SVGID_00000030479469627516874790000018371707791838017970_);" d="M143.8,392.4l-3-3
				c-0.7,0.2-1.5,0.3-2.3,0.3c-1.4,0-2.7-0.3-3.8-1c-1.2-0.7-2.1-1.6-2.7-2.8c-0.7-1.2-1-2.5-1-4c0-1.5,0.3-2.8,1-4
				c0.7-1.2,1.6-2.1,2.7-2.8c1.2-0.7,2.4-1,3.8-1c1.4,0,2.7,0.3,3.9,1c1.2,0.7,2.1,1.6,2.7,2.7c0.7,1.2,1,2.5,1,4
				c0,1.4-0.3,2.7-1,3.9s-1.5,2.1-2.6,2.7l3.8,3.8H143.8z M133.6,385.1c0.5,0.9,1.2,1.6,2,2.1c0.8,0.5,1.8,0.7,2.9,0.7
				s2-0.2,2.9-0.7c0.8-0.5,1.5-1.2,2-2.1c0.5-0.9,0.7-2,0.7-3.2c0-1.2-0.2-2.3-0.7-3.2c-0.5-0.9-1.1-1.6-2-2.1
				c-0.8-0.5-1.8-0.7-2.9-0.7c-1.1,0-2,0.2-2.9,0.7c-0.8,0.5-1.5,1.2-2,2.1c-0.5,0.9-0.7,2-0.7,3.2
				C132.9,383.1,133.2,384.2,133.6,385.1z"/>
			
				<linearGradient id="SVGID_00000155825271010457474280000007391127185358742966_" gradientUnits="userSpaceOnUse" x1="151.737" y1="382.0273" x2="163.1342" y2="382.0273">
				<stop  offset="0" style="stop-color:#B5842C"/>
				<stop  offset="0.4944" style="stop-color:#F5BB18"/>
				<stop  offset="1" style="stop-color:#B5842C"/>
			</linearGradient>
			<path style="fill:url(#SVGID_00000155825271010457474280000007391127185358742966_);" d="M153.7,374.4v9.6c0,1.3,0.3,2.3,1,3
				c0.7,0.7,1.6,1,2.7,1c1.2,0,2.1-0.3,2.7-1c0.7-0.7,1-1.6,1-3v-9.6h2v9.6c0,1.3-0.3,2.3-0.8,3.2c-0.5,0.9-1.2,1.5-2.1,1.9
				c-0.9,0.4-1.8,0.6-2.9,0.6c-1.1,0-2-0.2-2.9-0.6c-0.9-0.4-1.5-1.1-2-1.9s-0.7-1.9-0.7-3.2v-9.6H153.7z"/>
			
				<linearGradient id="SVGID_00000083055273695588060220000006201145194325793197_" gradientUnits="userSpaceOnUse" x1="169.4727" y1="381.9404" x2="177.6131" y2="381.9404">
				<stop  offset="0" style="stop-color:#B5842C"/>
				<stop  offset="0.4944" style="stop-color:#F5BB18"/>
				<stop  offset="1" style="stop-color:#B5842C"/>
			</linearGradient>
			<path style="fill:url(#SVGID_00000083055273695588060220000006201145194325793197_);" d="M171.4,376v5.1h5.5v1.6h-5.5v5.2h6.2
				v1.6h-8.1v-15.2h8.1v1.6H171.4z"/>
			
				<linearGradient id="SVGID_00000036973954612152994190000008021737135675128498_" gradientUnits="userSpaceOnUse" x1="192.4823" y1="381.9513" x2="204.1393" y2="381.9513">
				<stop  offset="0" style="stop-color:#B5842C"/>
				<stop  offset="0.4944" style="stop-color:#F5BB18"/>
				<stop  offset="1" style="stop-color:#B5842C"/>
			</linearGradient>
			<path style="fill:url(#SVGID_00000036973954612152994190000008021737135675128498_);" d="M204.1,374.4v15.1h-2v-6.9h-7.7v6.9h-2
				v-15.1h2v6.6h7.7v-6.6H204.1z"/>
			
				<linearGradient id="SVGID_00000117650211198339311780000008618515944869632190_" gradientUnits="userSpaceOnUse" x1="209.8054" y1="381.9404" x2="225.0011" y2="381.9404">
				<stop  offset="0" style="stop-color:#B5842C"/>
				<stop  offset="0.4944" style="stop-color:#F5BB18"/>
				<stop  offset="1" style="stop-color:#B5842C"/>
			</linearGradient>
			<path style="fill:url(#SVGID_00000117650211198339311780000008618515944869632190_);" d="M213.6,388.7c-1.2-0.7-2.1-1.6-2.7-2.8
				c-0.7-1.2-1-2.5-1-4c0-1.5,0.3-2.8,1-4c0.7-1.2,1.6-2.1,2.7-2.8c1.2-0.7,2.4-1,3.8-1c1.4,0,2.7,0.3,3.9,1
				c1.2,0.7,2.1,1.6,2.7,2.7c0.7,1.2,1,2.5,1,4c0,1.5-0.3,2.8-1,4c-0.7,1.2-1.6,2.1-2.7,2.7c-1.2,0.7-2.4,1-3.9,1
				C216,389.7,214.7,389.3,213.6,388.7z M220.3,387.2c0.8-0.5,1.5-1.2,2-2.1c0.5-0.9,0.7-2,0.7-3.2c0-1.2-0.2-2.3-0.7-3.2
				c-0.5-0.9-1.1-1.6-2-2.1c-0.8-0.5-1.8-0.7-2.9-0.7c-1.1,0-2,0.2-2.9,0.7c-0.8,0.5-1.5,1.2-2,2.1c-0.5,0.9-0.7,2-0.7,3.2
				c0,1.2,0.2,2.3,0.7,3.2c0.5,0.9,1.2,1.6,2,2.1c0.8,0.5,1.8,0.7,2.9,0.7C218.5,388,219.4,387.7,220.3,387.2z"/>
			
				<linearGradient id="SVGID_00000141440995771473170080000012281474331296551046_" gradientUnits="userSpaceOnUse" x1="229.7112" y1="381.9513" x2="239.9566" y2="381.9513">
				<stop  offset="0" style="stop-color:#B5842C"/>
				<stop  offset="0.4944" style="stop-color:#F5BB18"/>
				<stop  offset="1" style="stop-color:#B5842C"/>
			</linearGradient>
			<path style="fill:url(#SVGID_00000141440995771473170080000012281474331296551046_);" d="M240,374.4v1.6h-4.1v13.5h-2V376h-4.1
				v-1.6H240z"/>
			
				<linearGradient id="SVGID_00000099625183023297202600000008205873630780145801_" gradientUnits="userSpaceOnUse" x1="245.4271" y1="381.9404" x2="253.5675" y2="381.9404">
				<stop  offset="0" style="stop-color:#B5842C"/>
				<stop  offset="0.4944" style="stop-color:#F5BB18"/>
				<stop  offset="1" style="stop-color:#B5842C"/>
			</linearGradient>
			<path style="fill:url(#SVGID_00000099625183023297202600000008205873630780145801_);" d="M247.4,376v5.1h5.5v1.6h-5.5v5.2h6.2
				v1.6h-8.1v-15.2h8.1v1.6H247.4z"/>
			
				<linearGradient id="SVGID_00000099625948667407017600000001779470299609599108_" gradientUnits="userSpaceOnUse" x1="259.6018" y1="381.9513" x2="266.8732" y2="381.9513">
				<stop  offset="0" style="stop-color:#B5842C"/>
				<stop  offset="0.4944" style="stop-color:#F5BB18"/>
				<stop  offset="1" style="stop-color:#B5842C"/>
			</linearGradient>
			<path style="fill:url(#SVGID_00000099625948667407017600000001779470299609599108_);" d="M261.6,387.9h5.3v1.6h-7.3v-15.1h2
				V387.9z"/>
		</g>
		<g>
			<path class="st13" d="M73.5,288.6c2.9,0,5.5,0.7,8,2c2.5,1.3,4.5,3.2,6.1,5.5c0.9,1.4,1.6,2.9,2.1,4.4c0.5,1.6,0.8,3.2,0.8,5v8.6
				H79.9h-2.9v-1.3c0.9,0,1.6-0.7,2.1-2.2c0.5-1.5,0.8-3.2,0.9-5.2c-0.1-1.9-0.9-3.4-2.3-4.7c-1.4-1.3-3.1-1.9-5.1-1.9
				c-2.1,0-3.8,0.7-5.2,2c-1.4,1.3-2.1,2.9-2.1,4.8v5c0,2,0.8,3.5,2.5,4.7L84,327.4c2.3,1.8,3.9,4.1,5,6.9c1.1,2.8,1.6,5.3,1.6,7.6
				v4.6c0,1.7-0.3,3.3-0.8,4.9c-0.5,1.6-1.3,3.1-2.1,4.5c-1.6,2.3-3.6,4.1-6.1,5.4s-5.2,2-8,2c-6.4,0.2-11.2-1.5-14.5-5.2
				c-1.5-1.6-2.6-3.3-3.5-5.3c-0.8-2-1.3-4.1-1.3-6.3v-8.7h13.6v1.3c-0.8,0-1.5,0.8-2,2.3c-0.5,1.5-0.8,3.3-0.8,5.2
				c0.1,1.8,0.9,3.3,2.3,4.6c1.4,1.3,3.1,1.9,5.1,1.9c2,0,3.7-0.6,5.2-1.9c1.5-1.3,2.2-2.9,2.2-4.7v-4.6c0-1.1-0.2-2.2-0.7-3.3
				c-0.5-1.1-1-1.9-1.6-2.4l-16.4-12.2c-2.2-1.7-3.8-3.7-5-6c-1.2-2.3-1.8-4.7-1.8-7.3v-5c0-2.3,0.4-4.4,1.3-6.4
				c0.8-2,2-3.8,3.5-5.4C62.3,290.1,67.1,288.4,73.5,288.6z"/>
			<path class="st13" d="M104.5,299.6c-1,0.1-2,0.3-3.1,0.5c-1.1,0.2-2,0.5-2.9,0.9c-0.8,0.4-1.3,0.8-1.3,1.2h-1.3v-2.8l2.1-10.5
				h33.2l2.1,10.5v2.8h-1.3c0-0.4-0.4-0.8-1.3-1.2c-0.8-0.4-1.8-0.7-2.9-0.9c-1.1-0.2-2.1-0.4-3.1-0.5c-1-0.1-1.6-0.2-1.9-0.2h-2.9
				v53c0,0.5,0.1,1.2,0.2,2.2c0.1,1,0.3,2,0.5,3c0.2,1,0.5,1.9,0.8,2.7c0.3,0.8,0.8,1.2,1.3,1.2v1.3h-16.1v-1.3
				c0.4,0,0.8-0.4,1.1-1.1c0.3-0.7,0.6-1.6,0.9-2.6c0.2-1,0.4-2,0.6-2.9c0.1-1,0.2-1.7,0.2-2.2v-53.2h-2.9
				C106.1,299.3,105.5,299.4,104.5,299.6z"/>
			<path class="st13" d="M179,289v1.2c-0.5,0-0.9,0.4-1.3,1.3c-0.3,0.8-0.6,1.8-0.8,2.9c-0.2,1.1-0.4,2.1-0.5,3.2
				c-0.1,1-0.2,1.7-0.2,2v41.7c0,2,0.1,3.6,0.4,4.8c0.2,1.2,0.5,2.2,0.7,2.9c0.3,0.8,0.6,1.3,1,1.6c-0.3,0.2-0.6,0.4-1,0.7
				c-0.6,0.5-1.2,1.3-1.8,2.4c-1,2.7-2.6,4.8-4.9,6.6c-2.3,1.7-4.9,2.6-7.9,2.6h-8.3c-2.9,0-5.6-0.9-7.9-2.6c-2.3-1.7-4-3.9-4.9-6.6
				c-0.5-1-1.1-1.8-1.9-2.4c-0.4-0.3-0.7-0.5-0.9-0.7c0.3-0.5,0.6-1.2,1-2.2c0.2-0.8,0.4-1.8,0.7-3.2c0.2-1.3,0.4-3,0.4-5.1v-40.6
				c0-0.3-0.1-1-0.1-2c-0.1-1-0.3-2.1-0.5-3.2c-0.2-1.1-0.5-2-0.9-2.9c-0.3-0.8-0.8-1.3-1.3-1.3V289H154v1.2c-0.5,0-0.9,0.4-1.3,1.3
				c-0.3,0.8-0.6,1.8-0.9,2.9c-0.2,1.1-0.4,2.1-0.5,3.2c-0.1,1-0.1,1.7-0.1,2v49.7c0,0.9,0.3,1.6,1,2.2c0.6,0.6,1.4,0.9,2.1,0.9h8.3
				c0.8,0,1.5-0.3,2.1-0.9c0.6-0.6,1-1.3,1-2.2v-49.7c0-0.3-0.1-1-0.1-2c-0.1-1-0.3-2.1-0.5-3.2c-0.2-1.1-0.5-2-0.9-2.9
				c-0.3-0.8-0.8-1.3-1.3-1.3V289H179z"/>
			<path class="st13" d="M205.7,289c2.6,0.2,5,0.9,7,2.1c1.8,1.1,3.4,2.7,4.9,4.9c1.5,2.2,2.3,5.3,2.3,9.4v10.5
				c0,6.6-1.8,11.6-5.4,15c-2,1.9-3.9,3-5.9,3.3c-2,0.3-3.2,0.5-3.8,0.5h-7.3v17.7c0,0.5,0.1,1.2,0.2,2.2c0.1,1,0.3,2,0.6,2.9
				c0.2,1,0.5,1.9,0.8,2.7c0.3,0.8,0.7,1.2,1.2,1.2v1.3h-16.1v-1.3c0.4,0,0.8-0.4,1.1-1.1c0.3-0.7,0.6-1.6,0.9-2.6
				c0.2-1,0.4-2,0.6-2.9c0.1-1,0.2-1.7,0.2-2.2v-53.1c0-0.3-0.1-0.9-0.1-1.9c-0.1-1-0.3-2-0.5-3.1c-0.2-1.1-0.5-2-0.9-2.9
				c-0.3-0.8-0.8-1.3-1.3-1.3V289H205.7z M209.5,305.4c0-2.3-0.5-3.8-1.6-4.5c-1.1-0.7-2-1.2-2.8-1.4h-7.5v24.8h7.7
				c0.3,0,0.7-0.1,1.2-0.3c0.5-0.2,1-0.6,1.4-1.2c0.4-0.6,0.8-1.4,1.2-2.5c0.3-1.1,0.5-2.6,0.5-4.4V305.4z"/>
			<path class="st13" d="M263.8,354.7c0.3,1.4,0.7,2.9,1.3,4.4c0.5,1.6,1.2,2.4,1.8,2.4v1.3h-16.1v-1.3c0.8,0,1.4-0.8,1.8-2.5
				c0.4-1.7,0.6-3.5,0.4-5.5c-0.1-0.2-0.1-0.5-0.1-0.8c0-0.3-0.1-0.8-0.1-1.3c-0.1-0.5-0.2-1-0.3-1.6h-14.3l-0.3,2.5
				c-0.1,0.3-0.2,1-0.2,2c-0.1,1-0.1,2.1,0,3.1c0,1,0.1,2,0.3,2.8c0.1,0.8,0.5,1.3,1,1.3v1.3h-15.2v-1.3c0.7,0,1.3-0.8,1.9-2.4
				c0.6-1.6,1-3,1.2-4.4l8.6-55.2c0-0.3,0-0.9,0.1-1.9c0-1,0-2,0-3.1c-0.1-1.1-0.2-2-0.4-2.9c-0.2-0.8-0.5-1.3-0.9-1.3V289h22.4v1.3
				c-0.5,0-0.8,0.4-1,1.1c-0.1,0.7-0.2,1.6-0.3,2.6c-0.1,1-0.1,2,0,2.9c0,1,0.1,1.7,0.1,2.2L263.8,354.7z M250.8,339.3l-5.5-36.3
				l-5.6,36.3H250.8z"/>
		</g>
	</g>
	<g>
		<path class="st14" d="M134.4,215.9c0.6-8.2,2.7-15.3,5.4-21.5c-3.6,2.7-7.8,5.2-12.7,7.1c-7.2,2.8-14.2,3.8-20.6,3.7
			c-9.2,18.7-5.5,37.1-5.1,38.9c1.7,0,18.6-0.8,33.9-12.2C134.4,227,134,221.6,134.4,215.9z"/>
		<path class="st14" d="M152.6,173.4h-2.4c-8.6,1.4-23.1,5.6-34.9,18.8c-2.7,3-4.9,6-6.7,9.1c5.3-0.1,10.9-1.1,16.8-3.4
			C141.2,191.8,149.2,179.9,152.6,173.4z"/>
		<path class="st14" d="M182.2,216.5c-1.4-21-13.4-34.6-19-40c-0.1,0.7-0.2,1.5-0.3,2.4c0.3,3.3,0.3,7.2-0.1,11.5
			c0.7,8.1,3.2,18,9.8,27.7c2.8,4.1,5.9,7.5,9.1,10.4C182.3,224.8,182.5,220.8,182.2,216.5z"/>
		<path class="st14" d="M148.5,218.2c6.6-9.7,9.1-19.6,9.8-27.7c-0.4-4.3-0.3-8.2-0.1-11.5c-0.1-0.9-0.2-1.7-0.3-2.4
			c-5.7,5.4-17.6,18.9-19,40c-0.3,4.3-0.1,8.3,0.4,12.1C142.7,225.7,145.8,222.3,148.5,218.2z"/>
		<path class="st14" d="M168.8,220.5c-4-5.9-6.6-11.9-8.2-17.7c-1.6,5.8-4.2,11.8-8.2,17.7c-3.6,5.3-7.7,9.7-12,13.2
			c4.7,20.2,18.8,32.3,20.2,33.5c1.4-1.2,15.5-13.3,20.2-33.5C176.5,230.2,172.4,225.8,168.8,220.5z"/>
		<path class="st14" d="M171,173.4h-2.4c3.4,6.4,11.4,18.4,27.1,24.5c5.9,2.3,11.5,3.2,16.8,3.4c-1.8-3.1-4-6.2-6.7-9.1
			C194.1,179.1,179.6,174.8,171,173.4z"/>
		<path class="st14" d="M194.1,201.5c-4.9-1.9-9.1-4.4-12.7-7.1c2.8,6.2,4.8,13.3,5.4,21.5c0.4,5.7,0,11.1-0.9,16.1
			c15.3,11.4,32.1,12.1,33.9,12.2c0.4-1.8,4.1-20.2-5.1-38.9C208.3,205.4,201.3,204.4,194.1,201.5z"/>
		
			<linearGradient id="SVGID_00000062192560750500318350000001583265550345809336_" gradientUnits="userSpaceOnUse" x1="146.1347" y1="228.3376" x2="146.1347" y2="44.7908">
			<stop  offset="0" style="stop-color:#B5842C"/>
			<stop  offset="0.4944" style="stop-color:#F5BB18"/>
			<stop  offset="1" style="stop-color:#B5842C"/>
		</linearGradient>
		<path style="fill:url(#SVGID_00000062192560750500318350000001583265550345809336_);" d="M139,216.5c1.4-21,13.4-34.6,19-40
			c-0.2-1.3-0.4-2.4-0.5-3.1h-0.3c-2.8,5.6-8.2,14.1-17.3,21c-2.8,6.2-4.8,13.3-5.4,21.5c-0.4,5.7,0,11.1,0.9,16.1
			c1.4-1,2.8-2.1,4.1-3.4C138.9,224.8,138.7,220.8,139,216.5z"/>
		
			<linearGradient id="SVGID_00000005965550931581083670000015746211210931510926_" gradientUnits="userSpaceOnUse" x1="175.0723" y1="228.3376" x2="175.0723" y2="44.7908">
			<stop  offset="0" style="stop-color:#B5842C"/>
			<stop  offset="0.4944" style="stop-color:#F5BB18"/>
			<stop  offset="1" style="stop-color:#B5842C"/>
		</linearGradient>
		<path style="fill:url(#SVGID_00000005965550931581083670000015746211210931510926_);" d="M186.8,215.9c-0.6-8.2-2.7-15.3-5.4-21.5
			c-9.1-6.9-14.5-15.4-17.3-21h-0.3c-0.1,0.7-0.3,1.8-0.5,3.1c5.7,5.4,17.6,18.9,19,40c0.3,4.3,0.1,8.3-0.4,12.1
			c1.3,1.2,2.7,2.3,4.1,3.4C186.8,227,187.2,221.6,186.8,215.9z"/>
		
			<linearGradient id="SVGID_00000148630868732657554770000013019389016282013342_" gradientUnits="userSpaceOnUse" x1="160.6035" y1="228.3376" x2="160.6035" y2="44.7908">
			<stop  offset="0" style="stop-color:#B5842C"/>
			<stop  offset="0.4944" style="stop-color:#F5BB18"/>
			<stop  offset="1" style="stop-color:#B5842C"/>
		</linearGradient>
		<path style="fill:url(#SVGID_00000148630868732657554770000013019389016282013342_);" d="M160.6,267.2
			c-1.4-1.2-15.5-13.3-20.2-33.5c-1.3,1.1-2.6,2.1-4,3c6,22.2,22.5,35.5,24.2,36.8c1.7-1.3,18.2-14.6,24.2-36.8
			c-1.3-0.9-2.7-1.9-4-3C176.1,253.9,162,266,160.6,267.2z"/>
		
			<linearGradient id="SVGID_00000052081396468046614180000003777523605648366228_" gradientUnits="userSpaceOnUse" x1="158.3026" y1="228.3376" x2="158.3026" y2="44.7908">
			<stop  offset="0" style="stop-color:#B5842C"/>
			<stop  offset="0.4944" style="stop-color:#F5BB18"/>
			<stop  offset="1" style="stop-color:#B5842C"/>
		</linearGradient>
		<path style="fill:url(#SVGID_00000052081396468046614180000003777523605648366228_);" d="M158,176.5c0.1,0.7,0.2,1.5,0.3,2.4
			c0.1-1,0.2-2,0.3-3C158.4,176.1,158.2,176.3,158,176.5z"/>
		
			<linearGradient id="SVGID_00000074411529115228765780000012934369121392646042_" gradientUnits="userSpaceOnUse" x1="126.8972" y1="228.3376" x2="126.8972" y2="44.7908">
			<stop  offset="0" style="stop-color:#B5842C"/>
			<stop  offset="0.4944" style="stop-color:#F5BB18"/>
			<stop  offset="1" style="stop-color:#B5842C"/>
		</linearGradient>
		<path style="fill:url(#SVGID_00000074411529115228765780000012934369121392646042_);" d="M150.2,173.4h-16.1
			c-7.3,3.1-15.1,8-22,15.6c-3.6,3.9-6.4,8.1-8.6,12.2c1.6,0.1,3.3,0.2,5.1,0.1c1.8-3.1,4-6.2,6.7-9.1
			C127.1,179.1,141.6,174.8,150.2,173.4z"/>
		
			<linearGradient id="SVGID_00000031173115883931113690000002135317346543263134_" gradientUnits="userSpaceOnUse" x1="162.8618" y1="228.3376" x2="162.8618" y2="44.7908">
			<stop  offset="0" style="stop-color:#B5842C"/>
			<stop  offset="0.4944" style="stop-color:#F5BB18"/>
			<stop  offset="1" style="stop-color:#B5842C"/>
		</linearGradient>
		<path style="fill:url(#SVGID_00000031173115883931113690000002135317346543263134_);" d="M162.9,190.5c0.4-4.3,0.3-8.2,0.1-11.5
			C162.6,182,162.5,185.9,162.9,190.5z"/>
		
			<linearGradient id="SVGID_00000058547725265696373640000000654240389620657309_" gradientUnits="userSpaceOnUse" x1="116.1698" y1="228.3376" x2="116.1698" y2="44.7908">
			<stop  offset="0" style="stop-color:#B5842C"/>
			<stop  offset="0.4944" style="stop-color:#F5BB18"/>
			<stop  offset="1" style="stop-color:#B5842C"/>
		</linearGradient>
		<path style="fill:url(#SVGID_00000058547725265696373640000000654240389620657309_);" d="M101.5,244.1c-0.4-1.8-4.1-20.2,5.1-38.9
			c-1.6,0-3.2-0.1-4.8-0.3c-9.5,21.1-4.6,41.9-4.1,44c2,0,21.3-0.2,38.8-12.3c-0.4-1.5-0.8-3.1-1.1-4.7
			C120,243.3,103.2,244.1,101.5,244.1z"/>
		
			<linearGradient id="SVGID_00000023979338236535362670000015974133085383838102_" gradientUnits="userSpaceOnUse" x1="150.0199" y1="228.3376" x2="150.0199" y2="44.7908">
			<stop  offset="0" style="stop-color:#B5842C"/>
			<stop  offset="0.4944" style="stop-color:#F5BB18"/>
			<stop  offset="1" style="stop-color:#B5842C"/>
		</linearGradient>
		<path style="fill:url(#SVGID_00000023979338236535362670000015974133085383838102_);" d="M152.4,220.5c4-5.9,6.6-11.9,8.2-17.7
			c-1.2-4.3-1.9-8.5-2.2-12.3c-0.7,8.1-3.2,18-9.8,27.7c-2.8,4.1-5.9,7.5-9.1,10.4c0.2,1.7,0.6,3.4,0.9,5.1
			C144.7,230.2,148.8,225.8,152.4,220.5z"/>
		
			<linearGradient id="SVGID_00000039129338186740734970000004155346143294353831_" gradientUnits="userSpaceOnUse" x1="137.8559" y1="228.3376" x2="137.8559" y2="44.7908">
			<stop  offset="0" style="stop-color:#B5842C"/>
			<stop  offset="0.4944" style="stop-color:#F5BB18"/>
			<stop  offset="1" style="stop-color:#B5842C"/>
		</linearGradient>
		<path style="fill:url(#SVGID_00000039129338186740734970000004155346143294353831_);" d="M139.4,228.6c-1.3,1.2-2.7,2.3-4.1,3.4
			c0.3,1.6,0.7,3.2,1.1,4.7c1.3-0.9,2.7-1.9,4-3C140,232,139.7,230.4,139.4,228.6z"/>
		
			<linearGradient id="SVGID_00000031909701594770852190000007676475239769373375_" gradientUnits="userSpaceOnUse" x1="137.8559" y1="228.3376" x2="137.8559" y2="44.7908">
			<stop  offset="0" style="stop-color:#B5842C"/>
			<stop  offset="0.4944" style="stop-color:#F5BB18"/>
			<stop  offset="1" style="stop-color:#B5842C"/>
		</linearGradient>
		<path style="fill:url(#SVGID_00000031909701594770852190000007676475239769373375_);" d="M139.4,228.6c-1.3,1.2-2.7,2.3-4.1,3.4
			c0.3,1.6,0.7,3.2,1.1,4.7c1.3-0.9,2.7-1.9,4-3C140,232,139.7,230.4,139.4,228.6z"/>
		
			<linearGradient id="SVGID_00000031204587483710364390000015460075878817598084_" gradientUnits="userSpaceOnUse" x1="158.2109" y1="228.3376" x2="158.2109" y2="44.7908">
			<stop  offset="0" style="stop-color:#B5842C"/>
			<stop  offset="0.4944" style="stop-color:#F5BB18"/>
			<stop  offset="1" style="stop-color:#B5842C"/>
		</linearGradient>
		<path style="fill:url(#SVGID_00000031204587483710364390000015460075878817598084_);" d="M158.9,173.4h-1.5
			c0.1,0.7,0.3,1.8,0.5,3.1c0.2-0.2,0.4-0.4,0.6-0.5C158.7,175.1,158.8,174.2,158.9,173.4z"/>
		
			<linearGradient id="SVGID_00000011744782765211718780000007508529185906913723_" gradientUnits="userSpaceOnUse" x1="158.2109" y1="228.3376" x2="158.2109" y2="44.7908">
			<stop  offset="0" style="stop-color:#B5842C"/>
			<stop  offset="0.4944" style="stop-color:#F5BB18"/>
			<stop  offset="1" style="stop-color:#B5842C"/>
		</linearGradient>
		<path style="fill:url(#SVGID_00000011744782765211718780000007508529185906913723_);" d="M158.9,173.4h-1.5
			c0.1,0.7,0.3,1.8,0.5,3.1c0.2-0.2,0.4-0.4,0.6-0.5C158.7,175.1,158.8,174.2,158.9,173.4z"/>
		
			<linearGradient id="SVGID_00000092440529862158750400000013337840287521442212_" gradientUnits="userSpaceOnUse" x1="130.4427" y1="228.3376" x2="130.4427" y2="44.7908">
			<stop  offset="0" style="stop-color:#B5842C"/>
			<stop  offset="0.4944" style="stop-color:#F5BB18"/>
			<stop  offset="1" style="stop-color:#B5842C"/>
		</linearGradient>
		<path style="fill:url(#SVGID_00000092440529862158750400000013337840287521442212_);" d="M127.1,201.5c4.9-1.9,9.1-4.4,12.7-7.1
			c4.2-9.4,10-16.5,14.5-21h-1.8c-3.4,6.4-11.4,18.4-27.1,24.5c-5.9,2.3-11.5,3.2-16.8,3.4c-0.8,1.3-1.5,2.6-2.1,3.9
			C112.9,205.4,119.9,204.4,127.1,201.5z"/>
		
			<linearGradient id="SVGID_00000121996670974387954820000015862058057536518803_" gradientUnits="userSpaceOnUse" x1="88.4842" y1="228.3376" x2="88.4842" y2="44.7908">
			<stop  offset="0" style="stop-color:#B5842C"/>
			<stop  offset="0.4944" style="stop-color:#F5BB18"/>
			<stop  offset="1" style="stop-color:#B5842C"/>
		</linearGradient>
		<path style="fill:url(#SVGID_00000121996670974387954820000015862058057536518803_);" d="M78.6,193.3c0.5-1.2,4.8-11.3,14.8-19.8
			h-5.7c-9.6,9.6-13.8,20.1-14.3,21.4c1.3,0.9,12.7,8.5,28.3,10.1c0.6-1.3,1.2-2.5,1.8-3.8C89.7,200.2,79.7,194,78.6,193.3z"/>
		
			<linearGradient id="SVGID_00000079481551580506190010000008381938974886386856_" gradientUnits="userSpaceOnUse" x1="148.4968" y1="228.3376" x2="148.4968" y2="44.7908">
			<stop  offset="0" style="stop-color:#B5842C"/>
			<stop  offset="0.4944" style="stop-color:#F5BB18"/>
			<stop  offset="1" style="stop-color:#B5842C"/>
		</linearGradient>
		<path style="fill:url(#SVGID_00000079481551580506190010000008381938974886386856_);" d="M139.8,194.4c9.1-6.9,14.5-15.4,17.3-21
			h-2.8C149.9,177.9,144.1,185,139.8,194.4z"/>
		
			<linearGradient id="SVGID_00000097475920421304172930000011337732599533194907_" gradientUnits="userSpaceOnUse" x1="148.4968" y1="228.3376" x2="148.4968" y2="44.7908">
			<stop  offset="0" style="stop-color:#B5842C"/>
			<stop  offset="0.4944" style="stop-color:#F5BB18"/>
			<stop  offset="1" style="stop-color:#B5842C"/>
		</linearGradient>
		<path style="fill:url(#SVGID_00000097475920421304172930000011337732599533194907_);" d="M139.8,194.4c9.1-6.9,14.5-15.4,17.3-21
			h-2.8C149.9,177.9,144.1,185,139.8,194.4z"/>
		
			<linearGradient id="SVGID_00000032610646842634962890000001843802615873386430_" gradientUnits="userSpaceOnUse" x1="105.1916" y1="228.3376" x2="105.1916" y2="44.7908">
			<stop  offset="0" style="stop-color:#B5842C"/>
			<stop  offset="0.4944" style="stop-color:#F5BB18"/>
			<stop  offset="1" style="stop-color:#B5842C"/>
		</linearGradient>
		<path style="fill:url(#SVGID_00000032610646842634962890000001843802615873386430_);" d="M108.7,201.3c-1.7,0-3.4,0-5.1-0.1
			c-0.7,1.2-1.3,2.5-1.8,3.8c1.6,0.2,3.2,0.3,4.8,0.3C107.2,203.9,107.9,202.6,108.7,201.3z"/>
		
			<linearGradient id="SVGID_00000165204017976864552010000001591572356784249493_" gradientUnits="userSpaceOnUse" x1="105.1916" y1="228.3376" x2="105.1916" y2="44.7908">
			<stop  offset="0" style="stop-color:#B5842C"/>
			<stop  offset="0.4944" style="stop-color:#F5BB18"/>
			<stop  offset="1" style="stop-color:#B5842C"/>
		</linearGradient>
		<path style="fill:url(#SVGID_00000165204017976864552010000001591572356784249493_);" d="M108.7,201.3c-1.7,0-3.4,0-5.1-0.1
			c-0.7,1.2-1.3,2.5-1.8,3.8c1.6,0.2,3.2,0.3,4.8,0.3C107.2,203.9,107.9,202.6,108.7,201.3z"/>
		
			<linearGradient id="SVGID_00000096046564592446357850000015468993384170728595_" gradientUnits="userSpaceOnUse" x1="158.3453" y1="228.3376" x2="158.3453" y2="44.7908">
			<stop  offset="0" style="stop-color:#B5842C"/>
			<stop  offset="0.4944" style="stop-color:#F5BB18"/>
			<stop  offset="1" style="stop-color:#B5842C"/>
		</linearGradient>
		<path style="fill:url(#SVGID_00000096046564592446357850000015468993384170728595_);" d="M158.3,178.9c-0.3,3.3-0.3,7.2,0.1,11.5
			C158.8,185.9,158.6,182,158.3,178.9z"/>
		
			<linearGradient id="SVGID_00000036211813394553810120000017083723568612780165_" gradientUnits="userSpaceOnUse" x1="194.3098" y1="228.3376" x2="194.3098" y2="44.7908">
			<stop  offset="0" style="stop-color:#B5842C"/>
			<stop  offset="0.4944" style="stop-color:#F5BB18"/>
			<stop  offset="1" style="stop-color:#B5842C"/>
		</linearGradient>
		<path style="fill:url(#SVGID_00000036211813394553810120000017083723568612780165_);" d="M187,173.4H171
			c8.6,1.4,23.1,5.6,34.9,18.8c2.7,3,4.9,6,6.7,9.1c1.7,0,3.4,0,5.1-0.1c-2.2-4.1-5-8.3-8.6-12.2C202.2,181.4,194.4,176.6,187,173.4
			z"/>
		
			<linearGradient id="SVGID_00000009574865450545845010000007930464810445061564_" gradientUnits="userSpaceOnUse" x1="162.9045" y1="228.3376" x2="162.9045" y2="44.7908">
			<stop  offset="0" style="stop-color:#B5842C"/>
			<stop  offset="0.4944" style="stop-color:#F5BB18"/>
			<stop  offset="1" style="stop-color:#B5842C"/>
		</linearGradient>
		<path style="fill:url(#SVGID_00000009574865450545845010000007930464810445061564_);" d="M162.9,178.9c0.1-0.9,0.2-1.7,0.3-2.4
			c-0.2-0.2-0.4-0.4-0.6-0.5C162.7,176.9,162.8,177.9,162.9,178.9z"/>
		
			<linearGradient id="SVGID_00000002351532856151203130000008173986302098642091_" gradientUnits="userSpaceOnUse" x1="205.0373" y1="228.3376" x2="205.0373" y2="44.7908">
			<stop  offset="0" style="stop-color:#B5842C"/>
			<stop  offset="0.4944" style="stop-color:#F5BB18"/>
			<stop  offset="1" style="stop-color:#B5842C"/>
		</linearGradient>
		<path style="fill:url(#SVGID_00000002351532856151203130000008173986302098642091_);" d="M219.8,244.1c-1.7,0-18.6-0.8-33.9-12.2
			c-0.3,1.6-0.7,3.2-1.1,4.7c17.5,12.1,36.7,12.3,38.8,12.3c0.5-2.1,5.4-23-4.1-44c-1.6,0.2-3.2,0.3-4.8,0.3
			C223.8,223.9,220.1,242.3,219.8,244.1z"/>
		
			<linearGradient id="SVGID_00000164516379485077992540000014084626085598881462_" gradientUnits="userSpaceOnUse" x1="171.1872" y1="228.3376" x2="171.1872" y2="44.7908">
			<stop  offset="0" style="stop-color:#B5842C"/>
			<stop  offset="0.4944" style="stop-color:#F5BB18"/>
			<stop  offset="1" style="stop-color:#B5842C"/>
		</linearGradient>
		<path style="fill:url(#SVGID_00000164516379485077992540000014084626085598881462_);" d="M172.7,218.2c-6.6-9.7-9.1-19.6-9.8-27.7
			c-0.3,3.9-1,8-2.2,12.3c1.6,5.8,4.2,11.8,8.2,17.7c3.6,5.3,7.7,9.7,12,13.2c0.4-1.6,0.7-3.3,0.9-5.1
			C178.5,225.7,175.5,222.3,172.7,218.2z"/>
		
			<linearGradient id="SVGID_00000075871705898840469060000003453659558251465909_" gradientUnits="userSpaceOnUse" x1="183.3512" y1="228.3376" x2="183.3512" y2="44.7908">
			<stop  offset="0" style="stop-color:#B5842C"/>
			<stop  offset="0.4944" style="stop-color:#F5BB18"/>
			<stop  offset="1" style="stop-color:#B5842C"/>
		</linearGradient>
		<path style="fill:url(#SVGID_00000075871705898840469060000003453659558251465909_);" d="M181.8,228.6c-0.2,1.7-0.6,3.4-0.9,5.1
			c1.3,1.1,2.6,2.1,4,3c0.4-1.5,0.8-3.1,1.1-4.7C184.5,230.9,183.1,229.8,181.8,228.6z"/>
		
			<linearGradient id="SVGID_00000142865800471194757850000017729333214756299675_" gradientUnits="userSpaceOnUse" x1="183.3512" y1="228.3376" x2="183.3512" y2="44.7908">
			<stop  offset="0" style="stop-color:#B5842C"/>
			<stop  offset="0.4944" style="stop-color:#F5BB18"/>
			<stop  offset="1" style="stop-color:#B5842C"/>
		</linearGradient>
		<path style="fill:url(#SVGID_00000142865800471194757850000017729333214756299675_);" d="M181.8,228.6c-0.2,1.7-0.6,3.4-0.9,5.1
			c1.3,1.1,2.6,2.1,4,3c0.4-1.5,0.8-3.1,1.1-4.7C184.5,230.9,183.1,229.8,181.8,228.6z"/>
		
			<linearGradient id="SVGID_00000088845522007065274910000008203748863149725844_" gradientUnits="userSpaceOnUse" x1="162.9962" y1="228.3376" x2="162.9962" y2="44.7908">
			<stop  offset="0" style="stop-color:#B5842C"/>
			<stop  offset="0.4944" style="stop-color:#F5BB18"/>
			<stop  offset="1" style="stop-color:#B5842C"/>
		</linearGradient>
		<path style="fill:url(#SVGID_00000088845522007065274910000008203748863149725844_);" d="M162.6,176c0.2,0.2,0.4,0.3,0.6,0.5
			c0.2-1.3,0.4-2.4,0.5-3.1h-1.5C162.4,174.2,162.5,175.1,162.6,176z"/>
		
			<linearGradient id="SVGID_00000026138955534505600610000016438202726887063713_" gradientUnits="userSpaceOnUse" x1="162.9962" y1="228.3376" x2="162.9962" y2="44.7908">
			<stop  offset="0" style="stop-color:#B5842C"/>
			<stop  offset="0.4944" style="stop-color:#F5BB18"/>
			<stop  offset="1" style="stop-color:#B5842C"/>
		</linearGradient>
		<path style="fill:url(#SVGID_00000026138955534505600610000016438202726887063713_);" d="M162.6,176c0.2,0.2,0.4,0.3,0.6,0.5
			c0.2-1.3,0.4-2.4,0.5-3.1h-1.5C162.4,174.2,162.5,175.1,162.6,176z"/>
		
			<linearGradient id="SVGID_00000015331814716185235390000011571058789696074169_" gradientUnits="userSpaceOnUse" x1="160.6035" y1="228.3376" x2="160.6035" y2="44.7908">
			<stop  offset="0" style="stop-color:#B5842C"/>
			<stop  offset="0.4944" style="stop-color:#F5BB18"/>
			<stop  offset="1" style="stop-color:#B5842C"/>
		</linearGradient>
		<path style="fill:url(#SVGID_00000015331814716185235390000011571058789696074169_);" d="M160.6,174.2c-0.4,0.3-1.1,0.9-2,1.8
			c-0.1,0.9-0.2,1.9-0.3,3c0.3,3.1,0.5,7,0.1,11.5c0.3,3.9,1,8,2.2,12.3c1.2-4.3,1.9-8.5,2.2-12.3c-0.4-4.5-0.3-8.5,0.1-11.5
			c-0.1-1-0.2-2-0.3-3C161.7,175.1,161,174.5,160.6,174.2z"/>
		
			<linearGradient id="SVGID_00000081615301791286691670000006498255132294912684_" gradientUnits="userSpaceOnUse" x1="160.6035" y1="228.3376" x2="160.6035" y2="44.7908">
			<stop  offset="0" style="stop-color:#B5842C"/>
			<stop  offset="0.4944" style="stop-color:#F5BB18"/>
			<stop  offset="1" style="stop-color:#B5842C"/>
		</linearGradient>
		<path style="fill:url(#SVGID_00000081615301791286691670000006498255132294912684_);" d="M160.6,174.2c-0.4,0.3-1.1,0.9-2,1.8
			c-0.1,0.9-0.2,1.9-0.3,3c0.3,3.1,0.5,7,0.1,11.5c0.3,3.9,1,8,2.2,12.3c1.2-4.3,1.9-8.5,2.2-12.3c-0.4-4.5-0.3-8.5,0.1-11.5
			c-0.1-1-0.2-2-0.3-3C161.7,175.1,161,174.5,160.6,174.2z"/>
		
			<linearGradient id="SVGID_00000080890389753852512030000010798815467094494878_" gradientUnits="userSpaceOnUse" x1="160.6035" y1="228.3376" x2="160.6035" y2="44.7908">
			<stop  offset="0" style="stop-color:#B5842C"/>
			<stop  offset="0.4944" style="stop-color:#F5BB18"/>
			<stop  offset="1" style="stop-color:#B5842C"/>
		</linearGradient>
		<path style="fill:url(#SVGID_00000080890389753852512030000010798815467094494878_);" d="M160.6,174.2c0.4,0.3,1.1,0.9,2,1.8
			c-0.1-0.9-0.2-1.8-0.3-2.5h-3.3c-0.1,0.8-0.2,1.6-0.3,2.5C159.5,175.1,160.2,174.5,160.6,174.2z"/>
		
			<linearGradient id="SVGID_00000121988381039748693320000001498321558013875635_" gradientUnits="userSpaceOnUse" x1="160.6035" y1="228.3376" x2="160.6035" y2="44.7908">
			<stop  offset="0" style="stop-color:#B5842C"/>
			<stop  offset="0.4944" style="stop-color:#F5BB18"/>
			<stop  offset="1" style="stop-color:#B5842C"/>
		</linearGradient>
		<path style="fill:url(#SVGID_00000121988381039748693320000001498321558013875635_);" d="M160.6,174.2c0.4,0.3,1.1,0.9,2,1.8
			c-0.1-0.9-0.2-1.8-0.3-2.5h-3.3c-0.1,0.8-0.2,1.6-0.3,2.5C159.5,175.1,160.2,174.5,160.6,174.2z"/>
		
			<linearGradient id="SVGID_00000114782597313844456050000001670481961326202245_" gradientUnits="userSpaceOnUse" x1="160.6035" y1="228.3376" x2="160.6035" y2="44.7908">
			<stop  offset="0" style="stop-color:#B5842C"/>
			<stop  offset="0.4944" style="stop-color:#F5BB18"/>
			<stop  offset="1" style="stop-color:#B5842C"/>
		</linearGradient>
		<path style="fill:url(#SVGID_00000114782597313844456050000001670481961326202245_);" d="M160.6,174.2c0.4,0.3,1.1,0.9,2,1.8
			c-0.1-0.9-0.2-1.8-0.3-2.5h-3.3c-0.1,0.8-0.2,1.6-0.3,2.5C159.5,175.1,160.2,174.5,160.6,174.2z"/>
		
			<linearGradient id="SVGID_00000065045208943621765730000015036445102000619430_" gradientUnits="userSpaceOnUse" x1="232.7227" y1="228.3376" x2="232.7227" y2="44.7908">
			<stop  offset="0" style="stop-color:#B5842C"/>
			<stop  offset="0.4944" style="stop-color:#F5BB18"/>
			<stop  offset="1" style="stop-color:#B5842C"/>
		</linearGradient>
		<path style="fill:url(#SVGID_00000065045208943621765730000015036445102000619430_);" d="M242.6,193.3c-1.1,0.7-11.1,7-25,8
			c0.7,1.2,1.3,2.5,1.8,3.8c15.7-1.6,27-9.2,28.3-10.1c-0.5-1.3-4.6-11.9-14.3-21.4h-5.7C237.8,182,242.2,192,242.6,193.3z"/>
		
			<linearGradient id="SVGID_00000085251673680872365230000009718294546364324286_" gradientUnits="userSpaceOnUse" x1="190.7643" y1="228.3376" x2="190.7643" y2="44.7908">
			<stop  offset="0" style="stop-color:#B5842C"/>
			<stop  offset="0.4944" style="stop-color:#F5BB18"/>
			<stop  offset="1" style="stop-color:#B5842C"/>
		</linearGradient>
		<path style="fill:url(#SVGID_00000085251673680872365230000009718294546364324286_);" d="M168.6,173.4h-1.8
			c4.5,4.5,10.3,11.5,14.5,21c3.6,2.7,7.8,5.2,12.7,7.1c7.2,2.8,14.2,3.8,20.6,3.7c-0.6-1.3-1.4-2.6-2.1-3.9
			c-5.3-0.1-10.9-1.1-16.8-3.4C180,191.8,172,179.9,168.6,173.4z"/>
		
			<linearGradient id="SVGID_00000131342202437278577880000005912757905321401240_" gradientUnits="userSpaceOnUse" x1="172.7102" y1="228.3376" x2="172.7102" y2="44.7908">
			<stop  offset="0" style="stop-color:#B5842C"/>
			<stop  offset="0.4944" style="stop-color:#F5BB18"/>
			<stop  offset="1" style="stop-color:#B5842C"/>
		</linearGradient>
		<path style="fill:url(#SVGID_00000131342202437278577880000005912757905321401240_);" d="M181.4,194.4c-4.2-9.4-10-16.5-14.5-21
			H164C166.9,179,172.2,187.5,181.4,194.4z"/>
		
			<linearGradient id="SVGID_00000146472396782202197670000010865737710076630680_" gradientUnits="userSpaceOnUse" x1="172.7102" y1="228.3376" x2="172.7102" y2="44.7908">
			<stop  offset="0" style="stop-color:#B5842C"/>
			<stop  offset="0.4944" style="stop-color:#F5BB18"/>
			<stop  offset="1" style="stop-color:#B5842C"/>
		</linearGradient>
		<path style="fill:url(#SVGID_00000146472396782202197670000010865737710076630680_);" d="M181.4,194.4c-4.2-9.4-10-16.5-14.5-21
			H164C166.9,179,172.2,187.5,181.4,194.4z"/>
		
			<linearGradient id="SVGID_00000090985429514730544950000001828109833835239088_" gradientUnits="userSpaceOnUse" x1="216.0154" y1="228.3376" x2="216.0154" y2="44.7908">
			<stop  offset="0" style="stop-color:#B5842C"/>
			<stop  offset="0.4944" style="stop-color:#F5BB18"/>
			<stop  offset="1" style="stop-color:#B5842C"/>
		</linearGradient>
		<path style="fill:url(#SVGID_00000090985429514730544950000001828109833835239088_);" d="M212.6,201.3c0.8,1.3,1.5,2.6,2.1,3.9
			c1.6,0,3.2-0.1,4.8-0.3c-0.6-1.3-1.2-2.5-1.8-3.8C216,201.3,214.3,201.4,212.6,201.3z"/>
		
			<linearGradient id="SVGID_00000140730589628034103600000008151699343900639129_" gradientUnits="userSpaceOnUse" x1="216.0154" y1="228.3376" x2="216.0154" y2="44.7908">
			<stop  offset="0" style="stop-color:#B5842C"/>
			<stop  offset="0.4944" style="stop-color:#F5BB18"/>
			<stop  offset="1" style="stop-color:#B5842C"/>
		</linearGradient>
		<path style="fill:url(#SVGID_00000140730589628034103600000008151699343900639129_);" d="M212.6,201.3c0.8,1.3,1.5,2.6,2.1,3.9
			c1.6,0,3.2-0.1,4.8-0.3c-0.6-1.3-1.2-2.5-1.8-3.8C216,201.3,214.3,201.4,212.6,201.3z"/>
		<polygon class="st53" points="160.6,167.9 160.6,167.9 160.6,167.9 160.6,167.9 		"/>
		<path class="st53" d="M161.1,167.9C161.1,167.9,161.1,167.9,161.1,167.9c-0.1,0-0.3,0-0.5,0v0
			C160.8,167.9,160.9,167.9,161.1,167.9z"/>
		<polygon class="st53" points="160.6,167.9 160.6,167.9 160.6,167.9 		"/>
		<path class="st53" d="M160.6,167.9c-0.2,0-0.4,0-0.5,0c0,0,0,0,0,0C160.3,167.9,160.4,167.9,160.6,167.9L160.6,167.9z"/>
		<polygon class="st53" points="160.6,167.9 160.6,167.9 160.6,167.9 		"/>
		<g>
			
				<linearGradient id="SVGID_00000077311320727279992440000004454523059284472248_" gradientUnits="userSpaceOnUse" x1="160.6044" y1="228.3376" x2="160.6044" y2="44.7908">
				<stop  offset="0" style="stop-color:#B5842C"/>
				<stop  offset="0.4944" style="stop-color:#F5BB18"/>
				<stop  offset="1" style="stop-color:#B5842C"/>
			</linearGradient>
			<path style="fill:url(#SVGID_00000077311320727279992440000004454523059284472248_);" d="M257.8,140.2c-7.3-4-14.3-8.4-21.1-13.2
				c-3.7-2.6-7.3-5.2-10.8-8.1c-2.8-2.3-5.5-4.5-8.2-6.8c-1.7-1.4-3.3-2.9-4.9-4.4c-1.7-1.6-3.5-3.3-5.2-5c-2.7-2.7-5.3-5.4-7.9-8.2
				c-1.9-2.1-3.7-4.3-5.6-6.4c-3-3.4-5.7-6.9-8.4-10.5c-5-6.7-9.5-13.6-13.7-20.8c-0.6-1-1.2-2.1-1.8-3.2c0.1,0,0.2,0,0.2,0
				c0.2,0.2,0.4,0.4,0.6,0.7c5.1,7,10.6,13.7,16.4,20.1c3.3,3.6,6.6,7.1,10.1,10.4c3.3,3.2,6.7,6.3,10.2,9.3
				c4.2,3.6,8.5,7,12.9,10.3c5.4,4,10.9,7.7,16.6,11.2c8.6,5.3,17.5,9.9,26.7,14c0,0,0,0,0,0v-1.3c-8.9-4-17.4-8.4-25.7-13.5
				c-6.9-4.2-13.5-8.7-19.9-13.6c-4-3-7.8-6.1-11.5-9.5c-3.6-3.2-7.2-6.5-10.6-9.9c-3.3-3.3-6.5-6.7-9.7-10.2
				c-2.8-3.2-5.5-6.4-8.2-9.7c-3.9-4.8-7.5-9.8-11-15c-0.1-0.2-0.2-0.4-0.3-0.7c1.1-0.1,2.1-0.1,3.2-0.2c0-2.1,0-4.2,0-6.2
				c-0.5-0.3-1-0.6-1.5-0.9c0-1,0-1.9,0-2.8c0-1,0.1-1.9-0.1-2.9c-1.6-1.1-4.1-2-5.9-2.2c-1.4-0.2-2.7-0.2-4.1,0
				c-2,0.2-3.9,1-5.7,1.9c-0.5,0.2-0.7,0.7-0.6,1.2c0,1.2,0,2.3,0,3.5c0,0.5,0,1,0,1.4c-0.5,0.3-1,0.6-1.4,0.9c0,2.1,0,4,0,6.1
				c0.8,0.2,1.7,0.2,2.5,0.2c0.2,0,0.5-0.1,0.6,0.3c-0.3,0.5-0.6,1-0.9,1.4c-1.5,2.2-3.1,4.4-4.6,6.6c-4.5,6.2-9.4,12.1-14.5,17.8
				c-3.2,3.5-6.4,7-9.8,10.2c-2.5,2.4-5,4.9-7.7,7.2c-3.1,2.7-6.3,5.4-9.5,8c-5.4,4.4-11,8.4-16.8,12.3c-10.5,7-21.6,13-33.1,18.2
				v1.3c7.7-3.4,15.1-7.2,22.4-11.4c11-6.4,21.4-13.7,31.3-21.9c4.5-3.7,8.9-7.7,13.1-11.7c6.3-6,12.1-12.4,17.6-19.2
				c2.9-3.5,5.6-7.2,8.4-10.9c0.2-0.2,0.4-0.4,0.5-0.6c0,0,0-0.1,0-0.1c0,0,0,0,0.1,0c0.1-0.2,0.2-0.4,0.2-0.6
				c0.1,0.3,0,0.5-0.2,0.6c0,0,0,0,0,0c0,0,0,0-0.1,0.1c0,0.2-0.1,0.4-0.2,0.6c-0.3,0.6-0.7,1.2-1,1.8c-4,6.9-8.3,13.5-13,20
				c-3.1,4.2-6.3,8.4-9.8,12.4c-2,2.3-4,4.7-6.1,6.9c-3.3,3.6-6.6,7-10.2,10.3c-2.9,2.7-5.9,5.5-8.9,8c-3.4,2.9-6.9,5.6-10.4,8.3
				c-3.3,2.5-6.8,5-10.2,7.3c-7.2,4.9-14.6,9.3-22.2,13.2c-0.4,0.2-0.9,0.5-1.3,0.7v2c4.4-2.3,8.7-4.6,13-7.2
				c9.3-5.5,18.2-11.6,26.6-18.4c4.1-3.3,8.1-6.7,12-10.3c3.3-3.1,6.6-6.3,9.7-9.5c4-4.1,7.8-8.5,11.5-12.9
				c3.7-4.5,7.2-9.1,10.5-13.9c5.6-8,10.6-16.2,15.2-24.8c0.4-0.8,0.7-1.4,0-2.1c0,0,0-0.2,0-0.3c1.1-0.2,8.2-0.2,9.6-0.1
				c0.1,0,0.1,0.1,0.2,0.2c0,0.1-0.1,0.3-0.2,0.4c-0.5,0.5-0.4,0.9-0.1,1.5c0.5,0.9,1,1.8,1.5,2.7c3.7,6.7,7.6,13.3,11.9,19.6
				c3.2,4.7,6.5,9.3,10.1,13.7c2.1,2.5,4.2,5,6.3,7.5c0.7,0.8,1.4,1.6,2.1,2.4c1.8,2,3.6,4,5.4,5.9c4.9,5,9.8,9.9,15.2,14.4
				c2.6,2.2,5.2,4.4,7.9,6.5c4.4,3.5,8.9,6.8,13.6,9.9c5.4,3.7,11,7.1,16.7,10.3c2.7,1.5,5.3,2.9,8.1,4.3v-2.1
				C261.9,142.4,259.8,141.3,257.8,140.2z"/>
			
				<linearGradient id="SVGID_00000075871986277411083800000011383679581844027063_" gradientUnits="userSpaceOnUse" x1="160.6045" y1="228.3376" x2="160.6045" y2="44.7908">
				<stop  offset="0" style="stop-color:#B5842C"/>
				<stop  offset="0.4944" style="stop-color:#F5BB18"/>
				<stop  offset="1" style="stop-color:#B5842C"/>
			</linearGradient>
			<path style="fill:url(#SVGID_00000075871986277411083800000011383679581844027063_);" d="M56.3,147.1v-4.1l1.8-0.9
				c7.7-4,15.2-8.5,22.2-13.2c3.5-2.4,6.9-4.8,10.2-7.3c3.6-2.8,7.1-5.6,10.3-8.3c3.1-2.6,6-5.4,8.9-8c3.3-3.1,6.6-6.5,10.1-10.3
				c1.4-1.6,2.8-3.2,4.2-4.8c0.6-0.7,1.2-1.4,1.9-2.2c3-3.5,6.1-7.4,9.8-12.3c2.5-3.3,4.8-6.7,7-10.2c-0.1,0.1-0.2,0.3-0.3,0.4
				c-5.5,6.7-11.5,13.2-17.7,19.2c-4.3,4.1-8.7,8.1-13.1,11.8c-9.8,8.2-20.4,15.6-31.4,22c-7.2,4.2-14.8,8.1-22.5,11.5l-1.3,0.6
				v-3.3l0.6-0.2c11.6-5.2,22.7-11.3,32.9-18.1C96,105,101.5,101,106.5,97c2.6-2.1,6.1-5,9.5-8c2.1-1.9,4.2-3.9,6.2-5.8l1.4-1.4
				c3-2.9,6.1-6.2,9.8-10.2c5.2-5.8,10.1-11.8,14.4-17.7c1.2-1.6,2.4-3.3,3.5-5l1.1-1.6c0.1-0.1,0.1-0.2,0.2-0.3
				c-0.6,0-1.2,0-1.8-0.2l-0.7-0.2v-7.3l1.4-0.9c0-0.3,0-0.6,0-0.9l0-0.4c0-1,0-2.1,0-3.1c0-1.2,0.6-1.8,1.2-2.1
				c1.7-0.8,3.7-1.7,6-1.9c1.5-0.2,2.9-0.2,4.3,0c2.1,0.3,4.6,1.2,6.3,2.4l0.3,0.2l0.1,0.3c0.2,0.8,0.2,1.5,0.1,2.2
				c0,0.3,0,0.6,0,0.9c0,0.7,0,1.3,0,2l0,0.4l1.4,0.9l0,0.5c0,1.2,0,2.4,0,3.6c0,0.9,0,1.7,0,2.6l0,0.9l-2.6,0.1
				c3.6,5.3,7,9.9,10.5,14.2c2.4,3,5.3,6.4,8.2,9.7c3.6,4,6.6,7.2,9.6,10.2c3.4,3.4,7.1,6.6,10.6,9.8c3.2,2.9,6.9,5.9,11.5,9.4
				c6.3,4.8,13,9.4,19.8,13.6c8.1,5,16.7,9.5,25.6,13.4l0.6,0.2v3.3l-1.3-0.6c-9.3-4.1-18.3-8.9-26.8-14.1
				c-5.7-3.5-11.3-7.3-16.7-11.3c-4.5-3.3-8.9-6.8-13-10.3c-3.2-2.7-6.5-5.8-10.2-9.3c-3.3-3.2-6.6-6.6-10.1-10.4
				c-2.8-3.1-5.5-6.2-8.2-9.4c2.5,3.9,5.2,7.7,8,11.4c2.6,3.4,5.3,7.1,8.3,10.5c0.7,0.8,1.5,1.7,2.2,2.6c1.1,1.3,2.2,2.6,3.3,3.8
				c2.6,2.8,5.3,5.6,7.9,8.2c1.7,1.7,3.5,3.4,5.1,5c1.6,1.5,3.2,3,4.8,4.4c2.8,2.4,5.7,4.8,8.2,6.8c3.7,3,7.5,5.8,10.7,8
				c6.6,4.7,13.7,9.1,21,13.1l0,0c1.9,1,3.8,2.1,6.2,3.3l0.5,0.3v4.2l-1.4-0.7c-2.8-1.4-5.5-2.9-8.1-4.3
				c-5.7-3.2-11.3-6.7-16.8-10.3c-4.8-3.2-9.4-6.6-13.6-10c-1.8-1.4-3.6-2.9-5.3-4.4c-0.8-0.7-1.7-1.4-2.6-2.1
				c-5.3-4.4-10-9.1-15.3-14.5c-1.4-1.4-2.7-2.9-4-4.3c-0.5-0.6-1-1.1-1.5-1.7c-0.7-0.7-1.4-1.6-2.2-2.4l-1.3-1.5c-1.6-2-3.3-4-5-6
				c-3.3-4.1-6.6-8.6-10.1-13.7c-4.2-6.2-8.2-12.8-12-19.7c-0.2-0.4-0.4-0.8-0.6-1.2c-0.3-0.5-0.5-1-0.8-1.5
				c-0.4-0.7-0.4-1.2-0.3-1.6c-1.8-0.1-5.3-0.1-7.1,0c0.1,0.8-0.2,1.6-0.5,2c-4.6,8.7-9.7,17.1-15.3,24.9c-3.5,4.9-7,9.6-10.6,13.9
				c-3.8,4.6-7.7,8.9-11.5,13c-3.5,3.6-6.7,6.7-9.8,9.6c-3.9,3.6-8,7.1-12,10.3c-8.4,6.7-17.4,12.9-26.7,18.4
				c-4.1,2.4-8.5,4.9-13.1,7.2L56.3,147.1z M151.4,54.4c0,0.1-0.1,0.2-0.1,0.3c0.1-0.2,0.2-0.3,0.3-0.5
				C151.5,54.3,151.5,54.4,151.4,54.4z M151.5,51.9l0.3,1c0.1,0.4,0.1,0.7,0,0.9c1.1-1.9,2.1-3.8,3.1-5.7c0.4-0.7,0.3-0.8,0.1-1
				c-0.1-0.1-0.1-0.1-0.2-0.2l-0.2,0.4c-0.2,0.3-0.4,0.7-0.7,1l-1.1,1.6C152.4,50.6,151.9,51.2,151.5,51.9z M166.4,46.9
				c-0.1,0.2-0.1,0.4-0.3,0.5c0,0,0,0.1,0.1,0.3c0.3,0.5,0.6,1.1,0.9,1.6c0.2,0.4,0.4,0.8,0.6,1.1c0.4,0.7,0.8,1.5,1.2,2.2l1.5-0.1
				c-1.2-1.7-2.4-3.5-3.7-5.3C166.5,47.2,166.4,47,166.4,46.9z M153.7,45.1c0.6,0,1,0.3,1.2,0.6l0-0.3l0.7-0.1
				c1.3-0.2,8.5-0.3,9.9-0.1c0.1,0,0.1,0,0.2,0l0,0l3.7-0.2c0-0.6,0-1.2,0-1.7c0-1,0-2,0-3l-1.5-0.9l0-1.4c0-0.6,0-1.3,0-1.9
				c0-0.3,0-0.6,0-1c0-0.5,0-0.9,0-1.4c-1.6-1-3.7-1.7-5.1-1.9c-1.3-0.2-2.5-0.2-3.8,0c-2,0.2-3.8,1-5.4,1.8c-0.1,0-0.1,0.1-0.1,0.3
				c0,1.1,0,2.1,0,3.2l0,0.4c0,0.3,0,0.7,0,1l0,0.9l-1.4,0.9v4.8c0.5,0,1,0,1.6,0C153.6,45.2,153.6,45.1,153.7,45.1z"/>
		</g>
		
			<linearGradient id="SVGID_00000096050376950997020960000016245780290485621656_" gradientUnits="userSpaceOnUse" x1="160.6505" y1="228.3376" x2="160.6505" y2="44.7908">
			<stop  offset="0" style="stop-color:#B5842C"/>
			<stop  offset="0.4944" style="stop-color:#F5BB18"/>
			<stop  offset="1" style="stop-color:#B5842C"/>
		</linearGradient>
		<path style="fill:url(#SVGID_00000096050376950997020960000016245780290485621656_);" d="M168.4,41c-0.1-0.1-0.3-0.3-0.5-0.3
			c-2.2-1.1-4.5-1.5-6.9-1.7c-0.3,0-0.7,0-1,0c-2.2,0.3-4.3,0.7-6.4,1.6c-0.3,0.1-0.6,0.3-0.8,0.4c0,1.1,0,2,0,3.1
			c0.2,0,0.4,0.1,0.6,0.1c4.7,0,9.5,0,14.2,0c0.2,0,0.5-0.1,0.7-0.2C168.4,42.9,168.4,42,168.4,41z"/>
		
			<linearGradient id="SVGID_00000181052255976821410040000001976790120446169483_" gradientUnits="userSpaceOnUse" x1="160.6243" y1="228.3376" x2="160.6243" y2="44.7908">
			<stop  offset="0" style="stop-color:#B5842C"/>
			<stop  offset="0.4944" style="stop-color:#F5BB18"/>
			<stop  offset="1" style="stop-color:#B5842C"/>
		</linearGradient>
		<path style="fill:url(#SVGID_00000181052255976821410040000001976790120446169483_);" d="M154.3,34.3c0,0.8-0.1,1.4-0.1,2
			c0,0.6,0.1,1.2,0.1,1.9c2.1-0.6,4.1-1,6.2-1.1c2.2-0.1,4.2,0.5,6.4,1c0-1.4,0.1-2.6-0.1-3.9C162.7,32,158.6,32.2,154.3,34.3z"/>
		<g>
			
				<linearGradient id="SVGID_00000005228163666462417720000000242192332210247084_" gradientUnits="userSpaceOnUse" x1="160.6035" y1="228.3376" x2="160.6035" y2="44.7908">
				<stop  offset="0" style="stop-color:#B5842C"/>
				<stop  offset="0.4944" style="stop-color:#F5BB18"/>
				<stop  offset="1" style="stop-color:#B5842C"/>
			</linearGradient>
			<path style="fill:url(#SVGID_00000005228163666462417720000000242192332210247084_);" d="M94.3,157.5c-0.3,0-0.6,0-0.8,0
				c-0.5,0-1-0.3-1.3-0.7c-0.3-0.4-0.3-0.9-0.1-1.4c0.2-0.5,0.4-0.9,0.5-1.3l0.1-0.2c2.8-6.7,6.5-12.8,11-18.3
				c2.8-3.4,5.9-6.5,9.3-9.5c4.4-3.7,9.2-6.9,14.3-9.6c4.2-2.2,8.7-3.9,13.4-5.2c0.2-0.1,0.4-0.1,0.6-0.2l0-9.3c0-0.3,0-0.5,0-0.8
				c0.1-1.1,0.7-1.7,1.7-1.7c0.6,0,1.3,0,1.9,0l32.3,0c0.3,0,0.6,0,0.9,0c0.7,0.1,1.3,0.6,1.4,1.3c0.1,0.4,0.1,0.9,0.1,1.3
				c0,2.1,0,4.1,0,6.2l0,2.9c0.1,0.1,0.3,0.2,0.6,0.2l0.2,0c5.1,1.5,10,3.4,14.4,5.7c4.4,2.4,8.6,5.1,12.4,8.2
				c3.3,2.7,6.4,5.8,9.2,9.1c5,5.8,9.1,12.5,12.1,19.7l0.1,0.2c0.2,0.4,0.3,0.8,0.5,1.2c0.1,0.5,0.1,0.9-0.2,1.3
				c-0.3,0.4-0.7,0.6-1.2,0.7c-0.3,0-0.6,0-0.9,0l-0.6,0L94.3,157.5z M225.3,154.3c0-0.1,0-0.1-0.1-0.2c-0.3-0.6-0.6-1.3-0.9-1.9
				c-0.8-1.6-1.5-3.2-2.4-4.8c-2.7-4.9-6.2-9.6-10.3-13.9c-3-3.2-6.4-6.1-10-8.7c-4.7-3.4-10-6.2-15.7-8.4
				c-5.4-2.1-11.4-3.5-18.5-4.4c-1.1-0.1-2.2-0.2-3.3-0.2l-0.9,0c-0.6,0-1.2,0-1.7,0c-1.5,0-3.1,0.1-4.6,0.2c-1,0.1-2,0.1-3,0.1
				c-0.1,0-0.1,0-0.2,0c-0.4,0.1-0.8,0.1-1.2,0.2c-0.8,0.1-1.7,0.3-2.5,0.4c-2.8,0.3-5.5,1-7.7,1.6c-5.9,1.6-11.7,4-17.1,7.1
				c-6.9,4.1-13,9.1-17.9,15c-2.2,2.6-4.3,5.4-6.1,8.1c-1.9,2.9-3.6,6.2-5.1,9.7c0,0.1-0.1,0.1-0.1,0.2H225.3z M160.3,108.6
				c1.2,0,2.4,0,3.6,0c1.6,0,3.1,0.2,4.6,0.4c0.7,0.1,1.4,0.2,2.1,0.2c1.1,0.1,2.2,0.3,3.3,0.5c0.8,0.2,1.7,0.3,2.5,0.5
				c0.1-1.7,0.2-6,0-7.8c-0.1,0-0.2,0-0.3,0v-0.7l0,0.7c-10.5,0-21,0-31.4,0c0,0.3,0,0.6,0,0.9c0,1-0.1,2-0.1,3.1c0,0.5,0,1.1,0,1.6
				c0,0.7,0,1.5,0.1,2.2c0.4-0.1,0.9-0.2,1.3-0.2c1.5-0.3,3-0.5,4.5-0.7c2-0.3,4.4-0.6,6.7-0.6C158.3,108.6,159.3,108.6,160.3,108.6
				z"/>
			
				<linearGradient id="SVGID_00000088130849652904500250000009584491962146064568_" gradientUnits="userSpaceOnUse" x1="160.6031" y1="228.3376" x2="160.6031" y2="44.7908">
				<stop  offset="0" style="stop-color:#B5842C"/>
				<stop  offset="0.4944" style="stop-color:#F5BB18"/>
				<stop  offset="1" style="stop-color:#B5842C"/>
			</linearGradient>
			<path style="fill:url(#SVGID_00000088130849652904500250000009584491962146064568_);" d="M94.3,158L94.3,158c-0.3,0-0.6,0-0.9,0
				c-0.7,0-1.3-0.4-1.6-0.9c-0.3-0.5-0.4-1.2-0.2-1.8c0.2-0.5,0.4-0.9,0.5-1.4l0.1-0.2c2.8-6.7,6.6-12.9,11.1-18.4
				c2.8-3.4,5.9-6.6,9.4-9.5c4.4-3.7,9.3-7,14.4-9.6c4.2-2.2,8.8-3.9,13.5-5.3c0.1,0,0.2-0.1,0.3-0.1l0-8.9c0-0.3,0-0.6,0-0.8
				c0.1-1.3,0.9-2.1,2.2-2.1c0.6,0,1.3,0,1.9,0l32.3,0c0.3,0,0.6,0,0.9,0c0.9,0.1,1.7,0.7,1.8,1.7c0.1,0.5,0.1,0.9,0.1,1.3
				c0,2.1,0,4.1,0,6.2l0,2.7c0.1,0,0.1,0,0.2,0.1l0.2,0.1c5.2,1.5,10,3.4,14.5,5.8c4.5,2.4,8.7,5.2,12.5,8.3
				c3.3,2.7,6.4,5.8,9.3,9.2c5,5.9,9.1,12.5,12.2,19.8l0.1,0.2c0.2,0.4,0.3,0.8,0.5,1.2c0.2,0.6,0.1,1.2-0.2,1.7
				c-0.3,0.5-0.9,0.8-1.5,0.9c-0.3,0-0.6,0-0.9,0l-0.6,0L94.3,158z M145.1,99.8c-0.6,0-1.3,0-1.9,0c-0.8,0-1.2,0.4-1.3,1.3
				c0,0.3,0,0.5,0,0.8l0,9.6l-0.3,0.1c-0.2,0.1-0.4,0.1-0.7,0.2c-4.7,1.3-9.2,3.1-13.4,5.2c-5.1,2.6-9.9,5.8-14.2,9.5
				c-3.4,2.9-6.5,6.1-9.3,9.4c-4.4,5.4-8.1,11.5-10.9,18.2l-0.1,0.2c-0.2,0.4-0.4,0.9-0.5,1.3c-0.1,0.4-0.1,0.7,0.1,1
				c0.2,0.3,0.5,0.4,0.9,0.5c0.3,0,0.5,0,0.8,0l131.9,0l0.6,0c0.3,0,0.6,0,0.9,0c0.4,0,0.7-0.2,0.8-0.5c0.2-0.3,0.2-0.6,0.1-0.9
				c-0.1-0.4-0.3-0.8-0.4-1.1l-0.1-0.2c-3-7.2-7-13.7-12-19.5c-2.8-3.3-5.9-6.4-9.2-9c-3.8-3.1-7.9-5.9-12.3-8.2
				c-4.4-2.3-9.2-4.2-14.3-5.7l-0.2,0c-0.3-0.1-0.5-0.1-0.7-0.3l-0.2-0.1l0-3.1c0-2.1,0-4.1,0-6.2c0-0.4,0-0.8-0.1-1.2
				c-0.1-0.5-0.5-0.8-1-0.9c-0.3,0-0.6,0-0.9,0L145.1,99.8z M225.9,154.8H95.2l0.4-0.8c1.5-3.5,3.3-6.8,5.2-9.8
				c1.8-2.8,3.8-5.5,6.1-8.2c5-5.9,11.1-11,18.1-15.1c5.4-3.2,11.2-5.6,17.2-7.2c2.3-0.6,5-1.3,7.8-1.6c0.8-0.1,1.6-0.2,2.5-0.4
				c0.4-0.1,0.8-0.1,1.2-0.2c0.1,0,0.2,0,0.2,0c1,0,2-0.1,3-0.1c2.1-0.1,4.3-0.2,6.4-0.1l0.9,0c1.1,0,2.2,0.1,3.3,0.2
				c7.1,0.9,13.2,2.3,18.6,4.4c5.7,2.2,11.1,5.1,15.8,8.5c3.7,2.6,7.1,5.6,10.1,8.8c4.2,4.4,7.6,9.1,10.4,14
				c0.9,1.6,1.7,3.2,2.4,4.8l0.1,0.1c0.3,0.6,0.6,1.2,0.9,1.8c0,0.1,0.1,0.1,0.1,0.2L225.9,154.8z M96.7,153.9h127.8
				c-0.2-0.4-0.4-0.8-0.6-1.2l-0.1-0.1c-0.8-1.6-1.5-3.2-2.4-4.7c-2.7-4.9-6.1-9.5-10.2-13.8c-3-3.2-6.4-6.1-10-8.7
				c-4.7-3.3-9.9-6.1-15.6-8.4c-5.3-2.1-11.4-3.5-18.4-4.4c-1.1-0.1-2.2-0.2-3.2-0.2l-0.9,0c-2.1-0.1-4.2,0-6.2,0.1
				c-1,0.1-2,0.1-3,0.1c0,0-0.1,0-0.1,0c-0.4,0.1-0.8,0.1-1.2,0.2c-0.8,0.1-1.7,0.3-2.5,0.4c-2.7,0.3-5.4,1-7.7,1.6
				c-5.9,1.6-11.6,4-16.9,7.1c-6.9,4-12.9,9-17.8,14.9c-2.2,2.6-4.3,5.3-6,8.1C99.8,147.5,98.2,150.5,96.7,153.9z M144.3,110.8
				l0-0.5c-0.1-0.8-0.1-1.5-0.1-2.3c0-0.6,0-1.1,0-1.6c0-1,0-2.1,0.1-3.1l0.1-1.3l0.4,0c10.3,0,20.6,0,31,0l0-0.2l0.9,0v0.2l0.3,0
				l0,0.4c0.1,1.8,0.1,6.1,0,7.9l0,0.5l-0.5-0.1c-0.8-0.1-1.7-0.3-2.5-0.5c-1.1-0.2-2.2-0.4-3.3-0.5c-0.7-0.1-1.4-0.1-2.1-0.2
				c-1.5-0.2-3.1-0.4-4.6-0.4c-2.2-0.1-4.4-0.1-6.6,0c-2.3,0.1-4.7,0.4-6.7,0.6c-1.5,0.2-2.9,0.5-4.5,0.7L144.3,110.8z M160.3,108.2
				c1.2,0,2.4,0,3.6,0c1.6,0,3.1,0.2,4.6,0.4c0.8,0.1,1.4,0.2,2.1,0.2c1.1,0.1,2.3,0.3,3.3,0.6c0.7,0.1,1.3,0.3,2,0.4
				c0.1-1.8,0.1-5.1,0-6.8c-10.3,0-20.6,0-30.9,0l0,0.4c0,1-0.1,2-0.1,3c0,0.5,0,1.1,0,1.6c0,0.6,0,1.1,0,1.7l0.8-0.1
				c1.6-0.3,3-0.5,4.5-0.7c2-0.3,4.4-0.6,6.8-0.6C158.3,108.2,159.3,108.2,160.3,108.2z"/>
		</g>
		
			<linearGradient id="SVGID_00000147206489363716694890000013033633748261374127_" gradientUnits="userSpaceOnUse" x1="160.6035" y1="228.3376" x2="160.6035" y2="44.7908">
			<stop  offset="0" style="stop-color:#B5842C"/>
			<stop  offset="0.4944" style="stop-color:#F5BB18"/>
			<stop  offset="1" style="stop-color:#B5842C"/>
		</linearGradient>
		<path style="fill:url(#SVGID_00000147206489363716694890000013033633748261374127_);" d="M160.7,163.8c27.3,0,54.6,0,81.9,0
			c0.6,0,1.2,0,1.7,0c1.3,0.1,2.2,1.3,1.9,2.4c-0.2,0.8-1.1,1.4-2,1.5c-0.6,0-1.2,0-1.7,0c-42.1,0-84.1,0-126.2,0
			c-12.5,0-25.1,0-37.6,0c-0.5,0-1.1,0-1.6,0c-1.3-0.1-2.1-1-2-2.1c0-0.9,0.8-1.7,1.9-1.8c0.6,0,1.2,0,1.7,0
			C105.9,163.8,133.3,163.8,160.7,163.8z"/>
		
			<linearGradient id="SVGID_00000085240471754423648610000010110457475858448513_" gradientUnits="userSpaceOnUse" x1="160.6044" y1="228.3376" x2="160.6044" y2="44.7908">
			<stop  offset="0" style="stop-color:#B5842C"/>
			<stop  offset="0.4944" style="stop-color:#F5BB18"/>
			<stop  offset="1" style="stop-color:#B5842C"/>
		</linearGradient>
		<path style="fill:url(#SVGID_00000085240471754423648610000010110457475858448513_);" d="M160.6,96.2c-6.5,0-13.1,0-19.6,0
			c-0.6,0-1.2,0-1.7-0.2c-1.4-0.4-2.1-1.9-1.6-3.3c0.2-0.6,0.7-1.1,1.3-1.3c0.4-0.2,0.9-0.3,1.4-0.3c0.3,0,0.6,0,0.9,0
			c13,0,26,0,38.9,0c0.6,0,1.3,0,1.9,0.2c1.3,0.4,1.9,1.3,1.8,2.6c-0.1,1.2-0.9,2-2.1,2.2c-0.5,0.1-1,0.1-1.5,0.1
			C173.6,96.2,167.1,96.2,160.6,96.2z"/>
		
			<linearGradient id="SVGID_00000055669015677367432390000013334621500573083051_" gradientUnits="userSpaceOnUse" x1="160.6044" y1="228.3376" x2="160.6044" y2="44.7908">
			<stop  offset="0" style="stop-color:#B5842C"/>
			<stop  offset="0.4944" style="stop-color:#F5BB18"/>
			<stop  offset="1" style="stop-color:#B5842C"/>
		</linearGradient>
		<path style="fill:url(#SVGID_00000055669015677367432390000013334621500573083051_);" d="M160.7,88.4c-5.5,0-11,0-16.5,0
			c-0.4,0-0.8,0-1.2,0c-0.9-0.1-1.6-1-1.5-1.8c0.1-0.9,0.7-1.5,1.6-1.5c0.6,0,1.3,0.1,1.9,0.1c3.3,0,6.6,0,9.9,0c3.5,0,6.9,0,10.4,0
			c1,0,2-0.1,3.1-0.1c0.6,0,1.2,0,1.8,0c2.6,0,5.2,0,7.7,0c1.1,0,1.8,0.6,1.9,1.5c0.1,0.9-0.7,1.8-1.7,1.9c-0.4,0-0.8,0-1.2,0
			C171.5,88.4,166.1,88.4,160.7,88.4z"/>
		
			<linearGradient id="SVGID_00000112598344130333649010000011459930255539683213_" gradientUnits="userSpaceOnUse" x1="160.6044" y1="228.3376" x2="160.6044" y2="44.7908">
			<stop  offset="0" style="stop-color:#B5842C"/>
			<stop  offset="0.4944" style="stop-color:#F5BB18"/>
			<stop  offset="1" style="stop-color:#B5842C"/>
		</linearGradient>
		<path style="fill:url(#SVGID_00000112598344130333649010000011459930255539683213_);" d="M160.6,79.2c4.7,0,9.5,0,14.2,0
			c0.4,0,0.8,0,1.2,0c0.8,0.1,1.3,0.6,1.3,1.3c0.1,1-0.4,1.5-1,1.7c-0.2,0.1-0.5,0.1-0.7,0.1c-0.3,0-0.7,0-1,0c-9.3,0-18.5,0-27.8,0
			c-0.5,0-1,0-1.5-0.1c-0.7-0.1-1.1-0.6-1.3-1.2c-0.1-0.6,0.1-1.1,0.5-1.4c0.2-0.2,0.5-0.3,0.8-0.4c0.4-0.1,0.8,0,1.2,0
			C151.1,79.2,155.9,79.2,160.6,79.2z"/>
		
			<linearGradient id="SVGID_00000007416364815542930270000016379646289614669714_" gradientUnits="userSpaceOnUse" x1="160.6044" y1="228.3376" x2="160.6044" y2="44.7908">
			<stop  offset="0" style="stop-color:#B5842C"/>
			<stop  offset="0.4944" style="stop-color:#F5BB18"/>
			<stop  offset="1" style="stop-color:#B5842C"/>
		</linearGradient>
		<path style="fill:url(#SVGID_00000007416364815542930270000016379646289614669714_);" d="M160.4,76.1c-1.1,0-2.2,0-3.4,0
			c-1.9,0-3.9,0.1-5.8,0.1c-1.2,0-2.3,0-3.5,0c-0.8,0-1.4-0.6-1.4-1.4c0-0.9,0.4-1.4,1.3-1.4c0.3,0,0.7,0,1,0c7.9,0,15.9,0,23.8,0
			c0.3,0,0.6,0,0.9,0c0.9,0,1.4,0.6,1.4,1.3c0,0.8-0.6,1.5-1.4,1.5c-0.1,0-0.2,0-0.3,0c-2.3,0-4.6,0-6.8,0c-1,0-1.9,0-2.9,0
			C162.4,76.1,161.4,76.1,160.4,76.1z"/>
		
			<linearGradient id="SVGID_00000059271114703893186790000007310142503414376339_" gradientUnits="userSpaceOnUse" x1="160.6044" y1="228.3376" x2="160.6044" y2="44.7908">
			<stop  offset="0" style="stop-color:#B5842C"/>
			<stop  offset="0.4944" style="stop-color:#F5BB18"/>
			<stop  offset="1" style="stop-color:#B5842C"/>
		</linearGradient>
		<path style="fill:url(#SVGID_00000059271114703893186790000007310142503414376339_);" d="M160.7,70.1c-3.4,0-6.8,0-10.2,0
			c-0.3,0-0.7,0-1-0.2c-0.5-0.3-0.8-0.8-0.7-1.3c0.1-0.5,0.6-0.9,1.1-1c0.3,0,0.6,0,0.9,0c6.5,0,13.1,0,19.6,0c0.3,0,0.6,0,0.9,0
			c0.6,0.1,1.2,0.7,1.2,1.3c0,0.6-0.6,1.2-1.2,1.2c-0.3,0-0.6,0-0.9,0C167.1,70.1,163.9,70.1,160.7,70.1
			C160.7,70.1,160.7,70.1,160.7,70.1z"/>
		
			<linearGradient id="SVGID_00000009584009278880349580000012375583148339519419_" gradientUnits="userSpaceOnUse" x1="160.6044" y1="228.3376" x2="160.6044" y2="44.7908">
			<stop  offset="0" style="stop-color:#B5842C"/>
			<stop  offset="0.4944" style="stop-color:#F5BB18"/>
			<stop  offset="1" style="stop-color:#B5842C"/>
		</linearGradient>
		<path style="fill:url(#SVGID_00000009584009278880349580000012375583148339519419_);" d="M160.7,21.7c-0.2,0.4-0.3,0.6-0.4,0.9
			c-0.7,2.2-1.4,4.5-2.1,6.7c-0.1,0.2-0.1,0.5-0.2,0.7c-0.2,0.5-0.7,0.7-1.1,0.5c-0.5-0.2-0.8-0.7-0.7-1.2c0.3-1,0.6-1.9,0.9-2.9
			c0.8-2.5,1.6-5,2.4-7.5c0.1-0.2,0.1-0.5,0.2-0.7c0.2-0.4,0.4-0.7,0.8-0.7c0.5,0,0.7,0.2,0.9,0.6c0.1,0.2,0.2,0.4,0.2,0.5
			c1.1,3.5,2.2,7.1,3.4,10.6c0.2,0.5-0.1,1.1-0.7,1.3c-0.4,0.1-0.9-0.1-1.1-0.7c-0.6-1.7-1.1-3.4-1.6-5.2
			C161.3,23.7,161,22.8,160.7,21.7z"/>
		
			<linearGradient id="SVGID_00000114042863280617815830000005161374966320286354_" gradientUnits="userSpaceOnUse" x1="160.6044" y1="228.3376" x2="160.6044" y2="44.7908">
			<stop  offset="0" style="stop-color:#B5842C"/>
			<stop  offset="0.4944" style="stop-color:#F5BB18"/>
			<stop  offset="1" style="stop-color:#B5842C"/>
		</linearGradient>
		<path style="fill:url(#SVGID_00000114042863280617815830000005161374966320286354_);" d="M160.6,64c-2.5,0-5,0-7.4,0
			c-0.3,0-0.7,0-1,0c-0.4-0.1-0.9-0.6-0.9-1c0-0.4,0.3-1,0.8-1.1c0.4-0.1,0.9-0.1,1.3-0.1c4.2,0,8.5,0,12.7,0c0.8,0,1.6,0,2.3,0
			c0.3,0,0.6,0,0.9,0.1c0.5,0.1,0.7,0.6,0.7,1.2c0,0.5-0.4,0.9-0.9,1c-0.3,0-0.7,0-1,0C165.6,64,163.1,64,160.6,64z"/>
		
			<linearGradient id="SVGID_00000129183106389541589310000017399153113983238040_" gradientUnits="userSpaceOnUse" x1="160.6044" y1="228.3376" x2="160.6044" y2="44.7908">
			<stop  offset="0" style="stop-color:#B5842C"/>
			<stop  offset="0.4944" style="stop-color:#F5BB18"/>
			<stop  offset="1" style="stop-color:#B5842C"/>
		</linearGradient>
		<path style="fill:url(#SVGID_00000129183106389541589310000017399153113983238040_);" d="M160.4,58c-1.7,0-3.5,0-5.2,0
			c-0.2,0-0.5,0-0.7-0.1c-0.5-0.1-0.7-0.4-0.8-0.9c0-0.5,0.2-0.9,0.7-1c0.3-0.1,0.6-0.1,0.9-0.1c3.5,0,7.1,0,10.6,0
			c0.3,0,0.6,0,0.9,0.1c0.4,0.1,0.7,0.5,0.7,1c0,0.4-0.3,0.8-0.8,0.9c-0.2,0-0.5,0.1-0.7,0.1C164.1,58,162.3,58,160.4,58
			C160.4,58,160.4,58,160.4,58z"/>
		
			<linearGradient id="SVGID_00000090996160685580034450000009751765436787863214_" gradientUnits="userSpaceOnUse" x1="160.6044" y1="228.3376" x2="160.6044" y2="44.7908">
			<stop  offset="0" style="stop-color:#B5842C"/>
			<stop  offset="0.4944" style="stop-color:#F5BB18"/>
			<stop  offset="1" style="stop-color:#B5842C"/>
		</linearGradient>
		<path style="fill:url(#SVGID_00000090996160685580034450000009751765436787863214_);" d="M160.7,50.2c0.8,0,1.7,0,2.5,0
			c0.3,0,0.6,0,0.9,0c0.6,0,1,0.4,1,0.8c0,0.4-0.4,0.8-0.9,0.9c-0.2,0-0.5,0-0.7,0c-1.9,0-3.8,0-5.7,0c-0.4,0-0.8-0.1-1.1-0.2
			c-0.4-0.1-0.5-0.5-0.5-0.8c0-0.3,0.3-0.7,0.6-0.7c0.3,0,0.6-0.1,0.9-0.1C158.7,50.2,159.7,50.2,160.7,50.2z"/>
		
			<linearGradient id="SVGID_00000085222050819725896940000009508200910284369830_" gradientUnits="userSpaceOnUse" x1="160.6044" y1="228.3376" x2="160.6044" y2="44.7908">
			<stop  offset="0" style="stop-color:#B5842C"/>
			<stop  offset="0.4944" style="stop-color:#F5BB18"/>
			<stop  offset="1" style="stop-color:#B5842C"/>
		</linearGradient>
		<path style="fill:url(#SVGID_00000085222050819725896940000009508200910284369830_);" d="M160.8,33.8c1.2,0,2.4,0.2,3.6,0.6
			c0.4,0.1,0.6,0.4,0.6,0.7c0.1,0.5-0.4,1-0.9,1c-0.3,0-0.7-0.1-1-0.2c-1.8-0.4-3.6-0.3-5.3,0.1c-0.2,0.1-0.5,0.2-0.7,0.2
			c-0.4,0.1-0.9-0.2-1-0.7c-0.1-0.4,0.1-0.9,0.5-1C158,34,159.4,33.9,160.8,33.8z"/>
		
			<linearGradient id="SVGID_00000029732129774642201020000014873756512649518985_" gradientUnits="userSpaceOnUse" x1="150.7658" y1="228.3376" x2="150.7658" y2="44.7908">
			<stop  offset="0" style="stop-color:#B5842C"/>
			<stop  offset="0.4944" style="stop-color:#F5BB18"/>
			<stop  offset="1" style="stop-color:#B5842C"/>
		</linearGradient>
		<path style="fill:url(#SVGID_00000029732129774642201020000014873756512649518985_);" d="M150.9,53.2c-0.1,0.2-0.2,0.4-0.2,0.6
			C150.9,53.7,151,53.5,150.9,53.2z"/>
		
			<linearGradient id="SVGID_00000178904384901300596090000015714074766747951520_" gradientUnits="userSpaceOnUse" x1="150.5865" y1="228.3376" x2="150.5865" y2="44.7908">
			<stop  offset="0" style="stop-color:#B5842C"/>
			<stop  offset="0.4944" style="stop-color:#F5BB18"/>
			<stop  offset="1" style="stop-color:#B5842C"/>
		</linearGradient>
		<path style="fill:url(#SVGID_00000178904384901300596090000015714074766747951520_);" d="M150.6,53.8
			C150.6,53.8,150.6,53.8,150.6,53.8c-0.1,0-0.1,0.1-0.1,0.1C150.6,53.8,150.6,53.8,150.6,53.8C150.6,53.8,150.6,53.8,150.6,53.8z"
			/>
	</g>
</g>
</svg>
